<svg width="595" height="245" viewBox="0 0 595 245" fill="none" xmlns="http://www.w3.org/2000/svg">
<path d="M587 230L15 230" stroke="#DEDCFF" stroke-width="10" stroke-linecap="round"/>
<path d="M28.175 63L26.875 58.75H20.375L19.075 63H15L21.3 45.075H25.925L32.25 63H28.175ZM24.675 51.425C24.5917 51.1417 24.4833 50.7833 24.35 50.35C24.2167 49.9167 24.0833 49.475 23.95 49.025C23.8167 48.575 23.7083 48.1833 23.625 47.85C23.5417 48.1833 23.425 48.6 23.275 49.1C23.1417 49.5833 23.0083 50.05 22.875 50.5C22.7583 50.9333 22.6667 51.2417 22.6 51.425L21.325 55.575H25.975L24.675 51.425ZM46.7357 49.35V63H43.8857L43.3857 61.25H43.1857C42.9024 61.7167 42.5357 62.1 42.0857 62.4C41.6524 62.6833 41.1691 62.8917 40.6357 63.025C40.1024 63.175 39.5524 63.25 38.9857 63.25C38.0191 63.25 37.1691 63.075 36.4357 62.725C35.7024 62.375 35.1357 61.8333 34.7357 61.1C34.3357 60.3667 34.1357 59.4167 34.1357 58.25V49.35H37.8607V57.325C37.8607 58.2917 38.0357 59.025 38.3857 59.525C38.7357 60.025 39.2941 60.275 40.0607 60.275C40.8274 60.275 41.4191 60.1 41.8357 59.75C42.2691 59.4 42.5691 58.8917 42.7357 58.225C42.9191 57.5583 43.0107 56.7417 43.0107 55.775V49.35H46.7357ZM60.1664 58.95C60.1664 59.8667 59.9497 60.65 59.5164 61.3C59.0831 61.9333 58.4331 62.4167 57.5664 62.75C56.6997 63.0833 55.6247 63.25 54.3414 63.25C53.3914 63.25 52.5747 63.1833 51.8914 63.05C51.2081 62.9333 50.5247 62.7333 49.8414 62.45V59.375C50.5747 59.7083 51.3664 59.9833 52.2164 60.2C53.0664 60.4167 53.8164 60.525 54.4664 60.525C55.1997 60.525 55.7164 60.4167 56.0164 60.2C56.3331 59.9833 56.4914 59.7 56.4914 59.35C56.4914 59.1167 56.4247 58.9083 56.2914 58.725C56.1747 58.5417 55.9081 58.3333 55.4914 58.1C55.0747 57.8667 54.4247 57.5667 53.5414 57.2C52.6914 56.8333 51.9914 56.475 51.4414 56.125C50.8914 55.7583 50.4831 55.325 50.2164 54.825C49.9497 54.3083 49.8164 53.6667 49.8164 52.9C49.8164 51.6333 50.3081 50.6833 51.2914 50.05C52.2747 49.4167 53.5831 49.1 55.2164 49.1C56.0664 49.1 56.8747 49.1833 57.6414 49.35C58.4081 49.5167 59.1997 49.7917 60.0164 50.175L58.8914 52.85C58.4414 52.65 58.0081 52.475 57.5914 52.325C57.1747 52.175 56.7664 52.0583 56.3664 51.975C55.9831 51.8917 55.5831 51.85 55.1664 51.85C54.6164 51.85 54.1997 51.925 53.9164 52.075C53.6497 52.225 53.5164 52.45 53.5164 52.75C53.5164 52.9667 53.5831 53.1667 53.7164 53.35C53.8664 53.5167 54.1414 53.7 54.5414 53.9C54.9581 54.1 55.5664 54.3667 56.3664 54.7C57.1497 55.0167 57.8247 55.35 58.3914 55.7C58.9581 56.0333 59.3914 56.4583 59.6914 56.975C60.0081 57.475 60.1664 58.1333 60.1664 58.95ZM66.7932 48.425C66.7932 48.9417 66.7765 49.45 66.7432 49.95C66.7098 50.45 66.6765 50.8417 66.6432 51.125H66.7932C67.1598 50.5583 67.6515 50.0833 68.2682 49.7C68.8848 49.3 69.6848 49.1 70.6682 49.1C72.2015 49.1 73.4432 49.7 74.3932 50.9C75.3432 52.0833 75.8182 53.8333 75.8182 56.15C75.8182 57.7 75.5932 59.0083 75.1432 60.075C74.7098 61.125 74.1015 61.9167 73.3182 62.45C72.5348 62.9833 71.6182 63.25 70.5682 63.25C69.5682 63.25 68.7765 63.075 68.1932 62.725C67.6265 62.3583 67.1598 61.95 66.7932 61.5H66.5432L65.9182 63H63.0682V44H66.7932V48.425ZM69.4682 52.075C68.8182 52.075 68.3015 52.2083 67.9182 52.475C67.5348 52.7417 67.2515 53.15 67.0682 53.7C66.9015 54.2333 66.8098 54.9083 66.7932 55.725V56.125C66.7932 57.4417 66.9848 58.4583 67.3682 59.175C67.7682 59.875 68.4848 60.225 69.5182 60.225C70.2848 60.225 70.8932 59.875 71.3432 59.175C71.7932 58.4583 72.0182 57.4333 72.0182 56.1C72.0182 54.7667 71.7848 53.7667 71.3182 53.1C70.8682 52.4167 70.2515 52.075 69.4682 52.075ZM82.6135 49.35V63H78.8885V49.35H82.6135ZM80.7635 44C81.3135 44 81.7885 44.1333 82.1885 44.4C82.5885 44.65 82.7885 45.125 82.7885 45.825C82.7885 46.5083 82.5885 46.9833 82.1885 47.25C81.7885 47.5167 81.3135 47.65 80.7635 47.65C80.1968 47.65 79.7135 47.5167 79.3135 47.25C78.9301 46.9833 78.7385 46.5083 78.7385 45.825C78.7385 45.125 78.9301 44.65 79.3135 44.4C79.7135 44.1333 80.1968 44 80.7635 44ZM90.2307 63H86.5057V44H90.2307V63ZM98.4479 63.25C96.9312 63.25 95.6895 62.6583 94.7229 61.475C93.7729 60.275 93.2979 58.5167 93.2979 56.2C93.2979 53.8667 93.7812 52.1 94.7479 50.9C95.7145 49.7 96.9812 49.1 98.5479 49.1C99.1979 49.1 99.7729 49.1917 100.273 49.375C100.773 49.5417 101.198 49.775 101.548 50.075C101.915 50.375 102.223 50.7167 102.473 51.1H102.598C102.548 50.8333 102.49 50.45 102.423 49.95C102.356 49.4333 102.323 48.9083 102.323 48.375V44H106.048V63H103.198L102.473 61.225H102.323C102.09 61.5917 101.79 61.9333 101.423 62.25C101.073 62.55 100.656 62.7917 100.173 62.975C99.6895 63.1583 99.1145 63.25 98.4479 63.25ZM99.7479 60.275C100.781 60.275 101.506 59.975 101.923 59.375C102.34 58.7583 102.556 57.8417 102.573 56.625V56.225C102.573 54.8917 102.365 53.875 101.948 53.175C101.548 52.475 100.798 52.125 99.6979 52.125C98.8812 52.125 98.2395 52.4833 97.7729 53.2C97.3062 53.9 97.0729 54.9167 97.0729 56.25C97.0729 57.5833 97.3062 58.5917 97.7729 59.275C98.2395 59.9417 98.8979 60.275 99.7479 60.275ZM122.468 49.35V63H119.618L119.118 61.25H118.918C118.635 61.7167 118.268 62.1 117.818 62.4C117.385 62.6833 116.901 62.8917 116.368 63.025C115.835 63.175 115.285 63.25 114.718 63.25C113.751 63.25 112.901 63.075 112.168 62.725C111.435 62.375 110.868 61.8333 110.468 61.1C110.068 60.3667 109.868 59.4167 109.868 58.25V49.35H113.593V57.325C113.593 58.2917 113.768 59.025 114.118 59.525C114.468 60.025 115.026 60.275 115.793 60.275C116.56 60.275 117.151 60.1 117.568 59.75C118.001 59.4 118.301 58.8917 118.468 58.225C118.651 57.5583 118.743 56.7417 118.743 55.775V49.35H122.468ZM134.124 49.1C135.59 49.1 136.765 49.5 137.649 50.3C138.532 51.0833 138.974 52.35 138.974 54.1V63H135.249V55.025C135.249 54.0417 135.074 53.3083 134.724 52.825C134.374 52.325 133.815 52.075 133.049 52.075C131.915 52.075 131.14 52.4667 130.724 53.25C130.307 54.0167 130.099 55.125 130.099 56.575V63H126.374V49.35H129.224L129.724 51.1H129.924C130.224 50.6333 130.59 50.2583 131.024 49.975C131.457 49.675 131.94 49.4583 132.474 49.325C133.007 49.175 133.557 49.1 134.124 49.1ZM147.229 49.1C148.063 49.1 148.813 49.2667 149.479 49.6C150.146 49.9333 150.713 50.4333 151.179 51.1H151.279L151.579 49.35H154.729V63.025C154.729 64.325 154.471 65.4167 153.954 66.3C153.454 67.1833 152.696 67.85 151.679 68.3C150.663 68.7667 149.404 69 147.904 69C146.938 69 146.038 68.9417 145.204 68.825C144.388 68.7083 143.588 68.5 142.804 68.2V65.225C143.371 65.4583 143.938 65.65 144.504 65.8C145.088 65.9667 145.679 66.0833 146.279 66.15C146.896 66.2333 147.513 66.275 148.129 66.275C149.096 66.275 149.813 66.0167 150.279 65.5C150.763 64.9833 151.004 64.2083 151.004 63.175V62.9C151.004 62.6167 151.013 62.325 151.029 62.025C151.063 61.725 151.088 61.4583 151.104 61.225H151.004C150.538 61.9417 149.979 62.4583 149.329 62.775C148.679 63.0917 147.946 63.25 147.129 63.25C145.513 63.25 144.246 62.6333 143.329 61.4C142.429 60.15 141.979 58.4167 141.979 56.2C141.979 54.7 142.188 53.425 142.604 52.375C143.021 51.3083 143.621 50.5 144.404 49.95C145.204 49.3833 146.146 49.1 147.229 49.1ZM148.404 52.125C147.821 52.125 147.329 52.2833 146.929 52.6C146.546 52.9 146.254 53.3583 146.054 53.975C145.871 54.575 145.779 55.3333 145.779 56.25C145.779 57.6167 145.996 58.6417 146.429 59.325C146.863 59.9917 147.538 60.325 148.454 60.325C148.938 60.325 149.354 60.2667 149.704 60.15C150.054 60.0167 150.338 59.8083 150.554 59.525C150.788 59.225 150.963 58.8417 151.079 58.375C151.196 57.9083 151.254 57.3417 151.254 56.675V56.225C151.254 55.2417 151.154 54.45 150.954 53.85C150.754 53.25 150.446 52.8167 150.029 52.55C149.613 52.2667 149.071 52.125 148.404 52.125ZM174.619 63H163.844V60.8L170.169 52.2H164.219V49.35H174.394V51.775L168.244 60.15H174.619V63ZM189.851 49.35V63H187.001L186.501 61.25H186.301C186.018 61.7167 185.651 62.1 185.201 62.4C184.768 62.6833 184.284 62.8917 183.751 63.025C183.218 63.175 182.668 63.25 182.101 63.25C181.134 63.25 180.284 63.075 179.551 62.725C178.818 62.375 178.251 61.8333 177.851 61.1C177.451 60.3667 177.251 59.4167 177.251 58.25V49.35H180.976V57.325C180.976 58.2917 181.151 59.025 181.501 59.525C181.851 60.025 182.409 60.275 183.176 60.275C183.943 60.275 184.534 60.1 184.951 59.75C185.384 59.4 185.684 58.8917 185.851 58.225C186.034 57.5583 186.126 56.7417 186.126 55.775V49.35H189.851ZM209.782 49.1C211.332 49.1 212.498 49.5 213.282 50.3C214.082 51.0833 214.482 52.35 214.482 54.1V63H210.757V55.025C210.757 54.0417 210.59 53.3083 210.257 52.825C209.923 52.325 209.407 52.075 208.707 52.075C207.723 52.075 207.023 52.425 206.607 53.125C206.19 53.825 205.982 54.8333 205.982 56.15V63H202.257V55.025C202.257 54.375 202.182 53.8333 202.032 53.4C201.882 52.9667 201.657 52.6417 201.357 52.425C201.057 52.1917 200.673 52.075 200.207 52.075C199.523 52.075 198.982 52.25 198.582 52.6C198.182 52.95 197.898 53.4583 197.732 54.125C197.565 54.7917 197.482 55.6083 197.482 56.575V63H193.757V49.35H196.607L197.107 51.1H197.307C197.59 50.6333 197.94 50.2583 198.357 49.975C198.773 49.675 199.232 49.4583 199.732 49.325C200.248 49.175 200.765 49.1 201.282 49.1C202.282 49.1 203.132 49.2667 203.832 49.6C204.532 49.9167 205.065 50.4167 205.432 51.1H205.757C206.173 50.4 206.748 49.8917 207.482 49.575C208.232 49.2583 208.998 49.1 209.782 49.1ZM20.975 88H17.25V70.15H27.475V73.25H20.975V77.85H27.025V80.95H20.975V88ZM36.2707 74.075C38.104 74.075 39.504 74.475 40.4707 75.275C41.454 76.0583 41.9457 77.2667 41.9457 78.9V88H39.3457L38.6207 86.15H38.5207C38.1374 86.6333 37.7374 87.0333 37.3207 87.35C36.9207 87.6667 36.454 87.8917 35.9207 88.025C35.404 88.175 34.7624 88.25 33.9957 88.25C33.1957 88.25 32.4707 88.1 31.8207 87.8C31.1874 87.4833 30.6874 87.0083 30.3207 86.375C29.954 85.725 29.7707 84.9083 29.7707 83.925C29.7707 82.475 30.279 81.4083 31.2957 80.725C32.3124 80.025 33.8374 79.6417 35.8707 79.575L38.2457 79.5V78.9C38.2457 78.1833 38.054 77.6583 37.6707 77.325C37.304 76.9917 36.7874 76.825 36.1207 76.825C35.454 76.825 34.804 76.925 34.1707 77.125C33.5374 77.3083 32.904 77.5417 32.2707 77.825L31.0457 75.3C31.779 74.9167 32.5874 74.6167 33.4707 74.4C34.3707 74.1833 35.304 74.075 36.2707 74.075ZM36.7957 81.725C35.5957 81.7583 34.7624 81.975 34.2957 82.375C33.829 82.775 33.5957 83.3 33.5957 83.95C33.5957 84.5167 33.7624 84.925 34.0957 85.175C34.429 85.4083 34.8624 85.525 35.3957 85.525C36.1957 85.525 36.8707 85.2917 37.4207 84.825C37.9707 84.3417 38.2457 83.6667 38.2457 82.8V81.675L36.7957 81.725ZM51.3086 88.25C49.9586 88.25 48.8086 88.0083 47.8586 87.525C46.9086 87.025 46.1836 86.2583 45.6836 85.225C45.1836 84.1917 44.9336 82.8667 44.9336 81.25C44.9336 79.5833 45.2169 78.225 45.7836 77.175C46.3503 76.125 47.1336 75.35 48.1336 74.85C49.1503 74.35 50.3169 74.1 51.6336 74.1C52.5669 74.1 53.3753 74.1917 54.0586 74.375C54.7586 74.5583 55.3669 74.775 55.8836 75.025L54.7836 77.9C54.2003 77.6667 53.6503 77.475 53.1336 77.325C52.6336 77.175 52.1336 77.1 51.6336 77.1C50.9836 77.1 50.4419 77.2583 50.0086 77.575C49.5753 77.875 49.2503 78.3333 49.0336 78.95C48.8336 79.55 48.7336 80.3083 48.7336 81.225C48.7336 82.125 48.8419 82.875 49.0586 83.475C49.2919 84.0583 49.6253 84.5 50.0586 84.8C50.4919 85.0833 51.0169 85.225 51.6336 85.225C52.4169 85.225 53.1086 85.125 53.7086 84.925C54.3086 84.7083 54.8919 84.4167 55.4586 84.05V87.225C54.8919 87.5917 54.2919 87.85 53.6586 88C53.0419 88.1667 52.2586 88.25 51.3086 88.25ZM62.3254 72.875C62.3254 73.5417 62.3004 74.1833 62.2504 74.8C62.2171 75.4167 62.1837 75.85 62.1504 76.1H62.3504C62.6504 75.6333 63.0004 75.2583 63.4004 74.975C63.8004 74.675 64.2421 74.4583 64.7254 74.325C65.2254 74.175 65.7504 74.1 66.3004 74.1C67.2837 74.1 68.1421 74.275 68.8754 74.625C69.6087 74.975 70.1754 75.5167 70.5754 76.25C70.9921 76.9833 71.2004 77.9333 71.2004 79.1V88H67.4754V80.025C67.4754 79.0417 67.2921 78.3083 66.9254 77.825C66.5754 77.325 66.0254 77.075 65.2754 77.075C64.5254 77.075 63.9337 77.25 63.5004 77.6C63.0837 77.95 62.7837 78.4583 62.6004 79.125C62.4171 79.7917 62.3254 80.6083 62.3254 81.575V88H58.6004V69H62.3254V72.875ZM78.7561 74.35V88H75.0311V74.35H78.7561ZM76.9061 69C77.4561 69 77.9311 69.1333 78.3311 69.4C78.7311 69.65 78.9311 70.125 78.9311 70.825C78.9311 71.5083 78.7311 71.9833 78.3311 72.25C77.9311 72.5167 77.4561 72.65 76.9061 72.65C76.3394 72.65 75.8561 72.5167 75.4561 72.25C75.0727 71.9833 74.8811 71.5083 74.8811 70.825C74.8811 70.125 75.0727 69.65 75.4561 69.4C75.8561 69.1333 76.3394 69 76.9061 69ZM90.3982 74.1C91.8649 74.1 93.0399 74.5 93.9232 75.3C94.8066 76.0833 95.2482 77.35 95.2482 79.1V88H91.5232V80.025C91.5232 79.0417 91.3482 78.3083 90.9982 77.825C90.6482 77.325 90.0899 77.075 89.3232 77.075C88.1899 77.075 87.4149 77.4667 86.9982 78.25C86.5816 79.0167 86.3732 80.125 86.3732 81.575V88H82.6482V74.35H85.4982L85.9982 76.1H86.1982C86.4982 75.6333 86.8649 75.2583 87.2982 74.975C87.7316 74.675 88.2149 74.4583 88.7482 74.325C89.2816 74.175 89.8316 74.1 90.3982 74.1ZM106.629 77.15H103.404V88H99.6789V77.15H97.6289V75.35L99.6789 74.35V73.35C99.6789 72.1833 99.8706 71.2833 100.254 70.65C100.654 70 101.212 69.5417 101.929 69.275C102.662 69.0083 103.521 68.875 104.504 68.875C105.237 68.875 105.896 68.9333 106.479 69.05C107.079 69.1667 107.562 69.3 107.929 69.45L106.979 72.175C106.696 72.0917 106.387 72.0167 106.054 71.95C105.721 71.8667 105.337 71.825 104.904 71.825C104.387 71.825 104.004 71.9833 103.754 72.3C103.521 72.6167 103.404 73.0167 103.404 73.5V74.35H106.629V77.15ZM121.147 81.15C121.147 82.2833 120.989 83.2917 120.672 84.175C120.372 85.0583 119.93 85.8083 119.347 86.425C118.78 87.025 118.089 87.4833 117.272 87.8C116.455 88.1 115.53 88.25 114.497 88.25C113.547 88.25 112.664 88.1 111.847 87.8C111.047 87.4833 110.355 87.025 109.772 86.425C109.189 85.8083 108.73 85.0583 108.397 84.175C108.08 83.2917 107.922 82.2833 107.922 81.15C107.922 79.6333 108.189 78.3583 108.722 77.325C109.255 76.275 110.022 75.475 111.022 74.925C112.022 74.375 113.205 74.1 114.572 74.1C115.855 74.1 116.989 74.375 117.972 74.925C118.955 75.475 119.73 76.275 120.297 77.325C120.864 78.3583 121.147 79.6333 121.147 81.15ZM111.722 81.15C111.722 82.05 111.814 82.8083 111.997 83.425C112.197 84.025 112.505 84.4833 112.922 84.8C113.339 85.1 113.88 85.25 114.547 85.25C115.214 85.25 115.747 85.1 116.147 84.8C116.564 84.4833 116.864 84.025 117.047 83.425C117.247 82.8083 117.347 82.05 117.347 81.15C117.347 80.25 117.247 79.5 117.047 78.9C116.864 78.3 116.564 77.85 116.147 77.55C115.73 77.25 115.189 77.1 114.522 77.1C113.539 77.1 112.822 77.4417 112.372 78.125C111.939 78.7917 111.722 79.8 111.722 81.15ZM131.85 74.1C132.034 74.1 132.25 74.1083 132.5 74.125C132.75 74.1417 132.95 74.1667 133.1 74.2L132.825 77.7C132.709 77.6667 132.534 77.6417 132.3 77.625C132.084 77.5917 131.892 77.575 131.725 77.575C131.242 77.575 130.775 77.6417 130.325 77.775C129.875 77.8917 129.467 78.0833 129.1 78.35C128.75 78.6167 128.467 78.975 128.25 79.425C128.05 79.8583 127.95 80.4 127.95 81.05V88H124.225V74.35H127.05L127.6 76.65H127.775C128.042 76.1833 128.375 75.7583 128.775 75.375C129.175 74.9917 129.634 74.6833 130.15 74.45C130.684 74.2167 131.25 74.1 131.85 74.1ZM151.603 74.1C153.153 74.1 154.32 74.5 155.103 75.3C155.903 76.0833 156.303 77.35 156.303 79.1V88H152.578V80.025C152.578 79.0417 152.411 78.3083 152.078 77.825C151.745 77.325 151.228 77.075 150.528 77.075C149.545 77.075 148.845 77.425 148.428 78.125C148.011 78.825 147.803 79.8333 147.803 81.15V88H144.078V80.025C144.078 79.375 144.003 78.8333 143.853 78.4C143.703 77.9667 143.478 77.6417 143.178 77.425C142.878 77.1917 142.495 77.075 142.028 77.075C141.345 77.075 140.803 77.25 140.403 77.6C140.003 77.95 139.72 78.4583 139.553 79.125C139.386 79.7917 139.303 80.6083 139.303 81.575V88H135.578V74.35H138.428L138.928 76.1H139.128C139.411 75.6333 139.761 75.2583 140.178 74.975C140.595 74.675 141.053 74.4583 141.553 74.325C142.07 74.175 142.586 74.1 143.103 74.1C144.103 74.1 144.953 74.2667 145.653 74.6C146.353 74.9167 146.886 75.4167 147.253 76.1H147.578C147.995 75.4 148.57 74.8917 149.303 74.575C150.053 74.2583 150.82 74.1 151.603 74.1ZM165.738 74.075C167.572 74.075 168.972 74.475 169.938 75.275C170.922 76.0583 171.413 77.2667 171.413 78.9V88H168.813L168.088 86.15H167.988C167.605 86.6333 167.205 87.0333 166.788 87.35C166.388 87.6667 165.922 87.8917 165.388 88.025C164.872 88.175 164.23 88.25 163.463 88.25C162.663 88.25 161.938 88.1 161.288 87.8C160.655 87.4833 160.155 87.0083 159.788 86.375C159.422 85.725 159.238 84.9083 159.238 83.925C159.238 82.475 159.747 81.4083 160.763 80.725C161.78 80.025 163.305 79.6417 165.338 79.575L167.713 79.5V78.9C167.713 78.1833 167.522 77.6583 167.138 77.325C166.772 76.9917 166.255 76.825 165.588 76.825C164.922 76.825 164.272 76.925 163.638 77.125C163.005 77.3083 162.372 77.5417 161.738 77.825L160.513 75.3C161.247 74.9167 162.055 74.6167 162.938 74.4C163.838 74.1833 164.772 74.075 165.738 74.075ZM166.263 81.725C165.063 81.7583 164.23 81.975 163.763 82.375C163.297 82.775 163.063 83.3 163.063 83.95C163.063 84.5167 163.23 84.925 163.563 85.175C163.897 85.4083 164.33 85.525 164.863 85.525C165.663 85.525 166.338 85.2917 166.888 84.825C167.438 84.3417 167.713 83.6667 167.713 82.8V81.675L166.263 81.725ZM180.976 85.275C181.393 85.275 181.793 85.2333 182.176 85.15C182.56 85.0667 182.943 84.9667 183.326 84.85V87.625C182.926 87.7917 182.426 87.9333 181.826 88.05C181.243 88.1833 180.601 88.25 179.901 88.25C179.085 88.25 178.351 88.1167 177.701 87.85C177.068 87.5833 176.56 87.125 176.176 86.475C175.81 85.8083 175.626 84.8917 175.626 83.725V77.15H173.851V75.575L175.901 74.325L176.976 71.45H179.351V74.35H183.176V77.15H179.351V83.725C179.351 84.2417 179.501 84.6333 179.801 84.9C180.101 85.15 180.493 85.275 180.976 85.275ZM189.791 74.35V88H186.066V74.35H189.791ZM187.941 69C188.491 69 188.966 69.1333 189.366 69.4C189.766 69.65 189.966 70.125 189.966 70.825C189.966 71.5083 189.766 71.9833 189.366 72.25C188.966 72.5167 188.491 72.65 187.941 72.65C187.375 72.65 186.891 72.5167 186.491 72.25C186.108 71.9833 185.916 71.5083 185.916 70.825C185.916 70.125 186.108 69.65 186.491 69.4C186.891 69.1333 187.375 69 187.941 69ZM197.408 77.5C197.408 78.0167 197.383 78.5333 197.333 79.05C197.3 79.55 197.258 80.0583 197.208 80.575H197.258C197.425 80.3417 197.592 80.1083 197.758 79.875C197.942 79.6417 198.125 79.4083 198.308 79.175C198.492 78.9417 198.683 78.7167 198.883 78.5L202.708 74.35H206.908L201.483 80.275L207.233 88H202.933L199.008 82.475L197.408 83.75V88H193.683V69H197.408V77.5ZM214.811 74.1C216.078 74.1 217.161 74.3417 218.061 74.825C218.978 75.3083 219.686 76.0083 220.186 76.925C220.686 77.8417 220.936 78.9667 220.936 80.3V82.1H212.136C212.17 83.15 212.478 83.975 213.061 84.575C213.661 85.175 214.486 85.475 215.536 85.475C216.42 85.475 217.22 85.3917 217.936 85.225C218.653 85.0417 219.395 84.7667 220.161 84.4V87.275C219.495 87.6083 218.786 87.85 218.036 88C217.303 88.1667 216.411 88.25 215.361 88.25C213.995 88.25 212.786 88 211.736 87.5C210.686 86.9833 209.861 86.2083 209.261 85.175C208.661 84.1417 208.361 82.8417 208.361 81.275C208.361 79.675 208.628 78.35 209.161 77.3C209.711 76.2333 210.47 75.4333 211.436 74.9C212.403 74.3667 213.528 74.1 214.811 74.1ZM214.836 76.75C214.12 76.75 213.52 76.9833 213.036 77.45C212.57 77.9167 212.295 78.6417 212.211 79.625H217.436C217.436 79.075 217.336 78.5833 217.136 78.15C216.953 77.7167 216.67 77.375 216.286 77.125C215.903 76.875 215.42 76.75 214.836 76.75ZM231.582 74.1C231.765 74.1 231.982 74.1083 232.232 74.125C232.482 74.1417 232.682 74.1667 232.832 74.2L232.557 77.7C232.44 77.6667 232.265 77.6417 232.032 77.625C231.815 77.5917 231.624 77.575 231.457 77.575C230.974 77.575 230.507 77.6417 230.057 77.775C229.607 77.8917 229.199 78.0833 228.832 78.35C228.482 78.6167 228.199 78.975 227.982 79.425C227.782 79.8583 227.682 80.4 227.682 81.05V88H223.957V74.35H226.782L227.332 76.65H227.507C227.774 76.1833 228.107 75.7583 228.507 75.375C228.907 74.9917 229.365 74.6833 229.882 74.45C230.415 74.2167 230.982 74.1 231.582 74.1ZM249.354 77.15H246.129V88H242.404V77.15H240.354V75.35L242.404 74.35V73.35C242.404 72.1833 242.595 71.2833 242.979 70.65C243.379 70 243.937 69.5417 244.654 69.275C245.387 69.0083 246.245 68.875 247.229 68.875C247.962 68.875 248.62 68.9333 249.204 69.05C249.804 69.1667 250.287 69.3 250.654 69.45L249.704 72.175C249.42 72.0917 249.112 72.0167 248.779 71.95C248.445 71.8667 248.062 71.825 247.629 71.825C247.112 71.825 246.729 71.9833 246.479 72.3C246.245 72.6167 246.129 73.0167 246.129 73.5V74.35H249.354V77.15ZM263.996 74.35V88H261.146L260.646 86.25H260.446C260.163 86.7167 259.796 87.1 259.346 87.4C258.913 87.6833 258.43 87.8917 257.896 88.025C257.363 88.175 256.813 88.25 256.246 88.25C255.28 88.25 254.43 88.075 253.696 87.725C252.963 87.375 252.396 86.8333 251.996 86.1C251.596 85.3667 251.396 84.4167 251.396 83.25V74.35H255.121V82.325C255.121 83.2917 255.296 84.025 255.646 84.525C255.996 85.025 256.555 85.275 257.321 85.275C258.088 85.275 258.68 85.1 259.096 84.75C259.53 84.4 259.83 83.8917 259.996 83.225C260.18 82.5583 260.271 81.7417 260.271 80.775V74.35H263.996ZM253.546 70.85C253.546 70.2667 253.713 69.85 254.046 69.6C254.38 69.3333 254.78 69.2 255.246 69.2C255.713 69.2 256.113 69.3333 256.446 69.6C256.796 69.85 256.971 70.2667 256.971 70.85C256.971 71.4 256.796 71.8083 256.446 72.075C256.113 72.3417 255.713 72.475 255.246 72.475C254.78 72.475 254.38 72.3417 254.046 72.075C253.713 71.8083 253.546 71.4 253.546 70.85ZM258.471 70.85C258.471 70.2667 258.638 69.85 258.971 69.6C259.305 69.3333 259.713 69.2 260.196 69.2C260.663 69.2 261.063 69.3333 261.396 69.6C261.746 69.85 261.921 70.2667 261.921 70.85C261.921 71.4 261.746 71.8083 261.396 72.075C261.063 72.3417 260.663 72.475 260.196 72.475C259.73 72.475 259.321 72.3417 258.971 72.075C258.638 71.8083 258.471 71.4 258.471 70.85ZM275.527 74.1C275.71 74.1 275.927 74.1083 276.177 74.125C276.427 74.1417 276.627 74.1667 276.777 74.2L276.502 77.7C276.385 77.6667 276.21 77.6417 275.977 77.625C275.76 77.5917 275.569 77.575 275.402 77.575C274.919 77.575 274.452 77.6417 274.002 77.775C273.552 77.8917 273.144 78.0833 272.777 78.35C272.427 78.6167 272.144 78.975 271.927 79.425C271.727 79.8583 271.627 80.4 271.627 81.05V88H267.902V74.35H270.727L271.277 76.65H271.452C271.719 76.1833 272.052 75.7583 272.452 75.375C272.852 74.9917 273.31 74.6833 273.827 74.45C274.36 74.2167 274.927 74.1 275.527 74.1ZM28.175 113L26.875 108.75H20.375L19.075 113H15L21.3 95.075H25.925L32.25 113H28.175ZM24.675 101.425C24.5917 101.142 24.4833 100.783 24.35 100.35C24.2167 99.9167 24.0833 99.475 23.95 99.025C23.8167 98.575 23.7083 98.1833 23.625 97.85C23.5417 98.1833 23.425 98.6 23.275 99.1C23.1417 99.5833 23.0083 100.05 22.875 100.5C22.7583 100.933 22.6667 101.242 22.6 101.425L21.325 105.575H25.975L24.675 101.425ZM41.9607 99.1C43.4274 99.1 44.6024 99.5 45.4857 100.3C46.3691 101.083 46.8107 102.35 46.8107 104.1V113H43.0857V105.025C43.0857 104.042 42.9107 103.308 42.5607 102.825C42.2107 102.325 41.6524 102.075 40.8857 102.075C39.7524 102.075 38.9774 102.467 38.5607 103.25C38.1441 104.017 37.9357 105.125 37.9357 106.575V113H34.2107V99.35H37.0607L37.5607 101.1H37.7607C38.0607 100.633 38.4274 100.258 38.8607 99.975C39.2941 99.675 39.7774 99.4583 40.3107 99.325C40.8441 99.175 41.3941 99.1 41.9607 99.1ZM60.8164 108.225C60.7497 107.942 60.6497 107.525 60.5164 106.975C60.3997 106.408 60.2664 105.808 60.1164 105.175C59.9664 104.525 59.8247 103.933 59.6914 103.4C59.5581 102.85 59.4664 102.45 59.4164 102.2H59.3164C59.2664 102.45 59.1747 102.85 59.0414 103.4C58.9247 103.933 58.7914 104.525 58.6414 105.175C58.4914 105.808 58.3497 106.408 58.2164 106.975C58.0831 107.542 57.9831 107.975 57.9164 108.275L56.8164 113H52.8164L48.9414 99.35H52.6414L54.2164 105.4C54.3331 105.817 54.4331 106.317 54.5164 106.9C54.6164 107.483 54.7081 108.05 54.7914 108.6C54.8747 109.133 54.9331 109.558 54.9664 109.875H55.0664C55.0831 109.642 55.1164 109.333 55.1664 108.95C55.2164 108.55 55.2747 108.142 55.3414 107.725C55.4247 107.308 55.4914 106.933 55.5414 106.6C55.6081 106.25 55.6581 106.017 55.6914 105.9L57.3664 99.35H61.4664L63.0664 105.9C63.1331 106.133 63.2081 106.508 63.2914 107.025C63.3914 107.542 63.4747 108.067 63.5414 108.6C63.6247 109.133 63.6664 109.558 63.6664 109.875H63.7664C63.7997 109.592 63.8581 109.183 63.9414 108.65C64.0247 108.1 64.1164 107.525 64.2164 106.925C64.3331 106.325 64.4497 105.817 64.5664 105.4L66.1914 99.35H69.8414L65.9164 113H61.8664L60.8164 108.225ZM77.6775 99.1C78.9442 99.1 80.0275 99.3417 80.9275 99.825C81.8442 100.308 82.5525 101.008 83.0525 101.925C83.5525 102.842 83.8025 103.967 83.8025 105.3V107.1H75.0025C75.0359 108.15 75.3442 108.975 75.9275 109.575C76.5275 110.175 77.3525 110.475 78.4025 110.475C79.2859 110.475 80.0859 110.392 80.8025 110.225C81.5192 110.042 82.2609 109.767 83.0275 109.4V112.275C82.3609 112.608 81.6525 112.85 80.9025 113C80.1692 113.167 79.2775 113.25 78.2275 113.25C76.8609 113.25 75.6525 113 74.6025 112.5C73.5525 111.983 72.7275 111.208 72.1275 110.175C71.5275 109.142 71.2275 107.842 71.2275 106.275C71.2275 104.675 71.4942 103.35 72.0275 102.3C72.5775 101.233 73.3359 100.433 74.3025 99.9C75.2692 99.3667 76.3942 99.1 77.6775 99.1ZM77.7025 101.75C76.9859 101.75 76.3859 101.983 75.9025 102.45C75.4359 102.917 75.1609 103.642 75.0775 104.625H80.3025C80.3025 104.075 80.2025 103.583 80.0025 103.15C79.8192 102.717 79.5359 102.375 79.1525 102.125C78.7692 101.875 78.2859 101.75 77.7025 101.75ZM94.573 99.1C96.0397 99.1 97.2147 99.5 98.098 100.3C98.9814 101.083 99.423 102.35 99.423 104.1V113H95.698V105.025C95.698 104.042 95.523 103.308 95.173 102.825C94.823 102.325 94.2647 102.075 93.498 102.075C92.3647 102.075 91.5897 102.467 91.173 103.25C90.7564 104.017 90.548 105.125 90.548 106.575V113H86.823V99.35H89.673L90.173 101.1H90.373C90.673 100.633 91.0397 100.258 91.473 99.975C91.9064 99.675 92.3897 99.4583 92.923 99.325C93.4564 99.175 94.0064 99.1 94.573 99.1ZM107.579 113.25C106.062 113.25 104.82 112.658 103.854 111.475C102.904 110.275 102.429 108.517 102.429 106.2C102.429 103.867 102.912 102.1 103.879 100.9C104.845 99.7 106.112 99.1 107.679 99.1C108.329 99.1 108.904 99.1917 109.404 99.375C109.904 99.5417 110.329 99.775 110.679 100.075C111.045 100.375 111.354 100.717 111.604 101.1H111.729C111.679 100.833 111.62 100.45 111.554 99.95C111.487 99.4333 111.454 98.9083 111.454 98.375V94H115.179V113H112.329L111.604 111.225H111.454C111.22 111.592 110.92 111.933 110.554 112.25C110.204 112.55 109.787 112.792 109.304 112.975C108.82 113.158 108.245 113.25 107.579 113.25ZM108.879 110.275C109.912 110.275 110.637 109.975 111.054 109.375C111.47 108.758 111.687 107.842 111.704 106.625V106.225C111.704 104.892 111.495 103.875 111.079 103.175C110.679 102.475 109.929 102.125 108.829 102.125C108.012 102.125 107.37 102.483 106.904 103.2C106.437 103.9 106.204 104.917 106.204 106.25C106.204 107.583 106.437 108.592 106.904 109.275C107.37 109.942 108.029 110.275 108.879 110.275ZM131.599 99.35V113H128.749L128.249 111.25H128.049C127.766 111.717 127.399 112.1 126.949 112.4C126.516 112.683 126.032 112.892 125.499 113.025C124.966 113.175 124.416 113.25 123.849 113.25C122.882 113.25 122.032 113.075 121.299 112.725C120.566 112.375 119.999 111.833 119.599 111.1C119.199 110.367 118.999 109.417 118.999 108.25V99.35H122.724V107.325C122.724 108.292 122.899 109.025 123.249 109.525C123.599 110.025 124.157 110.275 124.924 110.275C125.691 110.275 126.282 110.1 126.699 109.75C127.132 109.4 127.432 108.892 127.599 108.225C127.782 107.558 127.874 106.742 127.874 105.775V99.35H131.599ZM143.255 99.1C144.721 99.1 145.896 99.5 146.78 100.3C147.663 101.083 148.105 102.35 148.105 104.1V113H144.38V105.025C144.38 104.042 144.205 103.308 143.855 102.825C143.505 102.325 142.946 102.075 142.18 102.075C141.046 102.075 140.271 102.467 139.855 103.25C139.438 104.017 139.23 105.125 139.23 106.575V113H135.505V99.35H138.355L138.855 101.1H139.055C139.355 100.633 139.721 100.258 140.155 99.975C140.588 99.675 141.071 99.4583 141.605 99.325C142.138 99.175 142.688 99.1 143.255 99.1ZM156.36 99.1C157.194 99.1 157.944 99.2667 158.61 99.6C159.277 99.9333 159.844 100.433 160.31 101.1H160.41L160.71 99.35H163.86V113.025C163.86 114.325 163.602 115.417 163.085 116.3C162.585 117.183 161.827 117.85 160.81 118.3C159.794 118.767 158.535 119 157.035 119C156.069 119 155.169 118.942 154.335 118.825C153.519 118.708 152.719 118.5 151.935 118.2V115.225C152.502 115.458 153.069 115.65 153.635 115.8C154.219 115.967 154.81 116.083 155.41 116.15C156.027 116.233 156.644 116.275 157.26 116.275C158.227 116.275 158.944 116.017 159.41 115.5C159.894 114.983 160.135 114.208 160.135 113.175V112.9C160.135 112.617 160.144 112.325 160.16 112.025C160.194 111.725 160.219 111.458 160.235 111.225H160.135C159.669 111.942 159.11 112.458 158.46 112.775C157.81 113.092 157.077 113.25 156.26 113.25C154.644 113.25 153.377 112.633 152.46 111.4C151.56 110.15 151.11 108.417 151.11 106.2C151.11 104.7 151.319 103.425 151.735 102.375C152.152 101.308 152.752 100.5 153.535 99.95C154.335 99.3833 155.277 99.1 156.36 99.1ZM157.535 102.125C156.952 102.125 156.46 102.283 156.06 102.6C155.677 102.9 155.385 103.358 155.185 103.975C155.002 104.575 154.91 105.333 154.91 106.25C154.91 107.617 155.127 108.642 155.56 109.325C155.994 109.992 156.669 110.325 157.585 110.325C158.069 110.325 158.485 110.267 158.835 110.15C159.185 110.017 159.469 109.808 159.685 109.525C159.919 109.225 160.094 108.842 160.21 108.375C160.327 107.908 160.385 107.342 160.385 106.675V106.225C160.385 105.242 160.285 104.45 160.085 103.85C159.885 103.25 159.577 102.817 159.16 102.55C158.744 102.267 158.202 102.125 157.535 102.125ZM177.281 108.95C177.281 109.867 177.064 110.65 176.631 111.3C176.197 111.933 175.547 112.417 174.681 112.75C173.814 113.083 172.739 113.25 171.456 113.25C170.506 113.25 169.689 113.183 169.006 113.05C168.322 112.933 167.639 112.733 166.956 112.45V109.375C167.689 109.708 168.481 109.983 169.331 110.2C170.181 110.417 170.931 110.525 171.581 110.525C172.314 110.525 172.831 110.417 173.131 110.2C173.447 109.983 173.606 109.7 173.606 109.35C173.606 109.117 173.539 108.908 173.406 108.725C173.289 108.542 173.022 108.333 172.606 108.1C172.189 107.867 171.539 107.567 170.656 107.2C169.806 106.833 169.106 106.475 168.556 106.125C168.006 105.758 167.597 105.325 167.331 104.825C167.064 104.308 166.931 103.667 166.931 102.9C166.931 101.633 167.422 100.683 168.406 100.05C169.389 99.4167 170.697 99.1 172.331 99.1C173.181 99.1 173.989 99.1833 174.756 99.35C175.522 99.5167 176.314 99.7917 177.131 100.175L176.006 102.85C175.556 102.65 175.122 102.475 174.706 102.325C174.289 102.175 173.881 102.058 173.481 101.975C173.097 101.892 172.697 101.85 172.281 101.85C171.731 101.85 171.314 101.925 171.031 102.075C170.764 102.225 170.631 102.45 170.631 102.75C170.631 102.967 170.697 103.167 170.831 103.35C170.981 103.517 171.256 103.7 171.656 103.9C172.072 104.1 172.681 104.367 173.481 104.7C174.264 105.017 174.939 105.35 175.506 105.7C176.072 106.033 176.506 106.458 176.806 106.975C177.122 107.475 177.281 108.133 177.281 108.95ZM179.478 104.162H185.947V106.738H179.478V104.162ZM22.575 124.1C23.8417 124.1 24.925 124.342 25.825 124.825C26.7417 125.308 27.45 126.008 27.95 126.925C28.45 127.842 28.7 128.967 28.7 130.3V132.1H19.9C19.9333 133.15 20.2417 133.975 20.825 134.575C21.425 135.175 22.25 135.475 23.3 135.475C24.1833 135.475 24.9833 135.392 25.7 135.225C26.4167 135.042 27.1583 134.767 27.925 134.4V137.275C27.2583 137.608 26.55 137.85 25.8 138C25.0667 138.167 24.175 138.25 23.125 138.25C21.7583 138.25 20.55 138 19.5 137.5C18.45 136.983 17.625 136.208 17.025 135.175C16.425 134.142 16.125 132.842 16.125 131.275C16.125 129.675 16.3917 128.35 16.925 127.3C17.475 126.233 18.2333 125.433 19.2 124.9C20.1667 124.367 21.2917 124.1 22.575 124.1ZM22.6 126.75C21.8833 126.75 21.2833 126.983 20.8 127.45C20.3333 127.917 20.0583 128.642 19.975 129.625H25.2C25.2 129.075 25.1 128.583 24.9 128.15C24.7167 127.717 24.4333 127.375 24.05 127.125C23.6667 126.875 23.1833 126.75 22.6 126.75ZM39.4705 124.1C40.9372 124.1 42.1122 124.5 42.9955 125.3C43.8788 126.083 44.3205 127.35 44.3205 129.1V138H40.5955V130.025C40.5955 129.042 40.4205 128.308 40.0705 127.825C39.7205 127.325 39.1622 127.075 38.3955 127.075C37.2622 127.075 36.4872 127.467 36.0705 128.25C35.6538 129.017 35.4455 130.125 35.4455 131.575V138H31.7205V124.35H34.5705L35.0705 126.1H35.2705C35.5705 125.633 35.9372 125.258 36.3705 124.975C36.8038 124.675 37.2872 124.458 37.8205 124.325C38.3538 124.175 38.9038 124.1 39.4705 124.1ZM53.9012 135.275C54.3178 135.275 54.7178 135.233 55.1012 135.15C55.4845 135.067 55.8678 134.967 56.2512 134.85V137.625C55.8512 137.792 55.3512 137.933 54.7512 138.05C54.1678 138.183 53.5262 138.25 52.8262 138.25C52.0095 138.25 51.2762 138.117 50.6262 137.85C49.9928 137.583 49.4845 137.125 49.1012 136.475C48.7345 135.808 48.5512 134.892 48.5512 133.725V127.15H46.7762V125.575L48.8262 124.325L49.9012 121.45H52.2762V124.35H56.1012V127.15H52.2762V133.725C52.2762 134.242 52.4262 134.633 52.7262 134.9C53.0262 135.15 53.4178 135.275 53.9012 135.275ZM69.166 133.225C69.0993 132.942 68.9993 132.525 68.866 131.975C68.7493 131.408 68.616 130.808 68.466 130.175C68.316 129.525 68.1743 128.933 68.041 128.4C67.9077 127.85 67.816 127.45 67.766 127.2H67.666C67.616 127.45 67.5243 127.85 67.391 128.4C67.2743 128.933 67.141 129.525 66.991 130.175C66.841 130.808 66.6993 131.408 66.566 131.975C66.4327 132.542 66.3327 132.975 66.266 133.275L65.166 138H61.166L57.291 124.35H60.991L62.566 130.4C62.6827 130.817 62.7827 131.317 62.866 131.9C62.966 132.483 63.0577 133.05 63.141 133.6C63.2243 134.133 63.2827 134.558 63.316 134.875H63.416C63.4327 134.642 63.466 134.333 63.516 133.95C63.566 133.55 63.6243 133.142 63.691 132.725C63.7743 132.308 63.841 131.933 63.891 131.6C63.9577 131.25 64.0077 131.017 64.041 130.9L65.716 124.35H69.816L71.416 130.9C71.4827 131.133 71.5577 131.508 71.641 132.025C71.741 132.542 71.8243 133.067 71.891 133.6C71.9743 134.133 72.016 134.558 72.016 134.875H72.116C72.1493 134.592 72.2077 134.183 72.291 133.65C72.3743 133.1 72.466 132.525 72.566 131.925C72.6827 131.325 72.7993 130.817 72.916 130.4L74.541 124.35H78.191L74.266 138H70.216L69.166 133.225ZM84.1271 124.35V138H80.4021V124.35H84.1271ZM82.2771 119C82.8271 119 83.3021 119.133 83.7021 119.4C84.1021 119.65 84.3021 120.125 84.3021 120.825C84.3021 121.508 84.1021 121.983 83.7021 122.25C83.3021 122.517 82.8271 122.65 82.2771 122.65C81.7105 122.65 81.2271 122.517 80.8271 122.25C80.4438 121.983 80.2521 121.508 80.2521 120.825C80.2521 120.125 80.4438 119.65 80.8271 119.4C81.2271 119.133 81.7105 119 82.2771 119ZM93.5693 138.25C92.2193 138.25 91.0693 138.008 90.1193 137.525C89.1693 137.025 88.4443 136.258 87.9443 135.225C87.4443 134.192 87.1943 132.867 87.1943 131.25C87.1943 129.583 87.4777 128.225 88.0443 127.175C88.611 126.125 89.3943 125.35 90.3943 124.85C91.411 124.35 92.5777 124.1 93.8943 124.1C94.8277 124.1 95.636 124.192 96.3193 124.375C97.0193 124.558 97.6277 124.775 98.1443 125.025L97.0443 127.9C96.461 127.667 95.911 127.475 95.3943 127.325C94.8943 127.175 94.3943 127.1 93.8943 127.1C93.2443 127.1 92.7027 127.258 92.2693 127.575C91.836 127.875 91.511 128.333 91.2943 128.95C91.0943 129.55 90.9943 130.308 90.9943 131.225C90.9943 132.125 91.1027 132.875 91.3193 133.475C91.5527 134.058 91.886 134.5 92.3193 134.8C92.7527 135.083 93.2777 135.225 93.8943 135.225C94.6777 135.225 95.3693 135.125 95.9693 134.925C96.5693 134.708 97.1527 134.417 97.7193 134.05V137.225C97.1527 137.592 96.5527 137.85 95.9193 138C95.3027 138.167 94.5193 138.25 93.5693 138.25ZM104.586 127.5C104.586 128.017 104.561 128.533 104.511 129.05C104.478 129.55 104.436 130.058 104.386 130.575H104.436C104.603 130.342 104.769 130.108 104.936 129.875C105.119 129.642 105.303 129.408 105.486 129.175C105.669 128.942 105.861 128.717 106.061 128.5L109.886 124.35H114.086L108.661 130.275L114.411 138H110.111L106.186 132.475L104.586 133.75V138H100.861V119H104.586V127.5ZM120.089 138H116.364V119H120.089V138ZM136.506 124.35V138H133.656L133.156 136.25H132.956C132.673 136.717 132.306 137.1 131.856 137.4C131.423 137.683 130.94 137.892 130.406 138.025C129.873 138.175 129.323 138.25 128.756 138.25C127.79 138.25 126.94 138.075 126.206 137.725C125.473 137.375 124.906 136.833 124.506 136.1C124.106 135.367 123.906 134.417 123.906 133.25V124.35H127.631V132.325C127.631 133.292 127.806 134.025 128.156 134.525C128.506 135.025 129.065 135.275 129.831 135.275C130.598 135.275 131.19 135.1 131.606 134.75C132.04 134.4 132.34 133.892 132.506 133.225C132.69 132.558 132.781 131.742 132.781 130.775V124.35H136.506ZM148.162 124.1C149.629 124.1 150.804 124.5 151.687 125.3C152.57 126.083 153.012 127.35 153.012 129.1V138H149.287V130.025C149.287 129.042 149.112 128.308 148.762 127.825C148.412 127.325 147.854 127.075 147.087 127.075C145.954 127.075 145.179 127.467 144.762 128.25C144.345 129.017 144.137 130.125 144.137 131.575V138H140.412V124.35H143.262L143.762 126.1H143.962C144.262 125.633 144.629 125.258 145.062 124.975C145.495 124.675 145.979 124.458 146.512 124.325C147.045 124.175 147.595 124.1 148.162 124.1ZM161.268 124.1C162.101 124.1 162.851 124.267 163.518 124.6C164.184 124.933 164.751 125.433 165.218 126.1H165.318L165.618 124.35H168.768V138.025C168.768 139.325 168.509 140.417 167.993 141.3C167.493 142.183 166.734 142.85 165.718 143.3C164.701 143.767 163.443 144 161.943 144C160.976 144 160.076 143.942 159.243 143.825C158.426 143.708 157.626 143.5 156.843 143.2V140.225C157.409 140.458 157.976 140.65 158.543 140.8C159.126 140.967 159.718 141.083 160.318 141.15C160.934 141.233 161.551 141.275 162.168 141.275C163.134 141.275 163.851 141.017 164.318 140.5C164.801 139.983 165.043 139.208 165.043 138.175V137.9C165.043 137.617 165.051 137.325 165.068 137.025C165.101 136.725 165.126 136.458 165.143 136.225H165.043C164.576 136.942 164.018 137.458 163.368 137.775C162.718 138.092 161.984 138.25 161.168 138.25C159.551 138.25 158.284 137.633 157.368 136.4C156.468 135.15 156.018 133.417 156.018 131.2C156.018 129.7 156.226 128.425 156.643 127.375C157.059 126.308 157.659 125.5 158.443 124.95C159.243 124.383 160.184 124.1 161.268 124.1ZM162.443 127.125C161.859 127.125 161.368 127.283 160.968 127.6C160.584 127.9 160.293 128.358 160.093 128.975C159.909 129.575 159.818 130.333 159.818 131.25C159.818 132.617 160.034 133.642 160.468 134.325C160.901 134.992 161.576 135.325 162.493 135.325C162.976 135.325 163.393 135.267 163.743 135.15C164.093 135.017 164.376 134.808 164.593 134.525C164.826 134.225 165.001 133.842 165.118 133.375C165.234 132.908 165.293 132.342 165.293 131.675V131.225C165.293 130.242 165.193 129.45 164.993 128.85C164.793 128.25 164.484 127.817 164.068 127.55C163.651 127.267 163.109 127.125 162.443 127.125Z" fill="white"/>
<path d="M335.175 66L333.875 61.75H327.375L326.075 66H322L328.3 48.075H332.925L339.25 66H335.175ZM331.675 54.425C331.592 54.1417 331.483 53.7833 331.35 53.35C331.217 52.9167 331.083 52.475 330.95 52.025C330.817 51.575 330.708 51.1833 330.625 50.85C330.542 51.1833 330.425 51.6 330.275 52.1C330.142 52.5833 330.008 53.05 329.875 53.5C329.758 53.9333 329.667 54.2417 329.6 54.425L328.325 58.575H332.975L331.675 54.425ZM344.936 66H341.211V47H344.936V66ZM352.553 66H348.828V47H352.553V66ZM360.87 52.1C361.703 52.1 362.453 52.2667 363.12 52.6C363.787 52.9333 364.353 53.4333 364.82 54.1H364.92L365.22 52.35H368.37V66.025C368.37 67.325 368.112 68.4167 367.595 69.3C367.095 70.1833 366.337 70.85 365.32 71.3C364.303 71.7667 363.045 72 361.545 72C360.578 72 359.678 71.9417 358.845 71.825C358.028 71.7083 357.228 71.5 356.445 71.2V68.225C357.012 68.4583 357.578 68.65 358.145 68.8C358.728 68.9667 359.32 69.0833 359.92 69.15C360.537 69.2333 361.153 69.275 361.77 69.275C362.737 69.275 363.453 69.0167 363.92 68.5C364.403 67.9833 364.645 67.2083 364.645 66.175V65.9C364.645 65.6167 364.653 65.325 364.67 65.025C364.703 64.725 364.728 64.4583 364.745 64.225H364.645C364.178 64.9417 363.62 65.4583 362.97 65.775C362.32 66.0917 361.587 66.25 360.77 66.25C359.153 66.25 357.887 65.6333 356.97 64.4C356.07 63.15 355.62 61.4167 355.62 59.2C355.62 57.7 355.828 56.425 356.245 55.375C356.662 54.3083 357.262 53.5 358.045 52.95C358.845 52.3833 359.787 52.1 360.87 52.1ZM362.045 55.125C361.462 55.125 360.97 55.2833 360.57 55.6C360.187 55.9 359.895 56.3583 359.695 56.975C359.512 57.575 359.42 58.3333 359.42 59.25C359.42 60.6167 359.637 61.6417 360.07 62.325C360.503 62.9917 361.178 63.325 362.095 63.325C362.578 63.325 362.995 63.2667 363.345 63.15C363.695 63.0167 363.978 62.8083 364.195 62.525C364.428 62.225 364.603 61.8417 364.72 61.375C364.837 60.9083 364.895 60.3417 364.895 59.675V59.225C364.895 58.2417 364.795 57.45 364.595 56.85C364.395 56.25 364.087 55.8167 363.67 55.55C363.253 55.2667 362.712 55.125 362.045 55.125ZM377.89 52.1C379.157 52.1 380.24 52.3417 381.14 52.825C382.057 53.3083 382.765 54.0083 383.265 54.925C383.765 55.8417 384.015 56.9667 384.015 58.3V60.1H375.215C375.249 61.15 375.557 61.975 376.14 62.575C376.74 63.175 377.565 63.475 378.615 63.475C379.499 63.475 380.299 63.3917 381.015 63.225C381.732 63.0417 382.474 62.7667 383.24 62.4V65.275C382.574 65.6083 381.865 65.85 381.115 66C380.382 66.1667 379.49 66.25 378.44 66.25C377.074 66.25 375.865 66 374.815 65.5C373.765 64.9833 372.94 64.2083 372.34 63.175C371.74 62.1417 371.44 60.8417 371.44 59.275C371.44 57.675 371.707 56.35 372.24 55.3C372.79 54.2333 373.549 53.4333 374.515 52.9C375.482 52.3667 376.607 52.1 377.89 52.1ZM377.915 54.75C377.199 54.75 376.599 54.9833 376.115 55.45C375.649 55.9167 375.374 56.6417 375.29 57.625H380.515C380.515 57.075 380.415 56.5833 380.215 56.15C380.032 55.7167 379.749 55.375 379.365 55.125C378.982 54.875 378.499 54.75 377.915 54.75ZM403.061 52.1C404.611 52.1 405.778 52.5 406.561 53.3C407.361 54.0833 407.761 55.35 407.761 57.1V66H404.036V58.025C404.036 57.0417 403.869 56.3083 403.536 55.825C403.203 55.325 402.686 55.075 401.986 55.075C401.003 55.075 400.303 55.425 399.886 56.125C399.469 56.825 399.261 57.8333 399.261 59.15V66H395.536V58.025C395.536 57.375 395.461 56.8333 395.311 56.4C395.161 55.9667 394.936 55.6417 394.636 55.425C394.336 55.1917 393.953 55.075 393.486 55.075C392.803 55.075 392.261 55.25 391.861 55.6C391.461 55.95 391.178 56.4583 391.011 57.125C390.844 57.7917 390.761 58.6083 390.761 59.575V66H387.036V52.35H389.886L390.386 54.1H390.586C390.869 53.6333 391.219 53.2583 391.636 52.975C392.053 52.675 392.511 52.4583 393.011 52.325C393.528 52.175 394.044 52.1 394.561 52.1C395.561 52.1 396.411 52.2667 397.111 52.6C397.811 52.9167 398.344 53.4167 398.711 54.1H399.036C399.453 53.4 400.028 52.8917 400.761 52.575C401.511 52.2583 402.278 52.1 403.061 52.1ZM417.221 52.1C418.488 52.1 419.571 52.3417 420.471 52.825C421.388 53.3083 422.096 54.0083 422.596 54.925C423.096 55.8417 423.346 56.9667 423.346 58.3V60.1H414.546C414.58 61.15 414.888 61.975 415.471 62.575C416.071 63.175 416.896 63.475 417.946 63.475C418.83 63.475 419.63 63.3917 420.346 63.225C421.063 63.0417 421.805 62.7667 422.571 62.4V65.275C421.905 65.6083 421.196 65.85 420.446 66C419.713 66.1667 418.821 66.25 417.771 66.25C416.405 66.25 415.196 66 414.146 65.5C413.096 64.9833 412.271 64.2083 411.671 63.175C411.071 62.1417 410.771 60.8417 410.771 59.275C410.771 57.675 411.038 56.35 411.571 55.3C412.121 54.2333 412.88 53.4333 413.846 52.9C414.813 52.3667 415.938 52.1 417.221 52.1ZM417.246 54.75C416.53 54.75 415.93 54.9833 415.446 55.45C414.98 55.9167 414.705 56.6417 414.621 57.625H419.846C419.846 57.075 419.746 56.5833 419.546 56.15C419.363 55.7167 419.08 55.375 418.696 55.125C418.313 54.875 417.83 54.75 417.246 54.75ZM430.092 52.35V66H426.367V52.35H430.092ZM428.242 47C428.792 47 429.267 47.1333 429.667 47.4C430.067 47.65 430.267 48.125 430.267 48.825C430.267 49.5083 430.067 49.9833 429.667 50.25C429.267 50.5167 428.792 50.65 428.242 50.65C427.675 50.65 427.192 50.5167 426.792 50.25C426.409 49.9833 426.217 49.5083 426.217 48.825C426.217 48.125 426.409 47.65 426.792 47.4C427.192 47.1333 427.675 47 428.242 47ZM441.734 52.1C443.201 52.1 444.376 52.5 445.259 53.3C446.143 54.0833 446.584 55.35 446.584 57.1V66H442.859V58.025C442.859 57.0417 442.684 56.3083 442.334 55.825C441.984 55.325 441.426 55.075 440.659 55.075C439.526 55.075 438.751 55.4667 438.334 56.25C437.918 57.0167 437.709 58.125 437.709 59.575V66H433.984V52.35H436.834L437.334 54.1H437.534C437.834 53.6333 438.201 53.2583 438.634 52.975C439.068 52.675 439.551 52.4583 440.084 52.325C440.618 52.175 441.168 52.1 441.734 52.1ZM456.04 52.1C457.307 52.1 458.39 52.3417 459.29 52.825C460.207 53.3083 460.915 54.0083 461.415 54.925C461.915 55.8417 462.165 56.9667 462.165 58.3V60.1H453.365C453.398 61.15 453.707 61.975 454.29 62.575C454.89 63.175 455.715 63.475 456.765 63.475C457.648 63.475 458.448 63.3917 459.165 63.225C459.882 63.0417 460.623 62.7667 461.39 62.4V65.275C460.723 65.6083 460.015 65.85 459.265 66C458.532 66.1667 457.64 66.25 456.59 66.25C455.223 66.25 454.015 66 452.965 65.5C451.915 64.9833 451.09 64.2083 450.49 63.175C449.89 62.1417 449.59 60.8417 449.59 59.275C449.59 57.675 449.857 56.35 450.39 55.3C450.94 54.2333 451.698 53.4333 452.665 52.9C453.632 52.3667 454.757 52.1 456.04 52.1ZM456.065 54.75C455.348 54.75 454.748 54.9833 454.265 55.45C453.798 55.9167 453.523 56.6417 453.44 57.625H458.665C458.665 57.075 458.565 56.5833 458.365 56.15C458.182 55.7167 457.898 55.375 457.515 55.125C457.132 54.875 456.648 54.75 456.065 54.75ZM338.875 91H335.1V83.3H328.025V91H324.25V73.15H328.025V80.15H335.1V73.15H338.875V91ZM355.466 84.15C355.466 85.2833 355.308 86.2917 354.991 87.175C354.691 88.0583 354.25 88.8083 353.666 89.425C353.1 90.025 352.408 90.4833 351.591 90.8C350.775 91.1 349.85 91.25 348.816 91.25C347.866 91.25 346.983 91.1 346.166 90.8C345.366 90.4833 344.675 90.025 344.091 89.425C343.508 88.8083 343.05 88.0583 342.716 87.175C342.4 86.2917 342.241 85.2833 342.241 84.15C342.241 82.6333 342.508 81.3583 343.041 80.325C343.575 79.275 344.341 78.475 345.341 77.925C346.341 77.375 347.525 77.1 348.891 77.1C350.175 77.1 351.308 77.375 352.291 77.925C353.275 78.475 354.05 79.275 354.616 80.325C355.183 81.3583 355.466 82.6333 355.466 84.15ZM346.041 84.15C346.041 85.05 346.133 85.8083 346.316 86.425C346.516 87.025 346.825 87.4833 347.241 87.8C347.658 88.1 348.2 88.25 348.866 88.25C349.533 88.25 350.066 88.1 350.466 87.8C350.883 87.4833 351.183 87.025 351.366 86.425C351.566 85.8083 351.666 85.05 351.666 84.15C351.666 83.25 351.566 82.5 351.366 81.9C351.183 81.3 350.883 80.85 350.466 80.55C350.05 80.25 349.508 80.1 348.841 80.1C347.858 80.1 347.141 80.4417 346.691 81.125C346.258 81.7917 346.041 82.8 346.041 84.15ZM364.095 91.25C362.745 91.25 361.595 91.0083 360.645 90.525C359.695 90.025 358.97 89.2583 358.47 88.225C357.97 87.1917 357.72 85.8667 357.72 84.25C357.72 82.5833 358.003 81.225 358.57 80.175C359.136 79.125 359.92 78.35 360.92 77.85C361.936 77.35 363.103 77.1 364.42 77.1C365.353 77.1 366.161 77.1917 366.845 77.375C367.545 77.5583 368.153 77.775 368.67 78.025L367.57 80.9C366.986 80.6667 366.436 80.475 365.92 80.325C365.42 80.175 364.92 80.1 364.42 80.1C363.77 80.1 363.228 80.2583 362.795 80.575C362.361 80.875 362.036 81.3333 361.82 81.95C361.62 82.55 361.52 83.3083 361.52 84.225C361.52 85.125 361.628 85.875 361.845 86.475C362.078 87.0583 362.411 87.5 362.845 87.8C363.278 88.0833 363.803 88.225 364.42 88.225C365.203 88.225 365.895 88.125 366.495 87.925C367.095 87.7083 367.678 87.4167 368.245 87.05V90.225C367.678 90.5917 367.078 90.85 366.445 91C365.828 91.1667 365.045 91.25 364.095 91.25ZM375.112 75.875C375.112 76.5417 375.087 77.1833 375.037 77.8C375.003 78.4167 374.97 78.85 374.937 79.1H375.137C375.437 78.6333 375.787 78.2583 376.187 77.975C376.587 77.675 377.028 77.4583 377.512 77.325C378.012 77.175 378.537 77.1 379.087 77.1C380.07 77.1 380.928 77.275 381.662 77.625C382.395 77.975 382.962 78.5167 383.362 79.25C383.778 79.9833 383.987 80.9333 383.987 82.1V91H380.262V83.025C380.262 82.0417 380.078 81.3083 379.712 80.825C379.362 80.325 378.812 80.075 378.062 80.075C377.312 80.075 376.72 80.25 376.287 80.6C375.87 80.95 375.57 81.4583 375.387 82.125C375.203 82.7917 375.112 83.6083 375.112 84.575V91H371.387V72H375.112V75.875ZM397.342 86.95C397.342 87.8667 397.126 88.65 396.692 89.3C396.259 89.9333 395.609 90.4167 394.742 90.75C393.876 91.0833 392.801 91.25 391.517 91.25C390.567 91.25 389.751 91.1833 389.067 91.05C388.384 90.9333 387.701 90.7333 387.017 90.45V87.375C387.751 87.7083 388.542 87.9833 389.392 88.2C390.242 88.4167 390.992 88.525 391.642 88.525C392.376 88.525 392.892 88.4167 393.192 88.2C393.509 87.9833 393.667 87.7 393.667 87.35C393.667 87.1167 393.601 86.9083 393.467 86.725C393.351 86.5417 393.084 86.3333 392.667 86.1C392.251 85.8667 391.601 85.5667 390.717 85.2C389.867 84.8333 389.167 84.475 388.617 84.125C388.067 83.7583 387.659 83.325 387.392 82.825C387.126 82.3083 386.992 81.6667 386.992 80.9C386.992 79.6333 387.484 78.6833 388.467 78.05C389.451 77.4167 390.759 77.1 392.392 77.1C393.242 77.1 394.051 77.1833 394.817 77.35C395.584 77.5167 396.376 77.7917 397.192 78.175L396.067 80.85C395.617 80.65 395.184 80.475 394.767 80.325C394.351 80.175 393.942 80.0583 393.542 79.975C393.159 79.8917 392.759 79.85 392.342 79.85C391.792 79.85 391.376 79.925 391.092 80.075C390.826 80.225 390.692 80.45 390.692 80.75C390.692 80.9667 390.759 81.1667 390.892 81.35C391.042 81.5167 391.317 81.7 391.717 81.9C392.134 82.1 392.742 82.3667 393.542 82.7C394.326 83.0167 395.001 83.35 395.567 83.7C396.134 84.0333 396.567 84.4583 396.867 84.975C397.184 85.475 397.342 86.1333 397.342 86.95ZM405.794 91.25C404.444 91.25 403.294 91.0083 402.344 90.525C401.394 90.025 400.669 89.2583 400.169 88.225C399.669 87.1917 399.419 85.8667 399.419 84.25C399.419 82.5833 399.702 81.225 400.269 80.175C400.836 79.125 401.619 78.35 402.619 77.85C403.636 77.35 404.802 77.1 406.119 77.1C407.052 77.1 407.861 77.1917 408.544 77.375C409.244 77.5583 409.852 77.775 410.369 78.025L409.269 80.9C408.686 80.6667 408.136 80.475 407.619 80.325C407.119 80.175 406.619 80.1 406.119 80.1C405.469 80.1 404.927 80.2583 404.494 80.575C404.061 80.875 403.736 81.3333 403.519 81.95C403.319 82.55 403.219 83.3083 403.219 84.225C403.219 85.125 403.327 85.875 403.544 86.475C403.777 87.0583 404.111 87.5 404.544 87.8C404.977 88.0833 405.502 88.225 406.119 88.225C406.902 88.225 407.594 88.125 408.194 87.925C408.794 87.7083 409.377 87.4167 409.944 87.05V90.225C409.377 90.5917 408.777 90.85 408.144 91C407.527 91.1667 406.744 91.25 405.794 91.25ZM416.811 75.875C416.811 76.5417 416.786 77.1833 416.736 77.8C416.702 78.4167 416.669 78.85 416.636 79.1H416.836C417.136 78.6333 417.486 78.2583 417.886 77.975C418.286 77.675 418.727 77.4583 419.211 77.325C419.711 77.175 420.236 77.1 420.786 77.1C421.769 77.1 422.627 77.275 423.361 77.625C424.094 77.975 424.661 78.5167 425.061 79.25C425.477 79.9833 425.686 80.9333 425.686 82.1V91H421.961V83.025C421.961 82.0417 421.777 81.3083 421.411 80.825C421.061 80.325 420.511 80.075 419.761 80.075C419.011 80.075 418.419 80.25 417.986 80.6C417.569 80.95 417.269 81.4583 417.086 82.125C416.902 82.7917 416.811 83.6083 416.811 84.575V91H413.086V72H416.811V75.875ZM442.041 77.35V91H439.191L438.691 89.25H438.491C438.208 89.7167 437.841 90.1 437.391 90.4C436.958 90.6833 436.475 90.8917 435.941 91.025C435.408 91.175 434.858 91.25 434.291 91.25C433.325 91.25 432.475 91.075 431.741 90.725C431.008 90.375 430.441 89.8333 430.041 89.1C429.641 88.3667 429.441 87.4167 429.441 86.25V77.35H433.166V85.325C433.166 86.2917 433.341 87.025 433.691 87.525C434.041 88.025 434.6 88.275 435.366 88.275C436.133 88.275 436.725 88.1 437.141 87.75C437.575 87.4 437.875 86.8917 438.041 86.225C438.225 85.5583 438.316 84.7417 438.316 83.775V77.35H442.041ZM449.672 91H445.947V72H449.672V91ZM461.189 77.1C461.373 77.1 461.589 77.1083 461.839 77.125C462.089 77.1417 462.289 77.1667 462.439 77.2L462.164 80.7C462.048 80.6667 461.873 80.6417 461.639 80.625C461.423 80.5917 461.231 80.575 461.064 80.575C460.581 80.575 460.114 80.6417 459.664 80.775C459.214 80.8917 458.806 81.0833 458.439 81.35C458.089 81.6167 457.806 81.975 457.589 82.425C457.389 82.8583 457.289 83.4 457.289 84.05V91H453.564V77.35H456.389L456.939 79.65H457.114C457.381 79.1833 457.714 78.7583 458.114 78.375C458.514 77.9917 458.973 77.6833 459.489 77.45C460.023 77.2167 460.589 77.1 461.189 77.1ZM470.054 77.1C471.32 77.1 472.404 77.3417 473.304 77.825C474.22 78.3083 474.929 79.0083 475.429 79.925C475.929 80.8417 476.179 81.9667 476.179 83.3V85.1H467.379C467.412 86.15 467.72 86.975 468.304 87.575C468.904 88.175 469.729 88.475 470.779 88.475C471.662 88.475 472.462 88.3917 473.179 88.225C473.895 88.0417 474.637 87.7667 475.404 87.4V90.275C474.737 90.6083 474.029 90.85 473.279 91C472.545 91.1667 471.654 91.25 470.604 91.25C469.237 91.25 468.029 91 466.979 90.5C465.929 89.9833 465.104 89.2083 464.504 88.175C463.904 87.1417 463.604 85.8417 463.604 84.275C463.604 82.675 463.87 81.35 464.404 80.3C464.954 79.2333 465.712 78.4333 466.679 77.9C467.645 77.3667 468.77 77.1 470.054 77.1ZM470.079 79.75C469.362 79.75 468.762 79.9833 468.279 80.45C467.812 80.9167 467.537 81.6417 467.454 82.625H472.679C472.679 82.075 472.579 81.5833 472.379 81.15C472.195 80.7167 471.912 80.375 471.529 80.125C471.145 79.875 470.662 79.75 470.079 79.75ZM482.924 77.35V91H479.199V77.35H482.924ZM481.074 72C481.624 72 482.099 72.1333 482.499 72.4C482.899 72.65 483.099 73.125 483.099 73.825C483.099 74.5083 482.899 74.9833 482.499 75.25C482.099 75.5167 481.624 75.65 481.074 75.65C480.507 75.65 480.024 75.5167 479.624 75.25C479.241 74.9833 479.049 74.5083 479.049 73.825C479.049 73.125 479.241 72.65 479.624 72.4C480.024 72.1333 480.507 72 481.074 72ZM494.366 80.15H491.141V91H487.416V80.15H485.366V78.35L487.416 77.35V76.35C487.416 75.1833 487.608 74.2833 487.991 73.65C488.391 73 488.95 72.5417 489.666 72.275C490.4 72.0083 491.258 71.875 492.241 71.875C492.975 71.875 493.633 71.9333 494.216 72.05C494.816 72.1667 495.3 72.3 495.666 72.45L494.716 75.175C494.433 75.0917 494.125 75.0167 493.791 74.95C493.458 74.8667 493.075 74.825 492.641 74.825C492.125 74.825 491.741 74.9833 491.491 75.3C491.258 75.6167 491.141 76.0167 491.141 76.5V77.35H494.366V80.15ZM502.109 77.1C503.376 77.1 504.459 77.3417 505.359 77.825C506.276 78.3083 506.984 79.0083 507.484 79.925C507.984 80.8417 508.234 81.9667 508.234 83.3V85.1H499.434C499.468 86.15 499.776 86.975 500.359 87.575C500.959 88.175 501.784 88.475 502.834 88.475C503.718 88.475 504.518 88.3917 505.234 88.225C505.951 88.0417 506.693 87.7667 507.459 87.4V90.275C506.793 90.6083 506.084 90.85 505.334 91C504.601 91.1667 503.709 91.25 502.659 91.25C501.293 91.25 500.084 91 499.034 90.5C497.984 89.9833 497.159 89.2083 496.559 88.175C495.959 87.1417 495.659 85.8417 495.659 84.275C495.659 82.675 495.926 81.35 496.459 80.3C497.009 79.2333 497.768 78.4333 498.734 77.9C499.701 77.3667 500.826 77.1 502.109 77.1ZM502.134 79.75C501.418 79.75 500.818 79.9833 500.334 80.45C499.868 80.9167 499.593 81.6417 499.509 82.625H504.734C504.734 82.075 504.634 81.5833 504.434 81.15C504.251 80.7167 503.968 80.375 503.584 80.125C503.201 79.875 502.718 79.75 502.134 79.75Z" fill="white"/>
<path d="M27.775 173.05C27.775 174.1 27.5167 175.017 27 175.8C26.4833 176.583 25.7333 177.192 24.75 177.625C23.7833 178.042 22.6 178.25 21.2 178.25C20.5833 178.25 19.975 178.208 19.375 178.125C18.7917 178.042 18.225 177.925 17.675 177.775C17.1417 177.608 16.6333 177.408 16.15 177.175V173.65C17 174.017 17.875 174.358 18.775 174.675C19.6917 174.975 20.6 175.125 21.5 175.125C22.1167 175.125 22.6083 175.042 22.975 174.875C23.3583 174.708 23.6333 174.483 23.8 174.2C23.9833 173.917 24.075 173.592 24.075 173.225C24.075 172.775 23.9167 172.392 23.6 172.075C23.3 171.758 22.8917 171.467 22.375 171.2C21.8583 170.917 21.2667 170.617 20.6 170.3C20.1833 170.1 19.7333 169.867 19.25 169.6C18.7667 169.317 18.3 168.975 17.85 168.575C17.4167 168.158 17.0583 167.658 16.775 167.075C16.4917 166.492 16.35 165.792 16.35 164.975C16.35 163.908 16.5917 163 17.075 162.25C17.575 161.483 18.275 160.9 19.175 160.5C20.0917 160.1 21.1667 159.9 22.4 159.9C23.3333 159.9 24.2167 160.008 25.05 160.225C25.9 160.442 26.7833 160.75 27.7 161.15L26.475 164.1C25.6583 163.767 24.925 163.508 24.275 163.325C23.625 163.142 22.9583 163.05 22.275 163.05C21.8083 163.05 21.4083 163.125 21.075 163.275C20.7417 163.425 20.4833 163.633 20.3 163.9C20.1333 164.167 20.05 164.483 20.05 164.85C20.05 165.267 20.175 165.625 20.425 165.925C20.675 166.208 21.05 166.483 21.55 166.75C22.05 167.017 22.675 167.333 23.425 167.7C24.3417 168.133 25.1167 168.583 25.75 169.05C26.4 169.517 26.9 170.067 27.25 170.7C27.6 171.333 27.775 172.117 27.775 173.05ZM34.4445 164.35V178H30.7195V164.35H34.4445ZM32.5945 159C33.1445 159 33.6195 159.133 34.0195 159.4C34.4195 159.65 34.6195 160.125 34.6195 160.825C34.6195 161.508 34.4195 161.983 34.0195 162.25C33.6195 162.517 33.1445 162.65 32.5945 162.65C32.0279 162.65 31.5445 162.517 31.1445 162.25C30.7612 161.983 30.5695 161.508 30.5695 160.825C30.5695 160.125 30.7612 159.65 31.1445 159.4C31.5445 159.133 32.0279 159 32.5945 159ZM43.9617 164.1C45.2284 164.1 46.3117 164.342 47.2117 164.825C48.1284 165.308 48.8367 166.008 49.3367 166.925C49.8367 167.842 50.0867 168.967 50.0867 170.3V172.1H41.2867C41.3201 173.15 41.6284 173.975 42.2117 174.575C42.8117 175.175 43.6367 175.475 44.6867 175.475C45.5701 175.475 46.3701 175.392 47.0867 175.225C47.8034 175.042 48.5451 174.767 49.3117 174.4V177.275C48.6451 177.608 47.9367 177.85 47.1867 178C46.4534 178.167 45.5617 178.25 44.5117 178.25C43.1451 178.25 41.9367 178 40.8867 177.5C39.8367 176.983 39.0117 176.208 38.4117 175.175C37.8117 174.142 37.5117 172.842 37.5117 171.275C37.5117 169.675 37.7784 168.35 38.3117 167.3C38.8617 166.233 39.6201 165.433 40.5867 164.9C41.5534 164.367 42.6784 164.1 43.9617 164.1ZM43.9867 166.75C43.2701 166.75 42.6701 166.983 42.1867 167.45C41.7201 167.917 41.4451 168.642 41.3617 169.625H46.5867C46.5867 169.075 46.4867 168.583 46.2867 168.15C46.1034 167.717 45.8201 167.375 45.4367 167.125C45.0534 166.875 44.5701 166.75 43.9867 166.75ZM69.1322 164.1C70.6822 164.1 71.8489 164.5 72.6322 165.3C73.4322 166.083 73.8322 167.35 73.8322 169.1V178H70.1072V170.025C70.1072 169.042 69.9406 168.308 69.6072 167.825C69.2739 167.325 68.7572 167.075 68.0572 167.075C67.0739 167.075 66.3739 167.425 65.9572 168.125C65.5406 168.825 65.3322 169.833 65.3322 171.15V178H61.6072V170.025C61.6072 169.375 61.5322 168.833 61.3822 168.4C61.2322 167.967 61.0072 167.642 60.7072 167.425C60.4072 167.192 60.0239 167.075 59.5572 167.075C58.8739 167.075 58.3322 167.25 57.9322 167.6C57.5322 167.95 57.2489 168.458 57.0822 169.125C56.9156 169.792 56.8322 170.608 56.8322 171.575V178H53.1072V164.35H55.9572L56.4572 166.1H56.6572C56.9406 165.633 57.2906 165.258 57.7072 164.975C58.1239 164.675 58.5822 164.458 59.0822 164.325C59.5989 164.175 60.1156 164.1 60.6322 164.1C61.6322 164.1 62.4822 164.267 63.1822 164.6C63.8822 164.917 64.4156 165.417 64.7822 166.1H65.1072C65.5239 165.4 66.0989 164.892 66.8322 164.575C67.5822 164.258 68.3489 164.1 69.1322 164.1ZM83.2928 164.1C84.5594 164.1 85.6428 164.342 86.5428 164.825C87.4594 165.308 88.1678 166.008 88.6678 166.925C89.1678 167.842 89.4178 168.967 89.4178 170.3V172.1H80.6178C80.6511 173.15 80.9594 173.975 81.5428 174.575C82.1428 175.175 82.9678 175.475 84.0178 175.475C84.9011 175.475 85.7011 175.392 86.4178 175.225C87.1344 175.042 87.8761 174.767 88.6428 174.4V177.275C87.9761 177.608 87.2678 177.85 86.5178 178C85.7844 178.167 84.8928 178.25 83.8428 178.25C82.4761 178.25 81.2678 178 80.2178 177.5C79.1678 176.983 78.3428 176.208 77.7428 175.175C77.1428 174.142 76.8428 172.842 76.8428 171.275C76.8428 169.675 77.1094 168.35 77.6428 167.3C78.1928 166.233 78.9511 165.433 79.9178 164.9C80.8844 164.367 82.0094 164.1 83.2928 164.1ZM83.3178 166.75C82.6011 166.75 82.0011 166.983 81.5178 167.45C81.0511 167.917 80.7761 168.642 80.6928 169.625H85.9178C85.9178 169.075 85.8178 168.583 85.6178 168.15C85.4344 167.717 85.1511 167.375 84.7678 167.125C84.3844 166.875 83.9011 166.75 83.3178 166.75ZM100.188 164.1C101.655 164.1 102.83 164.5 103.713 165.3C104.597 166.083 105.038 167.35 105.038 169.1V178H101.313V170.025C101.313 169.042 101.138 168.308 100.788 167.825C100.438 167.325 99.8799 167.075 99.1133 167.075C97.9799 167.075 97.2049 167.467 96.7883 168.25C96.3716 169.017 96.1633 170.125 96.1633 171.575V178H92.4383V164.35H95.2883L95.7883 166.1H95.9883C96.2883 165.633 96.6549 165.258 97.0883 164.975C97.5216 164.675 98.0049 164.458 98.5383 164.325C99.0716 164.175 99.6216 164.1 100.188 164.1ZM118.394 173.95C118.394 174.867 118.177 175.65 117.744 176.3C117.311 176.933 116.661 177.417 115.794 177.75C114.927 178.083 113.852 178.25 112.569 178.25C111.619 178.25 110.802 178.183 110.119 178.05C109.436 177.933 108.752 177.733 108.069 177.45V174.375C108.802 174.708 109.594 174.983 110.444 175.2C111.294 175.417 112.044 175.525 112.694 175.525C113.427 175.525 113.944 175.417 114.244 175.2C114.561 174.983 114.719 174.7 114.719 174.35C114.719 174.117 114.652 173.908 114.519 173.725C114.402 173.542 114.136 173.333 113.719 173.1C113.302 172.867 112.652 172.567 111.769 172.2C110.919 171.833 110.219 171.475 109.669 171.125C109.119 170.758 108.711 170.325 108.444 169.825C108.177 169.308 108.044 168.667 108.044 167.9C108.044 166.633 108.536 165.683 109.519 165.05C110.502 164.417 111.811 164.1 113.444 164.1C114.294 164.1 115.102 164.183 115.869 164.35C116.636 164.517 117.427 164.792 118.244 165.175L117.119 167.85C116.669 167.65 116.236 167.475 115.819 167.325C115.402 167.175 114.994 167.058 114.594 166.975C114.211 166.892 113.811 166.85 113.394 166.85C112.844 166.85 112.427 166.925 112.144 167.075C111.877 167.225 111.744 167.45 111.744 167.75C111.744 167.967 111.811 168.167 111.944 168.35C112.094 168.517 112.369 168.7 112.769 168.9C113.186 169.1 113.794 169.367 114.594 169.7C115.377 170.017 116.052 170.35 116.619 170.7C117.186 171.033 117.619 171.458 117.919 171.975C118.236 172.475 118.394 173.133 118.394 173.95ZM139.015 178L137.715 173.75H131.215L129.915 178H125.84L132.14 160.075H136.765L143.09 178H139.015ZM135.515 166.425C135.432 166.142 135.323 165.783 135.19 165.35C135.057 164.917 134.923 164.475 134.79 164.025C134.657 163.575 134.548 163.183 134.465 162.85C134.382 163.183 134.265 163.6 134.115 164.1C133.982 164.583 133.848 165.05 133.715 165.5C133.598 165.933 133.507 166.242 133.44 166.425L132.165 170.575H136.815L135.515 166.425ZM151.637 167.975H158.712V177.225C157.779 177.542 156.804 177.792 155.787 177.975C154.787 178.158 153.646 178.25 152.362 178.25C150.596 178.25 149.087 177.9 147.837 177.2C146.604 176.5 145.662 175.467 145.012 174.1C144.379 172.733 144.062 171.05 144.062 169.05C144.062 167.183 144.421 165.567 145.137 164.2C145.871 162.833 146.929 161.775 148.312 161.025C149.696 160.275 151.387 159.9 153.387 159.9C154.337 159.9 155.271 160 156.187 160.2C157.104 160.4 157.937 160.667 158.687 161L157.437 164.025C156.887 163.742 156.262 163.508 155.562 163.325C154.862 163.142 154.129 163.05 153.362 163.05C152.262 163.05 151.304 163.3 150.487 163.8C149.687 164.3 149.062 165.008 148.612 165.925C148.179 166.825 147.962 167.892 147.962 169.125C147.962 170.292 148.121 171.325 148.437 172.225C148.754 173.125 149.254 173.833 149.937 174.35C150.621 174.85 151.512 175.1 152.612 175.1C152.979 175.1 153.296 175.092 153.562 175.075C153.846 175.042 154.104 175.008 154.337 174.975C154.571 174.925 154.796 174.883 155.012 174.85V171.125H151.637V167.975Z" fill="#9D9D9D"/>
<path d="M338.875 126H335.1V118.3H328.025V126H324.25V108.15H328.025V115.15H335.1V108.15H338.875V126ZM348.691 112.1C349.958 112.1 351.041 112.342 351.941 112.825C352.858 113.308 353.566 114.008 354.066 114.925C354.566 115.842 354.816 116.967 354.816 118.3V120.1H346.016C346.05 121.15 346.358 121.975 346.941 122.575C347.541 123.175 348.366 123.475 349.416 123.475C350.3 123.475 351.1 123.392 351.816 123.225C352.533 123.042 353.275 122.767 354.041 122.4V125.275C353.375 125.608 352.666 125.85 351.916 126C351.183 126.167 350.291 126.25 349.241 126.25C347.875 126.25 346.666 126 345.616 125.5C344.566 124.983 343.741 124.208 343.141 123.175C342.541 122.142 342.241 120.842 342.241 119.275C342.241 117.675 342.508 116.35 343.041 115.3C343.591 114.233 344.35 113.433 345.316 112.9C346.283 112.367 347.408 112.1 348.691 112.1ZM348.716 114.75C348 114.75 347.4 114.983 346.916 115.45C346.45 115.917 346.175 116.642 346.091 117.625H351.316C351.316 117.075 351.216 116.583 351.016 116.15C350.833 115.717 350.55 115.375 350.166 115.125C349.783 114.875 349.3 114.75 348.716 114.75ZM361.562 126H357.837V107H361.562V126ZM371.079 112.1C372.346 112.1 373.429 112.342 374.329 112.825C375.246 113.308 375.954 114.008 376.454 114.925C376.954 115.842 377.204 116.967 377.204 118.3V120.1H368.404C368.437 121.15 368.746 121.975 369.329 122.575C369.929 123.175 370.754 123.475 371.804 123.475C372.687 123.475 373.487 123.392 374.204 123.225C374.921 123.042 375.662 122.767 376.429 122.4V125.275C375.762 125.608 375.054 125.85 374.304 126C373.571 126.167 372.679 126.25 371.629 126.25C370.262 126.25 369.054 126 368.004 125.5C366.954 124.983 366.129 124.208 365.529 123.175C364.929 122.142 364.629 120.842 364.629 119.275C364.629 117.675 364.896 116.35 365.429 115.3C365.979 114.233 366.737 113.433 367.704 112.9C368.671 112.367 369.796 112.1 371.079 112.1ZM371.104 114.75C370.387 114.75 369.787 114.983 369.304 115.45C368.837 115.917 368.562 116.642 368.479 117.625H373.704C373.704 117.075 373.604 116.583 373.404 116.15C373.221 115.717 372.937 115.375 372.554 115.125C372.171 114.875 371.687 114.75 371.104 114.75ZM387.974 112.1C389.441 112.1 390.616 112.5 391.499 113.3C392.383 114.083 392.824 115.35 392.824 117.1V126H389.099V118.025C389.099 117.042 388.924 116.308 388.574 115.825C388.224 115.325 387.666 115.075 386.899 115.075C385.766 115.075 384.991 115.467 384.574 116.25C384.158 117.017 383.949 118.125 383.949 119.575V126H380.224V112.35H383.074L383.574 114.1H383.774C384.074 113.633 384.441 113.258 384.874 112.975C385.308 112.675 385.791 112.458 386.324 112.325C386.858 112.175 387.408 112.1 387.974 112.1ZM402.28 112.1C403.547 112.1 404.63 112.342 405.53 112.825C406.447 113.308 407.155 114.008 407.655 114.925C408.155 115.842 408.405 116.967 408.405 118.3V120.1H399.605C399.638 121.15 399.947 121.975 400.53 122.575C401.13 123.175 401.955 123.475 403.005 123.475C403.888 123.475 404.688 123.392 405.405 123.225C406.122 123.042 406.863 122.767 407.63 122.4V125.275C406.963 125.608 406.255 125.85 405.505 126C404.772 126.167 403.88 126.25 402.83 126.25C401.463 126.25 400.255 126 399.205 125.5C398.155 124.983 397.33 124.208 396.73 123.175C396.13 122.142 395.83 120.842 395.83 119.275C395.83 117.675 396.097 116.35 396.63 115.3C397.18 114.233 397.938 113.433 398.905 112.9C399.872 112.367 400.997 112.1 402.28 112.1ZM402.305 114.75C401.588 114.75 400.988 114.983 400.505 115.45C400.038 115.917 399.763 116.642 399.68 117.625H404.905C404.905 117.075 404.805 116.583 404.605 116.15C404.422 115.717 404.138 115.375 403.755 115.125C403.372 114.875 402.888 114.75 402.305 114.75ZM410.721 117.162H417.19V119.738H410.721V117.162ZM420.71 126V108.15H424.485V122.875H431.735V126H420.71ZM440.146 112.075C441.979 112.075 443.379 112.475 444.346 113.275C445.329 114.058 445.821 115.267 445.821 116.9V126H443.221L442.496 124.15H442.396C442.012 124.633 441.612 125.033 441.196 125.35C440.796 125.667 440.329 125.892 439.796 126.025C439.279 126.175 438.637 126.25 437.871 126.25C437.071 126.25 436.346 126.1 435.696 125.8C435.062 125.483 434.562 125.008 434.196 124.375C433.829 123.725 433.646 122.908 433.646 121.925C433.646 120.475 434.154 119.408 435.171 118.725C436.187 118.025 437.712 117.642 439.746 117.575L442.121 117.5V116.9C442.121 116.183 441.929 115.658 441.546 115.325C441.179 114.992 440.662 114.825 439.996 114.825C439.329 114.825 438.679 114.925 438.046 115.125C437.412 115.308 436.779 115.542 436.146 115.825L434.921 113.3C435.654 112.917 436.462 112.617 437.346 112.4C438.246 112.183 439.179 112.075 440.146 112.075ZM440.671 119.725C439.471 119.758 438.637 119.975 438.171 120.375C437.704 120.775 437.471 121.3 437.471 121.95C437.471 122.517 437.637 122.925 437.971 123.175C438.304 123.408 438.737 123.525 439.271 123.525C440.071 123.525 440.746 123.292 441.296 122.825C441.846 122.342 442.121 121.667 442.121 120.8V119.675L440.671 119.725ZM457.384 112.1C458.85 112.1 460.025 112.5 460.909 113.3C461.792 114.083 462.234 115.35 462.234 117.1V126H458.509V118.025C458.509 117.042 458.334 116.308 457.984 115.825C457.634 115.325 457.075 115.075 456.309 115.075C455.175 115.075 454.4 115.467 453.984 116.25C453.567 117.017 453.359 118.125 453.359 119.575V126H449.634V112.35H452.484L452.984 114.1H453.184C453.484 113.633 453.85 113.258 454.284 112.975C454.717 112.675 455.2 112.458 455.734 112.325C456.267 112.175 456.817 112.1 457.384 112.1ZM470.489 112.1C471.323 112.1 472.073 112.267 472.739 112.6C473.406 112.933 473.973 113.433 474.439 114.1H474.539L474.839 112.35H477.989V126.025C477.989 127.325 477.731 128.417 477.214 129.3C476.714 130.183 475.956 130.85 474.939 131.3C473.923 131.767 472.664 132 471.164 132C470.198 132 469.298 131.942 468.464 131.825C467.648 131.708 466.848 131.5 466.064 131.2V128.225C466.631 128.458 467.198 128.65 467.764 128.8C468.348 128.967 468.939 129.083 469.539 129.15C470.156 129.233 470.773 129.275 471.389 129.275C472.356 129.275 473.073 129.017 473.539 128.5C474.023 127.983 474.264 127.208 474.264 126.175V125.9C474.264 125.617 474.273 125.325 474.289 125.025C474.323 124.725 474.348 124.458 474.364 124.225H474.264C473.798 124.942 473.239 125.458 472.589 125.775C471.939 126.092 471.206 126.25 470.389 126.25C468.773 126.25 467.506 125.633 466.589 124.4C465.689 123.15 465.239 121.417 465.239 119.2C465.239 117.7 465.448 116.425 465.864 115.375C466.281 114.308 466.881 113.5 467.664 112.95C468.464 112.383 469.406 112.1 470.489 112.1ZM471.664 115.125C471.081 115.125 470.589 115.283 470.189 115.6C469.806 115.9 469.514 116.358 469.314 116.975C469.131 117.575 469.039 118.333 469.039 119.25C469.039 120.617 469.256 121.642 469.689 122.325C470.123 122.992 470.798 123.325 471.714 123.325C472.198 123.325 472.614 123.267 472.964 123.15C473.314 123.017 473.598 122.808 473.814 122.525C474.048 122.225 474.223 121.842 474.339 121.375C474.456 120.908 474.514 120.342 474.514 119.675V119.225C474.514 118.242 474.414 117.45 474.214 116.85C474.014 116.25 473.706 115.817 473.289 115.55C472.873 115.267 472.331 115.125 471.664 115.125ZM487.51 112.1C488.776 112.1 489.86 112.342 490.76 112.825C491.676 113.308 492.385 114.008 492.885 114.925C493.385 115.842 493.635 116.967 493.635 118.3V120.1H484.835C484.868 121.15 485.176 121.975 485.76 122.575C486.36 123.175 487.185 123.475 488.235 123.475C489.118 123.475 489.918 123.392 490.635 123.225C491.351 123.042 492.093 122.767 492.86 122.4V125.275C492.193 125.608 491.485 125.85 490.735 126C490.001 126.167 489.11 126.25 488.06 126.25C486.693 126.25 485.485 126 484.435 125.5C483.385 124.983 482.56 124.208 481.96 123.175C481.36 122.142 481.06 120.842 481.06 119.275C481.06 117.675 481.326 116.35 481.86 115.3C482.41 114.233 483.168 113.433 484.135 112.9C485.101 112.367 486.226 112.1 487.51 112.1ZM487.535 114.75C486.818 114.75 486.218 114.983 485.735 115.45C485.268 115.917 484.993 116.642 484.91 117.625H490.135C490.135 117.075 490.035 116.583 489.835 116.15C489.651 115.717 489.368 115.375 488.985 115.125C488.601 114.875 488.118 114.75 487.535 114.75ZM495.95 117.162H502.42V119.738H495.95V117.162ZM331.025 140.975H338.1V150.225C337.167 150.542 336.192 150.792 335.175 150.975C334.175 151.158 333.033 151.25 331.75 151.25C329.983 151.25 328.475 150.9 327.225 150.2C325.992 149.5 325.05 148.467 324.4 147.1C323.767 145.733 323.45 144.05 323.45 142.05C323.45 140.183 323.808 138.567 324.525 137.2C325.258 135.833 326.317 134.775 327.7 134.025C329.083 133.275 330.775 132.9 332.775 132.9C333.725 132.9 334.658 133 335.575 133.2C336.492 133.4 337.325 133.667 338.075 134L336.825 137.025C336.275 136.742 335.65 136.508 334.95 136.325C334.25 136.142 333.517 136.05 332.75 136.05C331.65 136.05 330.692 136.3 329.875 136.8C329.075 137.3 328.45 138.008 328 138.925C327.567 139.825 327.35 140.892 327.35 142.125C327.35 143.292 327.508 144.325 327.825 145.225C328.142 146.125 328.642 146.833 329.325 147.35C330.008 147.85 330.9 148.1 332 148.1C332.367 148.1 332.683 148.092 332.95 148.075C333.233 148.042 333.492 148.008 333.725 147.975C333.958 147.925 334.183 147.883 334.4 147.85V144.125H331.025V140.975ZM340.091 137.35H344.166L346.741 145.025C346.824 145.275 346.891 145.525 346.941 145.775C347.007 146.025 347.057 146.283 347.091 146.55C347.141 146.817 347.174 147.1 347.191 147.4H347.266C347.316 146.967 347.382 146.558 347.466 146.175C347.566 145.775 347.674 145.392 347.791 145.025L350.316 137.35H354.316L348.541 152.75C348.191 153.683 347.732 154.467 347.166 155.1C346.616 155.733 345.974 156.208 345.241 156.525C344.507 156.842 343.707 157 342.841 157C342.424 157 342.057 156.975 341.741 156.925C341.441 156.892 341.174 156.85 340.941 156.8V153.85C341.124 153.883 341.341 153.917 341.591 153.95C341.857 153.983 342.132 154 342.416 154C342.932 154 343.374 153.892 343.741 153.675C344.124 153.458 344.441 153.158 344.691 152.775C344.941 152.408 345.141 152.008 345.291 151.575L345.516 150.9L340.091 137.35ZM372.299 137.1C373.849 137.1 375.016 137.5 375.799 138.3C376.599 139.083 376.999 140.35 376.999 142.1V151H373.274V143.025C373.274 142.042 373.108 141.308 372.774 140.825C372.441 140.325 371.924 140.075 371.224 140.075C370.241 140.075 369.541 140.425 369.124 141.125C368.708 141.825 368.499 142.833 368.499 144.15V151H364.774V143.025C364.774 142.375 364.699 141.833 364.549 141.4C364.399 140.967 364.174 140.642 363.874 140.425C363.574 140.192 363.191 140.075 362.724 140.075C362.041 140.075 361.499 140.25 361.099 140.6C360.699 140.95 360.416 141.458 360.249 142.125C360.083 142.792 359.999 143.608 359.999 144.575V151H356.274V137.35H359.124L359.624 139.1H359.824C360.108 138.633 360.458 138.258 360.874 137.975C361.291 137.675 361.749 137.458 362.249 137.325C362.766 137.175 363.283 137.1 363.799 137.1C364.799 137.1 365.649 137.267 366.349 137.6C367.049 137.917 367.583 138.417 367.949 139.1H368.274C368.691 138.4 369.266 137.892 369.999 137.575C370.749 137.258 371.516 137.1 372.299 137.1ZM388.585 137.1C390.051 137.1 391.226 137.5 392.11 138.3C392.993 139.083 393.435 140.35 393.435 142.1V151H389.71V143.025C389.71 142.042 389.535 141.308 389.185 140.825C388.835 140.325 388.276 140.075 387.51 140.075C386.376 140.075 385.601 140.467 385.185 141.25C384.768 142.017 384.56 143.125 384.56 144.575V151H380.835V137.35H383.685L384.185 139.1H384.385C384.685 138.633 385.051 138.258 385.485 137.975C385.918 137.675 386.401 137.458 386.935 137.325C387.468 137.175 388.018 137.1 388.585 137.1ZM402.865 137.075C404.699 137.075 406.099 137.475 407.065 138.275C408.049 139.058 408.54 140.267 408.54 141.9V151H405.94L405.215 149.15H405.115C404.732 149.633 404.332 150.033 403.915 150.35C403.515 150.667 403.049 150.892 402.515 151.025C401.999 151.175 401.357 151.25 400.59 151.25C399.79 151.25 399.065 151.1 398.415 150.8C397.782 150.483 397.282 150.008 396.915 149.375C396.549 148.725 396.365 147.908 396.365 146.925C396.365 145.475 396.874 144.408 397.89 143.725C398.907 143.025 400.432 142.642 402.465 142.575L404.84 142.5V141.9C404.84 141.183 404.649 140.658 404.265 140.325C403.899 139.992 403.382 139.825 402.715 139.825C402.049 139.825 401.399 139.925 400.765 140.125C400.132 140.308 399.499 140.542 398.865 140.825L397.64 138.3C398.374 137.917 399.182 137.617 400.065 137.4C400.965 137.183 401.899 137.075 402.865 137.075ZM403.39 144.725C402.19 144.758 401.357 144.975 400.89 145.375C400.424 145.775 400.19 146.3 400.19 146.95C400.19 147.517 400.357 147.925 400.69 148.175C401.024 148.408 401.457 148.525 401.99 148.525C402.79 148.525 403.465 148.292 404.015 147.825C404.565 147.342 404.84 146.667 404.84 145.8V144.675L403.39 144.725ZM421.878 146.95C421.878 147.867 421.662 148.65 421.228 149.3C420.795 149.933 420.145 150.417 419.278 150.75C418.412 151.083 417.337 151.25 416.053 151.25C415.103 151.25 414.287 151.183 413.603 151.05C412.92 150.933 412.237 150.733 411.553 150.45V147.375C412.287 147.708 413.078 147.983 413.928 148.2C414.778 148.417 415.528 148.525 416.178 148.525C416.912 148.525 417.428 148.417 417.728 148.2C418.045 147.983 418.203 147.7 418.203 147.35C418.203 147.117 418.137 146.908 418.003 146.725C417.887 146.542 417.62 146.333 417.203 146.1C416.787 145.867 416.137 145.567 415.253 145.2C414.403 144.833 413.703 144.475 413.153 144.125C412.603 143.758 412.195 143.325 411.928 142.825C411.662 142.308 411.528 141.667 411.528 140.9C411.528 139.633 412.02 138.683 413.003 138.05C413.987 137.417 415.295 137.1 416.928 137.1C417.778 137.1 418.587 137.183 419.353 137.35C420.12 137.517 420.912 137.792 421.728 138.175L420.603 140.85C420.153 140.65 419.72 140.475 419.303 140.325C418.887 140.175 418.478 140.058 418.078 139.975C417.695 139.892 417.295 139.85 416.878 139.85C416.328 139.85 415.912 139.925 415.628 140.075C415.362 140.225 415.228 140.45 415.228 140.75C415.228 140.967 415.295 141.167 415.428 141.35C415.578 141.517 415.853 141.7 416.253 141.9C416.67 142.1 417.278 142.367 418.078 142.7C418.862 143.017 419.537 143.35 420.103 143.7C420.67 144.033 421.103 144.458 421.403 144.975C421.72 145.475 421.878 146.133 421.878 146.95ZM428.505 137.35V151H424.78V137.35H428.505ZM426.655 132C427.205 132 427.68 132.133 428.08 132.4C428.48 132.65 428.68 133.125 428.68 133.825C428.68 134.508 428.48 134.983 428.08 135.25C427.68 135.517 427.205 135.65 426.655 135.65C426.088 135.65 425.605 135.517 425.205 135.25C424.822 134.983 424.63 134.508 424.63 133.825C424.63 133.125 424.822 132.65 425.205 132.4C425.605 132.133 426.088 132 426.655 132ZM444.922 137.35V151H442.072L441.572 149.25H441.372C441.089 149.717 440.722 150.1 440.272 150.4C439.839 150.683 439.356 150.892 438.822 151.025C438.289 151.175 437.739 151.25 437.172 151.25C436.206 151.25 435.356 151.075 434.622 150.725C433.889 150.375 433.322 149.833 432.922 149.1C432.522 148.367 432.322 147.417 432.322 146.25V137.35H436.047V145.325C436.047 146.292 436.222 147.025 436.572 147.525C436.922 148.025 437.481 148.275 438.247 148.275C439.014 148.275 439.606 148.1 440.022 147.75C440.456 147.4 440.756 146.892 440.922 146.225C441.106 145.558 441.197 144.742 441.197 143.775V137.35H444.922ZM464.853 137.1C466.403 137.1 467.57 137.5 468.353 138.3C469.153 139.083 469.553 140.35 469.553 142.1V151H465.828V143.025C465.828 142.042 465.661 141.308 465.328 140.825C464.995 140.325 464.478 140.075 463.778 140.075C462.795 140.075 462.095 140.425 461.678 141.125C461.261 141.825 461.053 142.833 461.053 144.15V151H457.328V143.025C457.328 142.375 457.253 141.833 457.103 141.4C456.953 140.967 456.728 140.642 456.428 140.425C456.128 140.192 455.745 140.075 455.278 140.075C454.595 140.075 454.053 140.25 453.653 140.6C453.253 140.95 452.97 141.458 452.803 142.125C452.636 142.792 452.553 143.608 452.553 144.575V151H448.828V137.35H451.678L452.178 139.1H452.378C452.661 138.633 453.011 138.258 453.428 137.975C453.845 137.675 454.303 137.458 454.803 137.325C455.32 137.175 455.836 137.1 456.353 137.1C457.353 137.1 458.203 137.267 458.903 137.6C459.603 137.917 460.136 138.417 460.503 139.1H460.828C461.245 138.4 461.82 137.892 462.553 137.575C463.303 137.258 464.07 137.1 464.853 137.1Z" fill="#9D9D9D"/>
<path d="M28.2692 21.2436V23H18.0769V21.2436H22.4231V7.67949L18.3718 10.141L17.4359 8.60257L22.6923 5.34615H24.5769V21.2436H28.2692ZM37.2911 5.0641C38.4022 5.0641 39.3552 5.28205 40.1501 5.71795C40.945 6.1453 41.5518 6.73077 41.9706 7.47436C42.398 8.21795 42.6116 9.05556 42.6116 9.98718C42.6116 10.7991 42.4706 11.594 42.1886 12.3718C41.9065 13.141 41.4535 13.953 40.8296 14.8077C40.2142 15.6538 39.4022 16.594 38.3937 17.6282C37.3851 18.6624 36.1544 19.8419 34.7014 21.1667H43.0219L42.7527 23H32.2527V21.2436C33.9193 19.6453 35.2783 18.2949 36.3296 17.1923C37.3894 16.0897 38.2099 15.141 38.7911 14.3462C39.3723 13.5427 39.774 12.8077 39.9962 12.141C40.227 11.4744 40.3424 10.7821 40.3424 10.0641C40.3424 9.07265 40.0646 8.2906 39.5091 7.71795C38.9535 7.1453 38.18 6.85897 37.1886 6.85897C36.3168 6.85897 35.6031 7.00855 35.0475 7.30769C34.492 7.60684 33.9364 8.08547 33.3809 8.74359L31.8937 7.58974C32.5945 6.73504 33.368 6.10256 34.2142 5.69231C35.0689 5.2735 36.0945 5.0641 37.2911 5.0641ZM48.8515 25.641L47.1079 24.8718L58.0822 2.24359L59.8002 3.08974L48.8515 25.641ZM68.0528 5.0641C69.1639 5.0641 70.1169 5.28205 70.9118 5.71795C71.7067 6.1453 72.3135 6.73077 72.7323 7.47436C73.1597 8.21795 73.3733 9.05556 73.3733 9.98718C73.3733 10.7991 73.2323 11.594 72.9503 12.3718C72.6682 13.141 72.2152 13.953 71.5913 14.8077C70.9759 15.6538 70.1639 16.594 69.1554 17.6282C68.1469 18.6624 66.9161 19.8419 65.4631 21.1667H73.7836L73.5144 23H63.0144V21.2436C64.681 19.6453 66.04 18.2949 67.0913 17.1923C68.1511 16.0897 68.9716 15.141 69.5528 14.3462C70.134 13.5427 70.5357 12.8077 70.758 12.141C70.9887 11.4744 71.1041 10.7821 71.1041 10.0641C71.1041 9.07265 70.8263 8.2906 70.2708 7.71795C69.7152 7.1453 68.9417 6.85897 67.9503 6.85897C67.0785 6.85897 66.3648 7.00855 65.8092 7.30769C65.2537 7.60684 64.6981 8.08547 64.1426 8.74359L62.6554 7.58974C63.3563 6.73504 64.1298 6.10256 64.9759 5.69231C65.8306 5.2735 66.8563 5.0641 68.0528 5.0641ZM84.2157 5.0641C86.1132 5.0641 87.5491 5.85043 88.5234 7.42308C89.5063 8.99573 89.9978 11.2436 89.9978 14.1667C89.9978 17.0983 89.5063 19.3547 88.5234 20.9359C87.5491 22.5085 86.1132 23.2949 84.2157 23.2949C82.3183 23.2949 80.8781 22.5085 79.8952 20.9359C78.9209 19.3547 78.4337 17.0983 78.4337 14.1667C78.4337 11.2436 78.9209 8.99573 79.8952 7.42308C80.8781 5.85043 82.3183 5.0641 84.2157 5.0641ZM84.2157 6.79487C83.1303 6.79487 82.2756 7.3718 81.6516 8.52564C81.0277 9.67094 80.7157 11.5513 80.7157 14.1667C80.7157 16.1239 80.8653 17.6624 81.1645 18.7821L86.5619 7.9359C86.0234 7.17521 85.2414 6.79487 84.2157 6.79487ZM87.7286 14.1667C87.7286 12.1923 87.5747 10.6496 87.267 9.53846L81.8952 20.4231C82.4337 21.1752 83.2072 21.5513 84.2157 21.5513C85.3098 21.5513 86.1687 20.9744 86.7927 19.8205C87.4166 18.6667 87.7286 16.7821 87.7286 14.1667ZM98.8146 5.0641C99.9257 5.0641 100.879 5.28205 101.674 5.71795C102.468 6.1453 103.075 6.73077 103.494 7.47436C103.921 8.21795 104.135 9.05556 104.135 9.98718C104.135 10.7991 103.994 11.594 103.712 12.3718C103.43 13.141 102.977 13.953 102.353 14.8077C101.738 15.6538 100.926 16.594 99.9171 17.6282C98.9086 18.6624 97.6778 19.8419 96.2248 21.1667H104.545L104.276 23H93.7761V21.2436C95.4428 19.6453 96.8017 18.2949 97.853 17.1923C98.9128 16.0897 99.7334 15.141 100.315 14.3462C100.896 13.5427 101.297 12.8077 101.52 12.141C101.75 11.4744 101.866 10.7821 101.866 10.0641C101.866 9.07265 101.588 8.2906 101.033 7.71795C100.477 7.1453 99.7034 6.85897 98.712 6.85897C97.8402 6.85897 97.1265 7.00855 96.571 7.30769C96.0154 7.60684 95.4599 8.08547 94.9043 8.74359L93.4171 7.58974C94.118 6.73504 94.8915 6.10256 95.7376 5.69231C96.5923 5.2735 97.618 5.0641 98.8146 5.0641ZM114.977 5.0641C116.875 5.0641 118.311 5.85043 119.285 7.42308C120.268 8.99573 120.76 11.2436 120.76 14.1667C120.76 17.0983 120.268 19.3547 119.285 20.9359C118.311 22.5085 116.875 23.2949 114.977 23.2949C113.08 23.2949 111.64 22.5085 110.657 20.9359C109.683 19.3547 109.195 17.0983 109.195 14.1667C109.195 11.2436 109.683 8.99573 110.657 7.42308C111.64 5.85043 113.08 5.0641 114.977 5.0641ZM114.977 6.79487C113.892 6.79487 113.037 7.3718 112.413 8.52564C111.789 9.67094 111.477 11.5513 111.477 14.1667C111.477 16.1239 111.627 17.6624 111.926 18.7821L117.324 7.9359C116.785 7.17521 116.003 6.79487 114.977 6.79487ZM118.49 14.1667C118.49 12.1923 118.336 10.6496 118.029 9.53846L112.657 20.4231C113.195 21.1752 113.969 21.5513 114.977 21.5513C116.071 21.5513 116.93 20.9744 117.554 19.8205C118.178 18.6667 118.49 16.7821 118.49 14.1667ZM140.598 15.9103V14.0385H150.88V15.9103H140.598ZM179.834 23V14.6282H173.168V23H170.95V5.34615H173.168V12.8077H179.834V5.34615H182.052V23H179.834ZM189.638 7.16667V13.1154H196.177V14.9487H189.638V21.2179H197.664V23H187.407V5.34615H197.433L197.177 7.16667H189.638ZM213.096 5.34615V17.2821C213.096 18.4701 212.857 19.5171 212.378 20.4231C211.899 21.3291 211.22 22.0342 210.34 22.5385C209.459 23.0427 208.425 23.2949 207.237 23.2949C206.023 23.2949 204.981 23.0427 204.109 22.5385C203.246 22.0256 202.583 21.3205 202.122 20.4231C201.66 19.5171 201.429 18.4701 201.429 17.2821V5.34615H203.634V17.359C203.634 18.7009 203.946 19.7051 204.57 20.3718C205.203 21.0385 206.092 21.3718 207.237 21.3718C208.391 21.3718 209.28 21.0385 209.904 20.3718C210.536 19.7051 210.852 18.7009 210.852 17.359V5.34615H213.096ZM223.708 7.25641V23H221.49V7.25641H215.977V5.34615H229.297L229.067 7.25641H223.708ZM235.781 7.16667V13.1154H242.319V14.9487H235.781V21.2179H243.806V23H233.55V5.34615H243.576L243.319 7.16667H235.781Z" fill="white"/>
<path d="M329.692 5.0641C331.59 5.0641 333.026 5.85043 334 7.42308C334.983 8.99573 335.474 11.2436 335.474 14.1667C335.474 17.0983 334.983 19.3547 334 20.9359C333.026 22.5085 331.59 23.2949 329.692 23.2949C327.795 23.2949 326.355 22.5085 325.372 20.9359C324.397 19.3547 323.91 17.0983 323.91 14.1667C323.91 11.2436 324.397 8.99573 325.372 7.42308C326.355 5.85043 327.795 5.0641 329.692 5.0641ZM329.692 6.79487C328.607 6.79487 327.752 7.3718 327.128 8.52564C326.504 9.67094 326.192 11.5513 326.192 14.1667C326.192 16.1239 326.342 17.6624 326.641 18.7821L332.038 7.9359C331.5 7.17521 330.718 6.79487 329.692 6.79487ZM333.205 14.1667C333.205 12.1923 333.051 10.6496 332.744 9.53846L327.372 20.4231C327.91 21.1752 328.684 21.5513 329.692 21.5513C330.786 21.5513 331.645 20.9744 332.269 19.8205C332.893 18.6667 333.205 16.7821 333.205 14.1667ZM344.804 5.08974C346.727 5.08974 348.167 5.73932 349.124 7.03846C350.082 8.33761 350.56 10.094 350.56 12.3077C350.56 14.094 350.377 15.6026 350.009 16.8333C349.65 18.0641 349.09 19.094 348.33 19.9231C347.569 20.7521 346.595 21.4487 345.407 22.0128C344.218 22.5769 342.8 23.0855 341.15 23.5385L340.65 21.8974C342.283 21.4444 343.646 20.906 344.74 20.2821C345.842 19.6581 346.684 18.8761 347.265 17.9359C347.847 16.9872 348.18 15.8162 348.265 14.4231C347.753 15.047 347.159 15.5556 346.483 15.9487C345.808 16.3333 345.026 16.5256 344.137 16.5256C343.154 16.5256 342.283 16.3034 341.522 15.859C340.77 15.406 340.176 14.7607 339.74 13.9231C339.304 13.0769 339.086 12.0641 339.086 10.8846C339.086 9.62821 339.342 8.56838 339.855 7.70513C340.368 6.84188 341.056 6.19231 341.919 5.75641C342.783 5.31197 343.744 5.08974 344.804 5.08974ZM341.317 10.9615C341.317 12.312 341.599 13.2906 342.163 13.8974C342.736 14.5043 343.526 14.8077 344.535 14.8077C345.33 14.8077 346.026 14.6026 346.624 14.1923C347.231 13.7821 347.795 13.2222 348.317 12.5128C348.291 10.4359 347.992 8.97009 347.419 8.11539C346.847 7.26068 345.975 6.83333 344.804 6.83333C342.479 6.83333 341.317 8.2094 341.317 10.9615ZM355.851 25.641L354.108 24.8718L365.082 2.24359L366.8 3.08974L355.851 25.641ZM375.053 5.0641C376.164 5.0641 377.117 5.28205 377.912 5.71795C378.707 6.1453 379.314 6.73077 379.732 7.47436C380.16 8.21795 380.373 9.05556 380.373 9.98718C380.373 10.7991 380.232 11.594 379.95 12.3718C379.668 13.141 379.215 13.953 378.591 14.8077C377.976 15.6538 377.164 16.594 376.155 17.6282C375.147 18.6624 373.916 19.8419 372.463 21.1667H380.784L380.514 23H370.014V21.2436C371.681 19.6453 373.04 18.2949 374.091 17.1923C375.151 16.0897 375.972 15.141 376.553 14.3462C377.134 13.5427 377.536 12.8077 377.758 12.141C377.989 11.4744 378.104 10.7821 378.104 10.0641C378.104 9.07265 377.826 8.2906 377.271 7.71795C376.715 7.1453 375.942 6.85897 374.95 6.85897C374.078 6.85897 373.365 7.00855 372.809 7.30769C372.254 7.60684 371.698 8.08547 371.143 8.74359L369.655 7.58974C370.356 6.73504 371.13 6.10256 371.976 5.69231C372.831 5.2735 373.856 5.0641 375.053 5.0641ZM391.216 5.0641C393.113 5.0641 394.549 5.85043 395.523 7.42308C396.506 8.99573 396.998 11.2436 396.998 14.1667C396.998 17.0983 396.506 19.3547 395.523 20.9359C394.549 22.5085 393.113 23.2949 391.216 23.2949C389.318 23.2949 387.878 22.5085 386.895 20.9359C385.921 19.3547 385.434 17.0983 385.434 14.1667C385.434 11.2436 385.921 8.99573 386.895 7.42308C387.878 5.85043 389.318 5.0641 391.216 5.0641ZM391.216 6.79487C390.13 6.79487 389.276 7.3718 388.652 8.52564C388.028 9.67094 387.716 11.5513 387.716 14.1667C387.716 16.1239 387.865 17.6624 388.164 18.7821L393.562 7.9359C393.023 7.17521 392.241 6.79487 391.216 6.79487ZM394.729 14.1667C394.729 12.1923 394.575 10.6496 394.267 9.53846L388.895 20.4231C389.434 21.1752 390.207 21.5513 391.216 21.5513C392.31 21.5513 393.169 20.9744 393.793 19.8205C394.417 18.6667 394.729 16.7821 394.729 14.1667ZM412.174 21.2436V23H401.981V21.2436H406.327V7.67949L402.276 10.141L401.34 8.60257L406.597 5.34615H408.481V21.2436H412.174ZM425.554 11.9744V16.9872H427.836V18.7051H425.554V23H423.477L423.465 18.7051H416.131V17.141L421.311 5.0641L423.106 5.82051L418.413 16.9872H423.477L423.76 11.9744H425.554ZM447.598 15.9103V14.0385H457.88V15.9103H447.598ZM483.501 5.0641C485.398 5.0641 486.834 5.85043 487.809 7.42308C488.791 8.99573 489.283 11.2436 489.283 14.1667C489.283 17.0983 488.791 19.3547 487.809 20.9359C486.834 22.5085 485.398 23.2949 483.501 23.2949C481.603 23.2949 480.163 22.5085 479.18 20.9359C478.206 19.3547 477.719 17.0983 477.719 14.1667C477.719 11.2436 478.206 8.99573 479.18 7.42308C480.163 5.85043 481.603 5.0641 483.501 5.0641ZM483.501 6.79487C482.415 6.79487 481.561 7.3718 480.937 8.52564C480.313 9.67094 480.001 11.5513 480.001 14.1667C480.001 16.1239 480.15 17.6624 480.45 18.7821L485.847 7.9359C485.309 7.17521 484.527 6.79487 483.501 6.79487ZM487.014 14.1667C487.014 12.1923 486.86 10.6496 486.552 9.53846L481.18 20.4231C481.719 21.1752 482.492 21.5513 483.501 21.5513C484.595 21.5513 485.454 20.9744 486.078 19.8205C486.702 18.6667 487.014 16.7821 487.014 14.1667ZM497.1 23.2436L495.087 22.6282L501.972 7.14103H493.689V5.34615H504.138V7L497.1 23.2436ZM509.66 25.641L507.916 24.8718L518.891 2.24359L520.609 3.08974L509.66 25.641ZM528.861 5.0641C529.973 5.0641 530.926 5.28205 531.72 5.71795C532.515 6.1453 533.122 6.73077 533.541 7.47436C533.968 8.21795 534.182 9.05556 534.182 9.98718C534.182 10.7991 534.041 11.594 533.759 12.3718C533.477 13.141 533.024 13.953 532.4 14.8077C531.785 15.6538 530.973 16.594 529.964 17.6282C528.955 18.6624 527.725 19.8419 526.272 21.1667H534.592L534.323 23H523.823V21.2436C525.49 19.6453 526.849 18.2949 527.9 17.1923C528.96 16.0897 529.78 15.141 530.361 14.3462C530.943 13.5427 531.344 12.8077 531.567 12.141C531.797 11.4744 531.913 10.7821 531.913 10.0641C531.913 9.07265 531.635 8.2906 531.079 7.71795C530.524 7.1453 529.75 6.85897 528.759 6.85897C527.887 6.85897 527.173 7.00855 526.618 7.30769C526.062 7.60684 525.507 8.08547 524.951 8.74359L523.464 7.58974C524.165 6.73504 524.938 6.10256 525.785 5.69231C526.639 5.2735 527.665 5.0641 528.861 5.0641ZM545.024 5.0641C546.922 5.0641 548.358 5.85043 549.332 7.42308C550.315 8.99573 550.806 11.2436 550.806 14.1667C550.806 17.0983 550.315 19.3547 549.332 20.9359C548.358 22.5085 546.922 23.2949 545.024 23.2949C543.127 23.2949 541.687 22.5085 540.704 20.9359C539.729 19.3547 539.242 17.0983 539.242 14.1667C539.242 11.2436 539.729 8.99573 540.704 7.42308C541.687 5.85043 543.127 5.0641 545.024 5.0641ZM545.024 6.79487C543.939 6.79487 543.084 7.3718 542.46 8.52564C541.836 9.67094 541.524 11.5513 541.524 14.1667C541.524 16.1239 541.674 17.6624 541.973 18.7821L547.37 7.9359C546.832 7.17521 546.05 6.79487 545.024 6.79487ZM548.537 14.1667C548.537 12.1923 548.383 10.6496 548.076 9.53846L542.704 20.4231C543.242 21.1752 544.016 21.5513 545.024 21.5513C546.118 21.5513 546.977 20.9744 547.601 19.8205C548.225 18.6667 548.537 16.7821 548.537 14.1667ZM565.982 21.2436V23H555.79V21.2436H560.136V7.67949L556.085 10.141L555.149 8.60257L560.405 5.34615H562.29V21.2436H565.982ZM574.004 23.2436L571.991 22.6282L578.876 7.14103H570.594V5.34615H581.042V7L574.004 23.2436Z" fill="white"/>
<circle cx="15" cy="230" r="15" fill="#2F27CE"/>
<circle cx="322" cy="230" r="15" fill="#2F27CE"/>
</svg>
