<svg width="299" height="476" viewBox="0 0 299 476" fill="none" xmlns="http://www.w3.org/2000/svg">
<path d="M15.0001 5L15 471" stroke="#DEDCFF" stroke-width="10" stroke-linecap="round"/>
<path d="M50.175 91L48.875 86.75H42.375L41.075 91H37L43.3 73.075H47.925L54.25 91H50.175ZM46.675 79.425C46.5917 79.1417 46.4833 78.7833 46.35 78.35C46.2167 77.9167 46.0833 77.475 45.95 77.025C45.8167 76.575 45.7083 76.1833 45.625 75.85C45.5417 76.1833 45.425 76.6 45.275 77.1C45.1417 77.5833 45.0083 78.05 44.875 78.5C44.7583 78.9333 44.6667 79.2417 44.6 79.425L43.325 83.575H47.975L46.675 79.425ZM68.9857 77.35V91H66.1357L65.6357 89.25H65.4357C65.1524 89.7167 64.7857 90.1 64.3357 90.4C63.9024 90.6833 63.4191 90.8917 62.8857 91.025C62.3524 91.175 61.8024 91.25 61.2357 91.25C60.2691 91.25 59.4191 91.075 58.6857 90.725C57.9524 90.375 57.3857 89.8333 56.9857 89.1C56.5857 88.3667 56.3857 87.4167 56.3857 86.25V77.35H60.1107V85.325C60.1107 86.2917 60.2857 87.025 60.6357 87.525C60.9857 88.025 61.5441 88.275 62.3107 88.275C63.0774 88.275 63.6691 88.1 64.0857 87.75C64.5191 87.4 64.8191 86.8917 64.9857 86.225C65.1691 85.5583 65.2607 84.7417 65.2607 83.775V77.35H68.9857ZM82.6664 86.95C82.6664 87.8667 82.4497 88.65 82.0164 89.3C81.5831 89.9333 80.9331 90.4167 80.0664 90.75C79.1997 91.0833 78.1247 91.25 76.8414 91.25C75.8914 91.25 75.0747 91.1833 74.3914 91.05C73.7081 90.9333 73.0247 90.7333 72.3414 90.45V87.375C73.0747 87.7083 73.8664 87.9833 74.7164 88.2C75.5664 88.4167 76.3164 88.525 76.9664 88.525C77.6997 88.525 78.2164 88.4167 78.5164 88.2C78.8331 87.9833 78.9914 87.7 78.9914 87.35C78.9914 87.1167 78.9247 86.9083 78.7914 86.725C78.6747 86.5417 78.4081 86.3333 77.9914 86.1C77.5747 85.8667 76.9247 85.5667 76.0414 85.2C75.1914 84.8333 74.4914 84.475 73.9414 84.125C73.3914 83.7583 72.9831 83.325 72.7164 82.825C72.4497 82.3083 72.3164 81.6667 72.3164 80.9C72.3164 79.6333 72.8081 78.6833 73.7914 78.05C74.7747 77.4167 76.0831 77.1 77.7164 77.1C78.5664 77.1 79.3747 77.1833 80.1414 77.35C80.9081 77.5167 81.6997 77.7917 82.5164 78.175L81.3914 80.85C80.9414 80.65 80.5081 80.475 80.0914 80.325C79.6747 80.175 79.2664 80.0583 78.8664 79.975C78.4831 79.8917 78.0831 79.85 77.6664 79.85C77.1164 79.85 76.6997 79.925 76.4164 80.075C76.1497 80.225 76.0164 80.45 76.0164 80.75C76.0164 80.9667 76.0831 81.1667 76.2164 81.35C76.3664 81.5167 76.6414 81.7 77.0414 81.9C77.4581 82.1 78.0664 82.3667 78.8664 82.7C79.6497 83.0167 80.3247 83.35 80.8914 83.7C81.4581 84.0333 81.8914 84.4583 82.1914 84.975C82.5081 85.475 82.6664 86.1333 82.6664 86.95ZM89.5432 76.425C89.5432 76.9417 89.5265 77.45 89.4932 77.95C89.4598 78.45 89.4265 78.8417 89.3932 79.125H89.5432C89.9098 78.5583 90.4015 78.0833 91.0182 77.7C91.6348 77.3 92.4348 77.1 93.4182 77.1C94.9515 77.1 96.1932 77.7 97.1432 78.9C98.0932 80.0833 98.5682 81.8333 98.5682 84.15C98.5682 85.7 98.3432 87.0083 97.8932 88.075C97.4598 89.125 96.8515 89.9167 96.0682 90.45C95.2848 90.9833 94.3682 91.25 93.3182 91.25C92.3182 91.25 91.5265 91.075 90.9432 90.725C90.3765 90.3583 89.9098 89.95 89.5432 89.5H89.2932L88.6682 91H85.8182V72H89.5432V76.425ZM92.2182 80.075C91.5682 80.075 91.0515 80.2083 90.6682 80.475C90.2848 80.7417 90.0015 81.15 89.8182 81.7C89.6515 82.2333 89.5598 82.9083 89.5432 83.725V84.125C89.5432 85.4417 89.7348 86.4583 90.1182 87.175C90.5182 87.875 91.2348 88.225 92.2682 88.225C93.0348 88.225 93.6432 87.875 94.0932 87.175C94.5432 86.4583 94.7682 85.4333 94.7682 84.1C94.7682 82.7667 94.5348 81.7667 94.0682 81.1C93.6182 80.4167 93.0015 80.075 92.2182 80.075ZM105.613 77.35V91H101.888V77.35H105.613ZM103.763 72C104.313 72 104.788 72.1333 105.188 72.4C105.588 72.65 105.788 73.125 105.788 73.825C105.788 74.5083 105.588 74.9833 105.188 75.25C104.788 75.5167 104.313 75.65 103.763 75.65C103.197 75.65 102.713 75.5167 102.313 75.25C101.93 74.9833 101.738 74.5083 101.738 73.825C101.738 73.125 101.93 72.65 102.313 72.4C102.713 72.1333 103.197 72 103.763 72ZM113.481 91H109.756V72H113.481V91ZM121.948 91.25C120.431 91.25 119.19 90.6583 118.223 89.475C117.273 88.275 116.798 86.5167 116.798 84.2C116.798 81.8667 117.281 80.1 118.248 78.9C119.215 77.7 120.481 77.1 122.048 77.1C122.698 77.1 123.273 77.1917 123.773 77.375C124.273 77.5417 124.698 77.775 125.048 78.075C125.415 78.375 125.723 78.7167 125.973 79.1H126.098C126.048 78.8333 125.99 78.45 125.923 77.95C125.856 77.4333 125.823 76.9083 125.823 76.375V72H129.548V91H126.698L125.973 89.225H125.823C125.59 89.5917 125.29 89.9333 124.923 90.25C124.573 90.55 124.156 90.7917 123.673 90.975C123.19 91.1583 122.615 91.25 121.948 91.25ZM123.248 88.275C124.281 88.275 125.006 87.975 125.423 87.375C125.84 86.7583 126.056 85.8417 126.073 84.625V84.225C126.073 82.8917 125.865 81.875 125.448 81.175C125.048 80.475 124.298 80.125 123.198 80.125C122.381 80.125 121.74 80.4833 121.273 81.2C120.806 81.9 120.573 82.9167 120.573 84.25C120.573 85.5833 120.806 86.5917 121.273 87.275C121.74 87.9417 122.398 88.275 123.248 88.275ZM146.218 77.35V91H143.368L142.868 89.25H142.668C142.385 89.7167 142.018 90.1 141.568 90.4C141.135 90.6833 140.651 90.8917 140.118 91.025C139.585 91.175 139.035 91.25 138.468 91.25C137.501 91.25 136.651 91.075 135.918 90.725C135.185 90.375 134.618 89.8333 134.218 89.1C133.818 88.3667 133.618 87.4167 133.618 86.25V77.35H137.343V85.325C137.343 86.2917 137.518 87.025 137.868 87.525C138.218 88.025 138.776 88.275 139.543 88.275C140.31 88.275 140.901 88.1 141.318 87.75C141.751 87.4 142.051 86.8917 142.218 86.225C142.401 85.5583 142.493 84.7417 142.493 83.775V77.35H146.218ZM158.124 77.1C159.59 77.1 160.765 77.5 161.649 78.3C162.532 79.0833 162.974 80.35 162.974 82.1V91H159.249V83.025C159.249 82.0417 159.074 81.3083 158.724 80.825C158.374 80.325 157.815 80.075 157.049 80.075C155.915 80.075 155.14 80.4667 154.724 81.25C154.307 82.0167 154.099 83.125 154.099 84.575V91H150.374V77.35H153.224L153.724 79.1H153.924C154.224 78.6333 154.59 78.2583 155.024 77.975C155.457 77.675 155.94 77.4583 156.474 77.325C157.007 77.175 157.557 77.1 158.124 77.1ZM171.479 77.1C172.313 77.1 173.063 77.2667 173.729 77.6C174.396 77.9333 174.963 78.4333 175.429 79.1H175.529L175.829 77.35H178.979V91.025C178.979 92.325 178.721 93.4167 178.204 94.3C177.704 95.1833 176.946 95.85 175.929 96.3C174.913 96.7667 173.654 97 172.154 97C171.188 97 170.288 96.9417 169.454 96.825C168.638 96.7083 167.838 96.5 167.054 96.2V93.225C167.621 93.4583 168.188 93.65 168.754 93.8C169.338 93.9667 169.929 94.0833 170.529 94.15C171.146 94.2333 171.763 94.275 172.379 94.275C173.346 94.275 174.063 94.0167 174.529 93.5C175.013 92.9833 175.254 92.2083 175.254 91.175V90.9C175.254 90.6167 175.263 90.325 175.279 90.025C175.313 89.725 175.338 89.4583 175.354 89.225H175.254C174.788 89.9417 174.229 90.4583 173.579 90.775C172.929 91.0917 172.196 91.25 171.379 91.25C169.763 91.25 168.496 90.6333 167.579 89.4C166.679 88.15 166.229 86.4167 166.229 84.2C166.229 82.7 166.438 81.425 166.854 80.375C167.271 79.3083 167.871 78.5 168.654 77.95C169.454 77.3833 170.396 77.1 171.479 77.1ZM172.654 80.125C172.071 80.125 171.579 80.2833 171.179 80.6C170.796 80.9 170.504 81.3583 170.304 81.975C170.121 82.575 170.029 83.3333 170.029 84.25C170.029 85.6167 170.246 86.6417 170.679 87.325C171.113 87.9917 171.788 88.325 172.704 88.325C173.188 88.325 173.604 88.2667 173.954 88.15C174.304 88.0167 174.588 87.8083 174.804 87.525C175.038 87.225 175.213 86.8417 175.329 86.375C175.446 85.9083 175.504 85.3417 175.504 84.675V84.225C175.504 83.2417 175.404 82.45 175.204 81.85C175.004 81.25 174.696 80.8167 174.279 80.55C173.863 80.2667 173.321 80.125 172.654 80.125ZM199.369 91H188.594V88.8L194.919 80.2H188.969V77.35H199.144V79.775L192.994 88.15H199.369V91ZM214.851 77.35V91H212.001L211.501 89.25H211.301C211.018 89.7167 210.651 90.1 210.201 90.4C209.768 90.6833 209.284 90.8917 208.751 91.025C208.218 91.175 207.668 91.25 207.101 91.25C206.134 91.25 205.284 91.075 204.551 90.725C203.818 90.375 203.251 89.8333 202.851 89.1C202.451 88.3667 202.251 87.4167 202.251 86.25V77.35H205.976V85.325C205.976 86.2917 206.151 87.025 206.501 87.525C206.851 88.025 207.409 88.275 208.176 88.275C208.943 88.275 209.534 88.1 209.951 87.75C210.384 87.4 210.684 86.8917 210.851 86.225C211.034 85.5583 211.126 84.7417 211.126 83.775V77.35H214.851ZM235.032 77.1C236.582 77.1 237.748 77.5 238.532 78.3C239.332 79.0833 239.732 80.35 239.732 82.1V91H236.007V83.025C236.007 82.0417 235.84 81.3083 235.507 80.825C235.173 80.325 234.657 80.075 233.957 80.075C232.973 80.075 232.273 80.425 231.857 81.125C231.44 81.825 231.232 82.8333 231.232 84.15V91H227.507V83.025C227.507 82.375 227.432 81.8333 227.282 81.4C227.132 80.9667 226.907 80.6417 226.607 80.425C226.307 80.1917 225.923 80.075 225.457 80.075C224.773 80.075 224.232 80.25 223.832 80.6C223.432 80.95 223.148 81.4583 222.982 82.125C222.815 82.7917 222.732 83.6083 222.732 84.575V91H219.007V77.35H221.857L222.357 79.1H222.557C222.84 78.6333 223.19 78.2583 223.607 77.975C224.023 77.675 224.482 77.4583 224.982 77.325C225.498 77.175 226.015 77.1 226.532 77.1C227.532 77.1 228.382 77.2667 229.082 77.6C229.782 77.9167 230.315 78.4167 230.682 79.1H231.007C231.423 78.4 231.998 77.8917 232.732 77.575C233.482 77.2583 234.248 77.1 235.032 77.1ZM42.975 119H39.25V101.15H49.475V104.25H42.975V108.85H49.025V111.95H42.975V119ZM58.5207 105.075C60.354 105.075 61.754 105.475 62.7207 106.275C63.704 107.058 64.1957 108.267 64.1957 109.9V119H61.5957L60.8707 117.15H60.7707C60.3874 117.633 59.9874 118.033 59.5707 118.35C59.1707 118.667 58.704 118.892 58.1707 119.025C57.654 119.175 57.0124 119.25 56.2457 119.25C55.4457 119.25 54.7207 119.1 54.0707 118.8C53.4374 118.483 52.9374 118.008 52.5707 117.375C52.204 116.725 52.0207 115.908 52.0207 114.925C52.0207 113.475 52.529 112.408 53.5457 111.725C54.5624 111.025 56.0874 110.642 58.1207 110.575L60.4957 110.5V109.9C60.4957 109.183 60.304 108.658 59.9207 108.325C59.554 107.992 59.0374 107.825 58.3707 107.825C57.704 107.825 57.054 107.925 56.4207 108.125C55.7874 108.308 55.154 108.542 54.5207 108.825L53.2957 106.3C54.029 105.917 54.8374 105.617 55.7207 105.4C56.6207 105.183 57.554 105.075 58.5207 105.075ZM59.0457 112.725C57.8457 112.758 57.0124 112.975 56.5457 113.375C56.079 113.775 55.8457 114.3 55.8457 114.95C55.8457 115.517 56.0124 115.925 56.3457 116.175C56.679 116.408 57.1124 116.525 57.6457 116.525C58.4457 116.525 59.1207 116.292 59.6707 115.825C60.2207 115.342 60.4957 114.667 60.4957 113.8V112.675L59.0457 112.725ZM73.8086 119.25C72.4586 119.25 71.3086 119.008 70.3586 118.525C69.4086 118.025 68.6836 117.258 68.1836 116.225C67.6836 115.192 67.4336 113.867 67.4336 112.25C67.4336 110.583 67.7169 109.225 68.2836 108.175C68.8503 107.125 69.6336 106.35 70.6336 105.85C71.6503 105.35 72.8169 105.1 74.1336 105.1C75.0669 105.1 75.8753 105.192 76.5586 105.375C77.2586 105.558 77.8669 105.775 78.3836 106.025L77.2836 108.9C76.7003 108.667 76.1503 108.475 75.6336 108.325C75.1336 108.175 74.6336 108.1 74.1336 108.1C73.4836 108.1 72.9419 108.258 72.5086 108.575C72.0753 108.875 71.7503 109.333 71.5336 109.95C71.3336 110.55 71.2336 111.308 71.2336 112.225C71.2336 113.125 71.3419 113.875 71.5586 114.475C71.7919 115.058 72.1253 115.5 72.5586 115.8C72.9919 116.083 73.5169 116.225 74.1336 116.225C74.9169 116.225 75.6086 116.125 76.2086 115.925C76.8086 115.708 77.3919 115.417 77.9586 115.05V118.225C77.3919 118.592 76.7919 118.85 76.1586 119C75.5419 119.167 74.7586 119.25 73.8086 119.25ZM85.0754 103.875C85.0754 104.542 85.0504 105.183 85.0004 105.8C84.9671 106.417 84.9337 106.85 84.9004 107.1H85.1004C85.4004 106.633 85.7504 106.258 86.1504 105.975C86.5504 105.675 86.9921 105.458 87.4754 105.325C87.9754 105.175 88.5004 105.1 89.0504 105.1C90.0337 105.1 90.8921 105.275 91.6254 105.625C92.3587 105.975 92.9254 106.517 93.3254 107.25C93.7421 107.983 93.9504 108.933 93.9504 110.1V119H90.2254V111.025C90.2254 110.042 90.0421 109.308 89.6754 108.825C89.3254 108.325 88.7754 108.075 88.0254 108.075C87.2754 108.075 86.6837 108.25 86.2504 108.6C85.8337 108.95 85.5337 109.458 85.3504 110.125C85.1671 110.792 85.0754 111.608 85.0754 112.575V119H81.3504V100H85.0754V103.875ZM101.756 105.35V119H98.0311V105.35H101.756ZM99.9061 100C100.456 100 100.931 100.133 101.331 100.4C101.731 100.65 101.931 101.125 101.931 101.825C101.931 102.508 101.731 102.983 101.331 103.25C100.931 103.517 100.456 103.65 99.9061 103.65C99.3394 103.65 98.8561 103.517 98.4561 103.25C98.0727 102.983 97.8811 102.508 97.8811 101.825C97.8811 101.125 98.0727 100.65 98.4561 100.4C98.8561 100.133 99.3394 100 99.9061 100ZM113.648 105.1C115.115 105.1 116.29 105.5 117.173 106.3C118.057 107.083 118.498 108.35 118.498 110.1V119H114.773V111.025C114.773 110.042 114.598 109.308 114.248 108.825C113.898 108.325 113.34 108.075 112.573 108.075C111.44 108.075 110.665 108.467 110.248 109.25C109.832 110.017 109.623 111.125 109.623 112.575V119H105.898V105.35H108.748L109.248 107.1H109.448C109.748 106.633 110.115 106.258 110.548 105.975C110.982 105.675 111.465 105.458 111.998 105.325C112.532 105.175 113.082 105.1 113.648 105.1ZM130.129 108.15H126.904V119H123.179V108.15H121.129V106.35L123.179 105.35V104.35C123.179 103.183 123.371 102.283 123.754 101.65C124.154 101 124.712 100.542 125.429 100.275C126.162 100.008 127.021 99.875 128.004 99.875C128.737 99.875 129.396 99.9333 129.979 100.05C130.579 100.167 131.062 100.3 131.429 100.45L130.479 103.175C130.196 103.092 129.887 103.017 129.554 102.95C129.221 102.867 128.837 102.825 128.404 102.825C127.887 102.825 127.504 102.983 127.254 103.3C127.021 103.617 126.904 104.017 126.904 104.5V105.35H130.129V108.15ZM144.897 112.15C144.897 113.283 144.739 114.292 144.422 115.175C144.122 116.058 143.68 116.808 143.097 117.425C142.53 118.025 141.839 118.483 141.022 118.8C140.205 119.1 139.28 119.25 138.247 119.25C137.297 119.25 136.414 119.1 135.597 118.8C134.797 118.483 134.105 118.025 133.522 117.425C132.939 116.808 132.48 116.058 132.147 115.175C131.83 114.292 131.672 113.283 131.672 112.15C131.672 110.633 131.939 109.358 132.472 108.325C133.005 107.275 133.772 106.475 134.772 105.925C135.772 105.375 136.955 105.1 138.322 105.1C139.605 105.1 140.739 105.375 141.722 105.925C142.705 106.475 143.48 107.275 144.047 108.325C144.614 109.358 144.897 110.633 144.897 112.15ZM135.472 112.15C135.472 113.05 135.564 113.808 135.747 114.425C135.947 115.025 136.255 115.483 136.672 115.8C137.089 116.1 137.63 116.25 138.297 116.25C138.964 116.25 139.497 116.1 139.897 115.8C140.314 115.483 140.614 115.025 140.797 114.425C140.997 113.808 141.097 113.05 141.097 112.15C141.097 111.25 140.997 110.5 140.797 109.9C140.614 109.3 140.314 108.85 139.897 108.55C139.48 108.25 138.939 108.1 138.272 108.1C137.289 108.1 136.572 108.442 136.122 109.125C135.689 109.792 135.472 110.8 135.472 112.15ZM155.85 105.1C156.034 105.1 156.25 105.108 156.5 105.125C156.75 105.142 156.95 105.167 157.1 105.2L156.825 108.7C156.709 108.667 156.534 108.642 156.3 108.625C156.084 108.592 155.892 108.575 155.725 108.575C155.242 108.575 154.775 108.642 154.325 108.775C153.875 108.892 153.467 109.083 153.1 109.35C152.75 109.617 152.467 109.975 152.25 110.425C152.05 110.858 151.95 111.4 151.95 112.05V119H148.225V105.35H151.05L151.6 107.65H151.775C152.042 107.183 152.375 106.758 152.775 106.375C153.175 105.992 153.634 105.683 154.15 105.45C154.684 105.217 155.25 105.1 155.85 105.1ZM175.853 105.1C177.403 105.1 178.57 105.5 179.353 106.3C180.153 107.083 180.553 108.35 180.553 110.1V119H176.828V111.025C176.828 110.042 176.661 109.308 176.328 108.825C175.995 108.325 175.478 108.075 174.778 108.075C173.795 108.075 173.095 108.425 172.678 109.125C172.261 109.825 172.053 110.833 172.053 112.15V119H168.328V111.025C168.328 110.375 168.253 109.833 168.103 109.4C167.953 108.967 167.728 108.642 167.428 108.425C167.128 108.192 166.745 108.075 166.278 108.075C165.595 108.075 165.053 108.25 164.653 108.6C164.253 108.95 163.97 109.458 163.803 110.125C163.636 110.792 163.553 111.608 163.553 112.575V119H159.828V105.35H162.678L163.178 107.1H163.378C163.661 106.633 164.011 106.258 164.428 105.975C164.845 105.675 165.303 105.458 165.803 105.325C166.32 105.175 166.836 105.1 167.353 105.1C168.353 105.1 169.203 105.267 169.903 105.6C170.603 105.917 171.136 106.417 171.503 107.1H171.828C172.245 106.4 172.82 105.892 173.553 105.575C174.303 105.258 175.07 105.1 175.853 105.1ZM190.238 105.075C192.072 105.075 193.472 105.475 194.438 106.275C195.422 107.058 195.913 108.267 195.913 109.9V119H193.313L192.588 117.15H192.488C192.105 117.633 191.705 118.033 191.288 118.35C190.888 118.667 190.422 118.892 189.888 119.025C189.372 119.175 188.73 119.25 187.963 119.25C187.163 119.25 186.438 119.1 185.788 118.8C185.155 118.483 184.655 118.008 184.288 117.375C183.922 116.725 183.738 115.908 183.738 114.925C183.738 113.475 184.247 112.408 185.263 111.725C186.28 111.025 187.805 110.642 189.838 110.575L192.213 110.5V109.9C192.213 109.183 192.022 108.658 191.638 108.325C191.272 107.992 190.755 107.825 190.088 107.825C189.422 107.825 188.772 107.925 188.138 108.125C187.505 108.308 186.872 108.542 186.238 108.825L185.013 106.3C185.747 105.917 186.555 105.617 187.438 105.4C188.338 105.183 189.272 105.075 190.238 105.075ZM190.763 112.725C189.563 112.758 188.73 112.975 188.263 113.375C187.797 113.775 187.563 114.3 187.563 114.95C187.563 115.517 187.73 115.925 188.063 116.175C188.397 116.408 188.83 116.525 189.363 116.525C190.163 116.525 190.838 116.292 191.388 115.825C191.938 115.342 192.213 114.667 192.213 113.8V112.675L190.763 112.725ZM205.726 116.275C206.143 116.275 206.543 116.233 206.926 116.15C207.31 116.067 207.693 115.967 208.076 115.85V118.625C207.676 118.792 207.176 118.933 206.576 119.05C205.993 119.183 205.351 119.25 204.651 119.25C203.835 119.25 203.101 119.117 202.451 118.85C201.818 118.583 201.31 118.125 200.926 117.475C200.56 116.808 200.376 115.892 200.376 114.725V108.15H198.601V106.575L200.651 105.325L201.726 102.45H204.101V105.35H207.926V108.15H204.101V114.725C204.101 115.242 204.251 115.633 204.551 115.9C204.851 116.15 205.243 116.275 205.726 116.275ZM214.791 105.35V119H211.066V105.35H214.791ZM212.941 100C213.491 100 213.966 100.133 214.366 100.4C214.766 100.65 214.966 101.125 214.966 101.825C214.966 102.508 214.766 102.983 214.366 103.25C213.966 103.517 213.491 103.65 212.941 103.65C212.375 103.65 211.891 103.517 211.491 103.25C211.108 102.983 210.916 102.508 210.916 101.825C210.916 101.125 211.108 100.65 211.491 100.4C211.891 100.133 212.375 100 212.941 100ZM222.658 108.5C222.658 109.017 222.633 109.533 222.583 110.05C222.55 110.55 222.508 111.058 222.458 111.575H222.508C222.675 111.342 222.842 111.108 223.008 110.875C223.192 110.642 223.375 110.408 223.558 110.175C223.742 109.942 223.933 109.717 224.133 109.5L227.958 105.35H232.158L226.733 111.275L232.483 119H228.183L224.258 113.475L222.658 114.75V119H218.933V100H222.658V108.5ZM240.311 105.1C241.578 105.1 242.661 105.342 243.561 105.825C244.478 106.308 245.186 107.008 245.686 107.925C246.186 108.842 246.436 109.967 246.436 111.3V113.1H237.636C237.67 114.15 237.978 114.975 238.561 115.575C239.161 116.175 239.986 116.475 241.036 116.475C241.92 116.475 242.72 116.392 243.436 116.225C244.153 116.042 244.895 115.767 245.661 115.4V118.275C244.995 118.608 244.286 118.85 243.536 119C242.803 119.167 241.911 119.25 240.861 119.25C239.495 119.25 238.286 119 237.236 118.5C236.186 117.983 235.361 117.208 234.761 116.175C234.161 115.142 233.861 113.842 233.861 112.275C233.861 110.675 234.128 109.35 234.661 108.3C235.211 107.233 235.97 106.433 236.936 105.9C237.903 105.367 239.028 105.1 240.311 105.1ZM240.336 107.75C239.62 107.75 239.02 107.983 238.536 108.45C238.07 108.917 237.795 109.642 237.711 110.625H242.936C242.936 110.075 242.836 109.583 242.636 109.15C242.453 108.717 242.17 108.375 241.786 108.125C241.403 107.875 240.92 107.75 240.336 107.75ZM257.332 105.1C257.515 105.1 257.732 105.108 257.982 105.125C258.232 105.142 258.432 105.167 258.582 105.2L258.307 108.7C258.19 108.667 258.015 108.642 257.782 108.625C257.565 108.592 257.374 108.575 257.207 108.575C256.724 108.575 256.257 108.642 255.807 108.775C255.357 108.892 254.949 109.083 254.582 109.35C254.232 109.617 253.949 109.975 253.732 110.425C253.532 110.858 253.432 111.4 253.432 112.05V119H249.707V105.35H252.532L253.082 107.65H253.257C253.524 107.183 253.857 106.758 254.257 106.375C254.657 105.992 255.115 105.683 255.632 105.45C256.165 105.217 256.732 105.1 257.332 105.1ZM46.5 136.15H43.275V147H39.55V136.15H37.5V134.35L39.55 133.35V132.35C39.55 131.183 39.7417 130.283 40.125 129.65C40.525 129 41.0833 128.542 41.8 128.275C42.5333 128.008 43.3917 127.875 44.375 127.875C45.1083 127.875 45.7667 127.933 46.35 128.05C46.95 128.167 47.4333 128.3 47.8 128.45L46.85 131.175C46.5667 131.092 46.2583 131.017 45.925 130.95C45.5917 130.867 45.2083 130.825 44.775 130.825C44.2583 130.825 43.875 130.983 43.625 131.3C43.3917 131.617 43.275 132.017 43.275 132.5V133.35H46.5V136.15ZM61.393 133.35V147H58.543L58.043 145.25H57.843C57.5596 145.717 57.193 146.1 56.743 146.4C56.3096 146.683 55.8263 146.892 55.293 147.025C54.7596 147.175 54.2096 147.25 53.643 147.25C52.6763 147.25 51.8263 147.075 51.093 146.725C50.3596 146.375 49.793 145.833 49.393 145.1C48.993 144.367 48.793 143.417 48.793 142.25V133.35H52.518V141.325C52.518 142.292 52.693 143.025 53.043 143.525C53.393 144.025 53.9513 144.275 54.718 144.275C55.4846 144.275 56.0763 144.1 56.493 143.75C56.9263 143.4 57.2263 142.892 57.393 142.225C57.5763 141.558 57.668 140.742 57.668 139.775V133.35H61.393ZM50.943 129.85C50.943 129.267 51.1096 128.85 51.443 128.6C51.7763 128.333 52.1763 128.2 52.643 128.2C53.1096 128.2 53.5096 128.333 53.843 128.6C54.193 128.85 54.368 129.267 54.368 129.85C54.368 130.4 54.193 130.808 53.843 131.075C53.5096 131.342 53.1096 131.475 52.643 131.475C52.1763 131.475 51.7763 131.342 51.443 131.075C51.1096 130.808 50.943 130.4 50.943 129.85ZM55.868 129.85C55.868 129.267 56.0346 128.85 56.368 128.6C56.7013 128.333 57.1096 128.2 57.593 128.2C58.0596 128.2 58.4596 128.333 58.793 128.6C59.143 128.85 59.318 129.267 59.318 129.85C59.318 130.4 59.143 130.808 58.793 131.075C58.4596 131.342 58.0596 131.475 57.593 131.475C57.1263 131.475 56.718 131.342 56.368 131.075C56.0346 130.808 55.868 130.4 55.868 129.85ZM73.1736 133.1C73.357 133.1 73.5736 133.108 73.8236 133.125C74.0736 133.142 74.2736 133.167 74.4236 133.2L74.1486 136.7C74.032 136.667 73.857 136.642 73.6236 136.625C73.407 136.592 73.2153 136.575 73.0486 136.575C72.5653 136.575 72.0986 136.642 71.6486 136.775C71.1986 136.892 70.7903 137.083 70.4236 137.35C70.0736 137.617 69.7903 137.975 69.5736 138.425C69.3736 138.858 69.2736 139.4 69.2736 140.05V147H65.5486V133.35H68.3736L68.9236 135.65H69.0986C69.3653 135.183 69.6986 134.758 70.0986 134.375C70.4986 133.992 70.957 133.683 71.4736 133.45C72.007 133.217 72.5736 133.1 73.1736 133.1ZM95.1203 147L93.8203 142.75H87.3203L86.0203 147H81.9453L88.2453 129.075H92.8703L99.1953 147H95.1203ZM91.6203 135.425C91.537 135.142 91.4286 134.783 91.2953 134.35C91.162 133.917 91.0286 133.475 90.8953 133.025C90.762 132.575 90.6536 132.183 90.5703 131.85C90.487 132.183 90.3703 132.6 90.2203 133.1C90.087 133.583 89.9536 134.05 89.8203 134.5C89.7036 134.933 89.612 135.242 89.5453 135.425L88.2703 139.575H92.9203L91.6203 135.425ZM109.156 133.1C110.623 133.1 111.798 133.5 112.681 134.3C113.564 135.083 114.006 136.35 114.006 138.1V147H110.281V139.025C110.281 138.042 110.106 137.308 109.756 136.825C109.406 136.325 108.848 136.075 108.081 136.075C106.948 136.075 106.173 136.467 105.756 137.25C105.339 138.017 105.131 139.125 105.131 140.575V147H101.406V133.35H104.256L104.756 135.1H104.956C105.256 134.633 105.623 134.258 106.056 133.975C106.489 133.675 106.973 133.458 107.506 133.325C108.039 133.175 108.589 133.1 109.156 133.1ZM128.262 142.225C128.195 141.942 128.095 141.525 127.962 140.975C127.845 140.408 127.712 139.808 127.562 139.175C127.412 138.525 127.27 137.933 127.137 137.4C127.003 136.85 126.912 136.45 126.862 136.2H126.762C126.712 136.45 126.62 136.85 126.487 137.4C126.37 137.933 126.237 138.525 126.087 139.175C125.937 139.808 125.795 140.408 125.662 140.975C125.528 141.542 125.428 141.975 125.362 142.275L124.262 147H120.262L116.387 133.35H120.087L121.662 139.4C121.778 139.817 121.878 140.317 121.962 140.9C122.062 141.483 122.153 142.05 122.237 142.6C122.32 143.133 122.378 143.558 122.412 143.875H122.512C122.528 143.642 122.562 143.333 122.612 142.95C122.662 142.55 122.72 142.142 122.787 141.725C122.87 141.308 122.937 140.933 122.987 140.6C123.053 140.25 123.103 140.017 123.137 139.9L124.812 133.35H128.912L130.512 139.9C130.578 140.133 130.653 140.508 130.737 141.025C130.837 141.542 130.92 142.067 130.987 142.6C131.07 143.133 131.112 143.558 131.112 143.875H131.212C131.245 143.592 131.303 143.183 131.387 142.65C131.47 142.1 131.562 141.525 131.662 140.925C131.778 140.325 131.895 139.817 132.012 139.4L133.637 133.35H137.287L133.362 147H129.312L128.262 142.225ZM145.373 133.1C146.64 133.1 147.723 133.342 148.623 133.825C149.54 134.308 150.248 135.008 150.748 135.925C151.248 136.842 151.498 137.967 151.498 139.3V141.1H142.698C142.731 142.15 143.04 142.975 143.623 143.575C144.223 144.175 145.048 144.475 146.098 144.475C146.981 144.475 147.781 144.392 148.498 144.225C149.215 144.042 149.956 143.767 150.723 143.4V146.275C150.056 146.608 149.348 146.85 148.598 147C147.865 147.167 146.973 147.25 145.923 147.25C144.556 147.25 143.348 147 142.298 146.5C141.248 145.983 140.423 145.208 139.823 144.175C139.223 143.142 138.923 141.842 138.923 140.275C138.923 138.675 139.19 137.35 139.723 136.3C140.273 135.233 141.031 134.433 141.998 133.9C142.965 133.367 144.09 133.1 145.373 133.1ZM145.398 135.75C144.681 135.75 144.081 135.983 143.598 136.45C143.131 136.917 142.856 137.642 142.773 138.625H147.998C147.998 138.075 147.898 137.583 147.698 137.15C147.515 136.717 147.231 136.375 146.848 136.125C146.465 135.875 145.981 135.75 145.398 135.75ZM162.518 133.1C163.985 133.1 165.16 133.5 166.043 134.3C166.927 135.083 167.368 136.35 167.368 138.1V147H163.643V139.025C163.643 138.042 163.468 137.308 163.118 136.825C162.768 136.325 162.21 136.075 161.443 136.075C160.31 136.075 159.535 136.467 159.118 137.25C158.702 138.017 158.493 139.125 158.493 140.575V147H154.768V133.35H157.618L158.118 135.1H158.318C158.618 134.633 158.985 134.258 159.418 133.975C159.852 133.675 160.335 133.458 160.868 133.325C161.402 133.175 161.952 133.1 162.518 133.1ZM175.774 147.25C174.257 147.25 173.016 146.658 172.049 145.475C171.099 144.275 170.624 142.517 170.624 140.2C170.624 137.867 171.107 136.1 172.074 134.9C173.041 133.7 174.307 133.1 175.874 133.1C176.524 133.1 177.099 133.192 177.599 133.375C178.099 133.542 178.524 133.775 178.874 134.075C179.241 134.375 179.549 134.717 179.799 135.1H179.924C179.874 134.833 179.816 134.45 179.749 133.95C179.682 133.433 179.649 132.908 179.649 132.375V128H183.374V147H180.524L179.799 145.225H179.649C179.416 145.592 179.116 145.933 178.749 146.25C178.399 146.55 177.982 146.792 177.499 146.975C177.016 147.158 176.441 147.25 175.774 147.25ZM177.074 144.275C178.107 144.275 178.832 143.975 179.249 143.375C179.666 142.758 179.882 141.842 179.899 140.625V140.225C179.899 138.892 179.691 137.875 179.274 137.175C178.874 136.475 178.124 136.125 177.024 136.125C176.207 136.125 175.566 136.483 175.099 137.2C174.632 137.9 174.399 138.917 174.399 140.25C174.399 141.583 174.632 142.592 175.099 143.275C175.566 143.942 176.224 144.275 177.074 144.275ZM200.044 133.35V147H197.194L196.694 145.25H196.494C196.211 145.717 195.844 146.1 195.394 146.4C194.961 146.683 194.478 146.892 193.944 147.025C193.411 147.175 192.861 147.25 192.294 147.25C191.328 147.25 190.478 147.075 189.744 146.725C189.011 146.375 188.444 145.833 188.044 145.1C187.644 144.367 187.444 143.417 187.444 142.25V133.35H191.169V141.325C191.169 142.292 191.344 143.025 191.694 143.525C192.044 144.025 192.603 144.275 193.369 144.275C194.136 144.275 194.728 144.1 195.144 143.75C195.578 143.4 195.878 142.892 196.044 142.225C196.228 141.558 196.319 140.742 196.319 139.775V133.35H200.044ZM211.95 133.1C213.417 133.1 214.592 133.5 215.475 134.3C216.358 135.083 216.8 136.35 216.8 138.1V147H213.075V139.025C213.075 138.042 212.9 137.308 212.55 136.825C212.2 136.325 211.642 136.075 210.875 136.075C209.742 136.075 208.967 136.467 208.55 137.25C208.133 138.017 207.925 139.125 207.925 140.575V147H204.2V133.35H207.05L207.55 135.1H207.75C208.05 134.633 208.417 134.258 208.85 133.975C209.283 133.675 209.767 133.458 210.3 133.325C210.833 133.175 211.383 133.1 211.95 133.1ZM225.306 133.1C226.139 133.1 226.889 133.267 227.556 133.6C228.222 133.933 228.789 134.433 229.256 135.1H229.356L229.656 133.35H232.806V147.025C232.806 148.325 232.547 149.417 232.031 150.3C231.531 151.183 230.772 151.85 229.756 152.3C228.739 152.767 227.481 153 225.981 153C225.014 153 224.114 152.942 223.281 152.825C222.464 152.708 221.664 152.5 220.881 152.2V149.225C221.447 149.458 222.014 149.65 222.581 149.8C223.164 149.967 223.756 150.083 224.356 150.15C224.972 150.233 225.589 150.275 226.206 150.275C227.172 150.275 227.889 150.017 228.356 149.5C228.839 148.983 229.081 148.208 229.081 147.175V146.9C229.081 146.617 229.089 146.325 229.106 146.025C229.139 145.725 229.164 145.458 229.181 145.225H229.081C228.614 145.942 228.056 146.458 227.406 146.775C226.756 147.092 226.022 147.25 225.206 147.25C223.589 147.25 222.322 146.633 221.406 145.4C220.506 144.15 220.056 142.417 220.056 140.2C220.056 138.7 220.264 137.425 220.681 136.375C221.097 135.308 221.697 134.5 222.481 133.95C223.281 133.383 224.222 133.1 225.306 133.1ZM226.481 136.125C225.897 136.125 225.406 136.283 225.006 136.6C224.622 136.9 224.331 137.358 224.131 137.975C223.947 138.575 223.856 139.333 223.856 140.25C223.856 141.617 224.072 142.642 224.506 143.325C224.939 143.992 225.614 144.325 226.531 144.325C227.014 144.325 227.431 144.267 227.781 144.15C228.131 144.017 228.414 143.808 228.631 143.525C228.864 143.225 229.039 142.842 229.156 142.375C229.272 141.908 229.331 141.342 229.331 140.675V140.225C229.331 139.242 229.231 138.45 229.031 137.85C228.831 137.25 228.522 136.817 228.106 136.55C227.689 136.267 227.147 136.125 226.481 136.125ZM246.476 142.95C246.476 143.867 246.259 144.65 245.826 145.3C245.393 145.933 244.743 146.417 243.876 146.75C243.009 147.083 241.934 147.25 240.651 147.25C239.701 147.25 238.884 147.183 238.201 147.05C237.518 146.933 236.834 146.733 236.151 146.45V143.375C236.884 143.708 237.676 143.983 238.526 144.2C239.376 144.417 240.126 144.525 240.776 144.525C241.509 144.525 242.026 144.417 242.326 144.2C242.643 143.983 242.801 143.7 242.801 143.35C242.801 143.117 242.734 142.908 242.601 142.725C242.484 142.542 242.218 142.333 241.801 142.1C241.384 141.867 240.734 141.567 239.851 141.2C239.001 140.833 238.301 140.475 237.751 140.125C237.201 139.758 236.793 139.325 236.526 138.825C236.259 138.308 236.126 137.667 236.126 136.9C236.126 135.633 236.618 134.683 237.601 134.05C238.584 133.417 239.893 133.1 241.526 133.1C242.376 133.1 243.184 133.183 243.951 133.35C244.718 133.517 245.509 133.792 246.326 134.175L245.201 136.85C244.751 136.65 244.318 136.475 243.901 136.325C243.484 136.175 243.076 136.058 242.676 135.975C242.293 135.892 241.893 135.85 241.476 135.85C240.926 135.85 240.509 135.925 240.226 136.075C239.959 136.225 239.826 136.45 239.826 136.75C239.826 136.967 239.893 137.167 240.026 137.35C240.176 137.517 240.451 137.7 240.851 137.9C241.268 138.1 241.876 138.367 242.676 138.7C243.459 139.017 244.134 139.35 244.701 139.7C245.268 140.033 245.701 140.458 246.001 140.975C246.318 141.475 246.476 142.133 246.476 142.95ZM248.923 138.162H255.393V140.738H248.923V138.162ZM44.575 161.1C45.8417 161.1 46.925 161.342 47.825 161.825C48.7417 162.308 49.45 163.008 49.95 163.925C50.45 164.842 50.7 165.967 50.7 167.3V169.1H41.9C41.9333 170.15 42.2417 170.975 42.825 171.575C43.425 172.175 44.25 172.475 45.3 172.475C46.1833 172.475 46.9833 172.392 47.7 172.225C48.4167 172.042 49.1583 171.767 49.925 171.4V174.275C49.2583 174.608 48.55 174.85 47.8 175C47.0667 175.167 46.175 175.25 45.125 175.25C43.7583 175.25 42.55 175 41.5 174.5C40.45 173.983 39.625 173.208 39.025 172.175C38.425 171.142 38.125 169.842 38.125 168.275C38.125 166.675 38.3917 165.35 38.925 164.3C39.475 163.233 40.2333 162.433 41.2 161.9C42.1667 161.367 43.2917 161.1 44.575 161.1ZM44.6 163.75C43.8833 163.75 43.2833 163.983 42.8 164.45C42.3333 164.917 42.0583 165.642 41.975 166.625H47.2C47.2 166.075 47.1 165.583 46.9 165.15C46.7167 164.717 46.4333 164.375 46.05 164.125C45.6667 163.875 45.1833 163.75 44.6 163.75ZM61.7205 161.1C63.1872 161.1 64.3622 161.5 65.2455 162.3C66.1288 163.083 66.5705 164.35 66.5705 166.1V175H62.8455V167.025C62.8455 166.042 62.6705 165.308 62.3205 164.825C61.9705 164.325 61.4122 164.075 60.6455 164.075C59.5122 164.075 58.7372 164.467 58.3205 165.25C57.9038 166.017 57.6955 167.125 57.6955 168.575V175H53.9705V161.35H56.8205L57.3205 163.1H57.5205C57.8205 162.633 58.1872 162.258 58.6205 161.975C59.0538 161.675 59.5372 161.458 60.0705 161.325C60.6038 161.175 61.1538 161.1 61.7205 161.1ZM76.4012 172.275C76.8178 172.275 77.2178 172.233 77.6012 172.15C77.9845 172.067 78.3678 171.967 78.7512 171.85V174.625C78.3512 174.792 77.8512 174.933 77.2512 175.05C76.6678 175.183 76.0262 175.25 75.3262 175.25C74.5095 175.25 73.7762 175.117 73.1262 174.85C72.4928 174.583 71.9845 174.125 71.6012 173.475C71.2345 172.808 71.0512 171.892 71.0512 170.725V164.15H69.2762V162.575L71.3262 161.325L72.4012 158.45H74.7762V161.35H78.6012V164.15H74.7762V170.725C74.7762 171.242 74.9262 171.633 75.2262 171.9C75.5262 172.15 75.9178 172.275 76.4012 172.275ZM91.916 170.225C91.8493 169.942 91.7493 169.525 91.616 168.975C91.4993 168.408 91.366 167.808 91.216 167.175C91.066 166.525 90.9243 165.933 90.791 165.4C90.6577 164.85 90.566 164.45 90.516 164.2H90.416C90.366 164.45 90.2743 164.85 90.141 165.4C90.0243 165.933 89.891 166.525 89.741 167.175C89.591 167.808 89.4493 168.408 89.316 168.975C89.1827 169.542 89.0827 169.975 89.016 170.275L87.916 175H83.916L80.041 161.35H83.741L85.316 167.4C85.4327 167.817 85.5327 168.317 85.616 168.9C85.716 169.483 85.8077 170.05 85.891 170.6C85.9743 171.133 86.0327 171.558 86.066 171.875H86.166C86.1827 171.642 86.216 171.333 86.266 170.95C86.316 170.55 86.3743 170.142 86.441 169.725C86.5243 169.308 86.591 168.933 86.641 168.6C86.7077 168.25 86.7577 168.017 86.791 167.9L88.466 161.35H92.566L94.166 167.9C94.2327 168.133 94.3077 168.508 94.391 169.025C94.491 169.542 94.5743 170.067 94.641 170.6C94.7243 171.133 94.766 171.558 94.766 171.875H94.866C94.8993 171.592 94.9577 171.183 95.041 170.65C95.1243 170.1 95.216 169.525 95.316 168.925C95.4327 168.325 95.5493 167.817 95.666 167.4L97.291 161.35H100.941L97.016 175H92.966L91.916 170.225ZM107.127 161.35V175H103.402V161.35H107.127ZM105.277 156C105.827 156 106.302 156.133 106.702 156.4C107.102 156.65 107.302 157.125 107.302 157.825C107.302 158.508 107.102 158.983 106.702 159.25C106.302 159.517 105.827 159.65 105.277 159.65C104.71 159.65 104.227 159.517 103.827 159.25C103.444 158.983 103.252 158.508 103.252 157.825C103.252 157.125 103.444 156.65 103.827 156.4C104.227 156.133 104.71 156 105.277 156ZM116.819 175.25C115.469 175.25 114.319 175.008 113.369 174.525C112.419 174.025 111.694 173.258 111.194 172.225C110.694 171.192 110.444 169.867 110.444 168.25C110.444 166.583 110.728 165.225 111.294 164.175C111.861 163.125 112.644 162.35 113.644 161.85C114.661 161.35 115.828 161.1 117.144 161.1C118.078 161.1 118.886 161.192 119.569 161.375C120.269 161.558 120.878 161.775 121.394 162.025L120.294 164.9C119.711 164.667 119.161 164.475 118.644 164.325C118.144 164.175 117.644 164.1 117.144 164.1C116.494 164.1 115.953 164.258 115.519 164.575C115.086 164.875 114.761 165.333 114.544 165.95C114.344 166.55 114.244 167.308 114.244 168.225C114.244 169.125 114.353 169.875 114.569 170.475C114.803 171.058 115.136 171.5 115.569 171.8C116.003 172.083 116.528 172.225 117.144 172.225C117.928 172.225 118.619 172.125 119.219 171.925C119.819 171.708 120.403 171.417 120.969 171.05V174.225C120.403 174.592 119.803 174.85 119.169 175C118.553 175.167 117.769 175.25 116.819 175.25ZM128.086 164.5C128.086 165.017 128.061 165.533 128.011 166.05C127.978 166.55 127.936 167.058 127.886 167.575H127.936C128.103 167.342 128.269 167.108 128.436 166.875C128.619 166.642 128.803 166.408 128.986 166.175C129.169 165.942 129.361 165.717 129.561 165.5L133.386 161.35H137.586L132.161 167.275L137.911 175H133.611L129.686 169.475L128.086 170.75V175H124.361V156H128.086V164.5ZM143.839 175H140.114V156H143.839V175ZM160.506 161.35V175H157.656L157.156 173.25H156.956C156.673 173.717 156.306 174.1 155.856 174.4C155.423 174.683 154.94 174.892 154.406 175.025C153.873 175.175 153.323 175.25 152.756 175.25C151.79 175.25 150.94 175.075 150.206 174.725C149.473 174.375 148.906 173.833 148.506 173.1C148.106 172.367 147.906 171.417 147.906 170.25V161.35H151.631V169.325C151.631 170.292 151.806 171.025 152.156 171.525C152.506 172.025 153.065 172.275 153.831 172.275C154.598 172.275 155.19 172.1 155.606 171.75C156.04 171.4 156.34 170.892 156.506 170.225C156.69 169.558 156.781 168.742 156.781 167.775V161.35H160.506ZM172.412 161.1C173.879 161.1 175.054 161.5 175.937 162.3C176.82 163.083 177.262 164.35 177.262 166.1V175H173.537V167.025C173.537 166.042 173.362 165.308 173.012 164.825C172.662 164.325 172.104 164.075 171.337 164.075C170.204 164.075 169.429 164.467 169.012 165.25C168.595 166.017 168.387 167.125 168.387 168.575V175H164.662V161.35H167.512L168.012 163.1H168.212C168.512 162.633 168.879 162.258 169.312 161.975C169.745 161.675 170.229 161.458 170.762 161.325C171.295 161.175 171.845 161.1 172.412 161.1ZM185.768 161.1C186.601 161.1 187.351 161.267 188.018 161.6C188.684 161.933 189.251 162.433 189.718 163.1H189.818L190.118 161.35H193.268V175.025C193.268 176.325 193.009 177.417 192.493 178.3C191.993 179.183 191.234 179.85 190.218 180.3C189.201 180.767 187.943 181 186.443 181C185.476 181 184.576 180.942 183.743 180.825C182.926 180.708 182.126 180.5 181.343 180.2V177.225C181.909 177.458 182.476 177.65 183.043 177.8C183.626 177.967 184.218 178.083 184.818 178.15C185.434 178.233 186.051 178.275 186.668 178.275C187.634 178.275 188.351 178.017 188.818 177.5C189.301 176.983 189.543 176.208 189.543 175.175V174.9C189.543 174.617 189.551 174.325 189.568 174.025C189.601 173.725 189.626 173.458 189.643 173.225H189.543C189.076 173.942 188.518 174.458 187.868 174.775C187.218 175.092 186.484 175.25 185.668 175.25C184.051 175.25 182.784 174.633 181.868 173.4C180.968 172.15 180.518 170.417 180.518 168.2C180.518 166.7 180.726 165.425 181.143 164.375C181.559 163.308 182.159 162.5 182.943 161.95C183.743 161.383 184.684 161.1 185.768 161.1ZM186.943 164.125C186.359 164.125 185.868 164.283 185.468 164.6C185.084 164.9 184.793 165.358 184.593 165.975C184.409 166.575 184.318 167.333 184.318 168.25C184.318 169.617 184.534 170.642 184.968 171.325C185.401 171.992 186.076 172.325 186.993 172.325C187.476 172.325 187.893 172.267 188.243 172.15C188.593 172.017 188.876 171.808 189.093 171.525C189.326 171.225 189.501 170.842 189.618 170.375C189.734 169.908 189.793 169.342 189.793 168.675V168.225C189.793 167.242 189.693 166.45 189.493 165.85C189.293 165.25 188.984 164.817 188.568 164.55C188.151 164.267 187.609 164.125 186.943 164.125Z" fill="white"/>
<path d="M49.775 207.05C49.775 208.1 49.5167 209.017 49 209.8C48.4833 210.583 47.7333 211.192 46.75 211.625C45.7833 212.042 44.6 212.25 43.2 212.25C42.5833 212.25 41.975 212.208 41.375 212.125C40.7917 212.042 40.225 211.925 39.675 211.775C39.1417 211.608 38.6333 211.408 38.15 211.175V207.65C39 208.017 39.875 208.358 40.775 208.675C41.6917 208.975 42.6 209.125 43.5 209.125C44.1167 209.125 44.6083 209.042 44.975 208.875C45.3583 208.708 45.6333 208.483 45.8 208.2C45.9833 207.917 46.075 207.592 46.075 207.225C46.075 206.775 45.9167 206.392 45.6 206.075C45.3 205.758 44.8917 205.467 44.375 205.2C43.8583 204.917 43.2667 204.617 42.6 204.3C42.1833 204.1 41.7333 203.867 41.25 203.6C40.7667 203.317 40.3 202.975 39.85 202.575C39.4167 202.158 39.0583 201.658 38.775 201.075C38.4917 200.492 38.35 199.792 38.35 198.975C38.35 197.908 38.5917 197 39.075 196.25C39.575 195.483 40.275 194.9 41.175 194.5C42.0917 194.1 43.1667 193.9 44.4 193.9C45.3333 193.9 46.2167 194.008 47.05 194.225C47.9 194.442 48.7833 194.75 49.7 195.15L48.475 198.1C47.6583 197.767 46.925 197.508 46.275 197.325C45.625 197.142 44.9583 197.05 44.275 197.05C43.8083 197.05 43.4083 197.125 43.075 197.275C42.7417 197.425 42.4833 197.633 42.3 197.9C42.1333 198.167 42.05 198.483 42.05 198.85C42.05 199.267 42.175 199.625 42.425 199.925C42.675 200.208 43.05 200.483 43.55 200.75C44.05 201.017 44.675 201.333 45.425 201.7C46.3417 202.133 47.1167 202.583 47.75 203.05C48.4 203.517 48.9 204.067 49.25 204.7C49.6 205.333 49.775 206.117 49.775 207.05ZM56.4445 198.35V212H52.7195V198.35H56.4445ZM54.5945 193C55.1445 193 55.6195 193.133 56.0195 193.4C56.4195 193.65 56.6195 194.125 56.6195 194.825C56.6195 195.508 56.4195 195.983 56.0195 196.25C55.6195 196.517 55.1445 196.65 54.5945 196.65C54.0279 196.65 53.5445 196.517 53.1445 196.25C52.7612 195.983 52.5695 195.508 52.5695 194.825C52.5695 194.125 52.7612 193.65 53.1445 193.4C53.5445 193.133 54.0279 193 54.5945 193ZM65.9617 198.1C67.2284 198.1 68.3117 198.342 69.2117 198.825C70.1284 199.308 70.8367 200.008 71.3367 200.925C71.8367 201.842 72.0867 202.967 72.0867 204.3V206.1H63.2867C63.3201 207.15 63.6284 207.975 64.2117 208.575C64.8117 209.175 65.6367 209.475 66.6867 209.475C67.5701 209.475 68.3701 209.392 69.0867 209.225C69.8034 209.042 70.5451 208.767 71.3117 208.4V211.275C70.6451 211.608 69.9367 211.85 69.1867 212C68.4534 212.167 67.5617 212.25 66.5117 212.25C65.1451 212.25 63.9367 212 62.8867 211.5C61.8367 210.983 61.0117 210.208 60.4117 209.175C59.8117 208.142 59.5117 206.842 59.5117 205.275C59.5117 203.675 59.7784 202.35 60.3117 201.3C60.8617 200.233 61.6201 199.433 62.5867 198.9C63.5534 198.367 64.6784 198.1 65.9617 198.1ZM65.9867 200.75C65.2701 200.75 64.6701 200.983 64.1867 201.45C63.7201 201.917 63.4451 202.642 63.3617 203.625H68.5867C68.5867 203.075 68.4867 202.583 68.2867 202.15C68.1034 201.717 67.8201 201.375 67.4367 201.125C67.0534 200.875 66.5701 200.75 65.9867 200.75ZM91.1322 198.1C92.6822 198.1 93.8489 198.5 94.6322 199.3C95.4322 200.083 95.8322 201.35 95.8322 203.1V212H92.1072V204.025C92.1072 203.042 91.9406 202.308 91.6072 201.825C91.2739 201.325 90.7572 201.075 90.0572 201.075C89.0739 201.075 88.3739 201.425 87.9572 202.125C87.5406 202.825 87.3322 203.833 87.3322 205.15V212H83.6072V204.025C83.6072 203.375 83.5322 202.833 83.3822 202.4C83.2322 201.967 83.0072 201.642 82.7072 201.425C82.4072 201.192 82.0239 201.075 81.5572 201.075C80.8739 201.075 80.3322 201.25 79.9322 201.6C79.5322 201.95 79.2489 202.458 79.0822 203.125C78.9156 203.792 78.8322 204.608 78.8322 205.575V212H75.1072V198.35H77.9572L78.4572 200.1H78.6572C78.9406 199.633 79.2906 199.258 79.7072 198.975C80.1239 198.675 80.5822 198.458 81.0822 198.325C81.5989 198.175 82.1156 198.1 82.6322 198.1C83.6322 198.1 84.4822 198.267 85.1822 198.6C85.8822 198.917 86.4156 199.417 86.7822 200.1H87.1072C87.5239 199.4 88.0989 198.892 88.8322 198.575C89.5822 198.258 90.3489 198.1 91.1322 198.1ZM105.293 198.1C106.559 198.1 107.643 198.342 108.543 198.825C109.459 199.308 110.168 200.008 110.668 200.925C111.168 201.842 111.418 202.967 111.418 204.3V206.1H102.618C102.651 207.15 102.959 207.975 103.543 208.575C104.143 209.175 104.968 209.475 106.018 209.475C106.901 209.475 107.701 209.392 108.418 209.225C109.134 209.042 109.876 208.767 110.643 208.4V211.275C109.976 211.608 109.268 211.85 108.518 212C107.784 212.167 106.893 212.25 105.843 212.25C104.476 212.25 103.268 212 102.218 211.5C101.168 210.983 100.343 210.208 99.7428 209.175C99.1428 208.142 98.8428 206.842 98.8428 205.275C98.8428 203.675 99.1094 202.35 99.6428 201.3C100.193 200.233 100.951 199.433 101.918 198.9C102.884 198.367 104.009 198.1 105.293 198.1ZM105.318 200.75C104.601 200.75 104.001 200.983 103.518 201.45C103.051 201.917 102.776 202.642 102.693 203.625H107.918C107.918 203.075 107.818 202.583 107.618 202.15C107.434 201.717 107.151 201.375 106.768 201.125C106.384 200.875 105.901 200.75 105.318 200.75ZM122.188 198.1C123.655 198.1 124.83 198.5 125.713 199.3C126.597 200.083 127.038 201.35 127.038 203.1V212H123.313V204.025C123.313 203.042 123.138 202.308 122.788 201.825C122.438 201.325 121.88 201.075 121.113 201.075C119.98 201.075 119.205 201.467 118.788 202.25C118.372 203.017 118.163 204.125 118.163 205.575V212H114.438V198.35H117.288L117.788 200.1H117.988C118.288 199.633 118.655 199.258 119.088 198.975C119.522 198.675 120.005 198.458 120.538 198.325C121.072 198.175 121.622 198.1 122.188 198.1ZM140.394 207.95C140.394 208.867 140.177 209.65 139.744 210.3C139.311 210.933 138.661 211.417 137.794 211.75C136.927 212.083 135.852 212.25 134.569 212.25C133.619 212.25 132.802 212.183 132.119 212.05C131.436 211.933 130.752 211.733 130.069 211.45V208.375C130.802 208.708 131.594 208.983 132.444 209.2C133.294 209.417 134.044 209.525 134.694 209.525C135.427 209.525 135.944 209.417 136.244 209.2C136.561 208.983 136.719 208.7 136.719 208.35C136.719 208.117 136.652 207.908 136.519 207.725C136.402 207.542 136.136 207.333 135.719 207.1C135.302 206.867 134.652 206.567 133.769 206.2C132.919 205.833 132.219 205.475 131.669 205.125C131.119 204.758 130.711 204.325 130.444 203.825C130.177 203.308 130.044 202.667 130.044 201.9C130.044 200.633 130.536 199.683 131.519 199.05C132.502 198.417 133.811 198.1 135.444 198.1C136.294 198.1 137.102 198.183 137.869 198.35C138.636 198.517 139.427 198.792 140.244 199.175L139.119 201.85C138.669 201.65 138.236 201.475 137.819 201.325C137.402 201.175 136.994 201.058 136.594 200.975C136.211 200.892 135.811 200.85 135.394 200.85C134.844 200.85 134.427 200.925 134.144 201.075C133.877 201.225 133.744 201.45 133.744 201.75C133.744 201.967 133.811 202.167 133.944 202.35C134.094 202.517 134.369 202.7 134.769 202.9C135.186 203.1 135.794 203.367 136.594 203.7C137.377 204.017 138.052 204.35 138.619 204.7C139.186 205.033 139.619 205.458 139.919 205.975C140.236 206.475 140.394 207.133 140.394 207.95ZM161.015 212L159.715 207.75H153.215L151.915 212H147.84L154.14 194.075H158.765L165.09 212H161.015ZM157.515 200.425C157.432 200.142 157.323 199.783 157.19 199.35C157.057 198.917 156.923 198.475 156.79 198.025C156.657 197.575 156.548 197.183 156.465 196.85C156.382 197.183 156.265 197.6 156.115 198.1C155.982 198.583 155.848 199.05 155.715 199.5C155.598 199.933 155.507 200.242 155.44 200.425L154.165 204.575H158.815L157.515 200.425ZM173.637 201.975H180.712V211.225C179.779 211.542 178.804 211.792 177.787 211.975C176.787 212.158 175.646 212.25 174.362 212.25C172.596 212.25 171.087 211.9 169.837 211.2C168.604 210.5 167.662 209.467 167.012 208.1C166.379 206.733 166.062 205.05 166.062 203.05C166.062 201.183 166.421 199.567 167.137 198.2C167.871 196.833 168.929 195.775 170.312 195.025C171.696 194.275 173.387 193.9 175.387 193.9C176.337 193.9 177.271 194 178.187 194.2C179.104 194.4 179.937 194.667 180.687 195L179.437 198.025C178.887 197.742 178.262 197.508 177.562 197.325C176.862 197.142 176.129 197.05 175.362 197.05C174.262 197.05 173.304 197.3 172.487 197.8C171.687 198.3 171.062 199.008 170.612 199.925C170.179 200.825 169.962 201.892 169.962 203.125C169.962 204.292 170.121 205.325 170.437 206.225C170.754 207.125 171.254 207.833 171.937 208.35C172.621 208.85 173.512 209.1 174.612 209.1C174.979 209.1 175.296 209.092 175.562 209.075C175.846 209.042 176.104 209.008 176.337 208.975C176.571 208.925 176.796 208.883 177.012 208.85V205.125H173.637V201.975Z" fill="#9D9D9D"/>
<path d="M50.2692 50.2436V52H40.0769V50.2436H44.4231V36.6795L40.3718 39.141L39.4359 37.6026L44.6923 34.3462H46.5769V50.2436H50.2692ZM59.2911 34.0641C60.4022 34.0641 61.3552 34.2821 62.1501 34.7179C62.945 35.1453 63.5518 35.7308 63.9706 36.4744C64.398 37.2179 64.6116 38.0556 64.6116 38.9872C64.6116 39.7991 64.4706 40.594 64.1886 41.3718C63.9065 42.141 63.4535 42.953 62.8296 43.8077C62.2142 44.6538 61.4022 45.594 60.3937 46.6282C59.3851 47.6624 58.1544 48.8419 56.7014 50.1667H65.0219L64.7527 52H54.2527V50.2436C55.9193 48.6453 57.2783 47.2949 58.3296 46.1923C59.3894 45.0897 60.2099 44.141 60.7911 43.3462C61.3723 42.5427 61.774 41.8077 61.9962 41.141C62.227 40.4744 62.3424 39.7821 62.3424 39.0641C62.3424 38.0727 62.0646 37.2906 61.5091 36.7179C60.9535 36.1453 60.18 35.859 59.1886 35.859C58.3168 35.859 57.6031 36.0085 57.0475 36.3077C56.492 36.6068 55.9364 37.0855 55.3809 37.7436L53.8937 36.5897C54.5945 35.735 55.368 35.1026 56.2142 34.6923C57.0689 34.2735 58.0945 34.0641 59.2911 34.0641ZM70.8515 54.641L69.1079 53.8718L80.0822 31.2436L81.8002 32.0897L70.8515 54.641ZM90.0528 34.0641C91.1639 34.0641 92.1169 34.2821 92.9118 34.7179C93.7067 35.1453 94.3135 35.7308 94.7323 36.4744C95.1597 37.2179 95.3733 38.0556 95.3733 38.9872C95.3733 39.7991 95.2323 40.594 94.9503 41.3718C94.6682 42.141 94.2152 42.953 93.5913 43.8077C92.9759 44.6538 92.1639 45.594 91.1554 46.6282C90.1469 47.6624 88.9161 48.8419 87.4631 50.1667H95.7836L95.5144 52H85.0144V50.2436C86.681 48.6453 88.04 47.2949 89.0913 46.1923C90.1511 45.0897 90.9716 44.141 91.5528 43.3462C92.134 42.5427 92.5357 41.8077 92.758 41.141C92.9887 40.4744 93.1041 39.7821 93.1041 39.0641C93.1041 38.0727 92.8263 37.2906 92.2708 36.7179C91.7152 36.1453 90.9417 35.859 89.9503 35.859C89.0785 35.859 88.3648 36.0085 87.8092 36.3077C87.2537 36.6068 86.6981 37.0855 86.1426 37.7436L84.6554 36.5897C85.3563 35.735 86.1298 35.1026 86.9759 34.6923C87.8306 34.2735 88.8563 34.0641 90.0528 34.0641ZM106.216 34.0641C108.113 34.0641 109.549 34.8504 110.523 36.4231C111.506 37.9957 111.998 40.2436 111.998 43.1667C111.998 46.0983 111.506 48.3547 110.523 49.9359C109.549 51.5085 108.113 52.2949 106.216 52.2949C104.318 52.2949 102.878 51.5085 101.895 49.9359C100.921 48.3547 100.434 46.0983 100.434 43.1667C100.434 40.2436 100.921 37.9957 101.895 36.4231C102.878 34.8504 104.318 34.0641 106.216 34.0641ZM106.216 35.7949C105.13 35.7949 104.276 36.3718 103.652 37.5256C103.028 38.6709 102.716 40.5513 102.716 43.1667C102.716 45.1239 102.865 46.6624 103.164 47.7821L108.562 36.9359C108.023 36.1752 107.241 35.7949 106.216 35.7949ZM109.729 43.1667C109.729 41.1923 109.575 39.6496 109.267 38.5385L103.895 49.4231C104.434 50.1752 105.207 50.5513 106.216 50.5513C107.31 50.5513 108.169 49.9744 108.793 48.8205C109.417 47.6667 109.729 45.7821 109.729 43.1667ZM120.815 34.0641C121.926 34.0641 122.879 34.2821 123.674 34.7179C124.468 35.1453 125.075 35.7308 125.494 36.4744C125.921 37.2179 126.135 38.0556 126.135 38.9872C126.135 39.7991 125.994 40.594 125.712 41.3718C125.43 42.141 124.977 42.953 124.353 43.8077C123.738 44.6538 122.926 45.594 121.917 46.6282C120.909 47.6624 119.678 48.8419 118.225 50.1667H126.545L126.276 52H115.776V50.2436C117.443 48.6453 118.802 47.2949 119.853 46.1923C120.913 45.0897 121.733 44.141 122.315 43.3462C122.896 42.5427 123.297 41.8077 123.52 41.141C123.75 40.4744 123.866 39.7821 123.866 39.0641C123.866 38.0727 123.588 37.2906 123.033 36.7179C122.477 36.1453 121.703 35.859 120.712 35.859C119.84 35.859 119.127 36.0085 118.571 36.3077C118.015 36.6068 117.46 37.0855 116.904 37.7436L115.417 36.5897C116.118 35.735 116.891 35.1026 117.738 34.6923C118.592 34.2735 119.618 34.0641 120.815 34.0641ZM136.977 34.0641C138.875 34.0641 140.311 34.8504 141.285 36.4231C142.268 37.9957 142.76 40.2436 142.76 43.1667C142.76 46.0983 142.268 48.3547 141.285 49.9359C140.311 51.5085 138.875 52.2949 136.977 52.2949C135.08 52.2949 133.64 51.5085 132.657 49.9359C131.683 48.3547 131.195 46.0983 131.195 43.1667C131.195 40.2436 131.683 37.9957 132.657 36.4231C133.64 34.8504 135.08 34.0641 136.977 34.0641ZM136.977 35.7949C135.892 35.7949 135.037 36.3718 134.413 37.5256C133.789 38.6709 133.477 40.5513 133.477 43.1667C133.477 45.1239 133.627 46.6624 133.926 47.7821L139.324 36.9359C138.785 36.1752 138.003 35.7949 136.977 35.7949ZM140.49 43.1667C140.49 41.1923 140.336 39.6496 140.029 38.5385L134.657 49.4231C135.195 50.1752 135.969 50.5513 136.977 50.5513C138.071 50.5513 138.93 49.9744 139.554 48.8205C140.178 47.6667 140.49 45.7821 140.49 43.1667ZM162.598 44.9103V43.0385H172.88V44.9103H162.598ZM201.834 52V43.6282H195.168V52H192.95V34.3462H195.168V41.8077H201.834V34.3462H204.052V52H201.834ZM211.638 36.1667V42.1154H218.177V43.9487H211.638V50.2179H219.664V52H209.407V34.3462H219.433L219.177 36.1667H211.638ZM235.096 34.3462V46.2821C235.096 47.4701 234.857 48.5171 234.378 49.4231C233.899 50.3291 233.22 51.0342 232.34 51.5385C231.459 52.0427 230.425 52.2949 229.237 52.2949C228.023 52.2949 226.981 52.0427 226.109 51.5385C225.246 51.0256 224.583 50.3205 224.122 49.4231C223.66 48.5171 223.429 47.4701 223.429 46.2821V34.3462H225.634V46.359C225.634 47.7009 225.946 48.7051 226.57 49.3718C227.203 50.0385 228.092 50.3718 229.237 50.3718C230.391 50.3718 231.28 50.0385 231.904 49.3718C232.536 48.7051 232.852 47.7009 232.852 46.359V34.3462H235.096ZM245.708 36.2564V52H243.49V36.2564H237.977V34.3462H251.297L251.067 36.2564H245.708ZM257.781 36.1667V42.1154H264.319V43.9487H257.781V50.2179H265.806V52H255.55V34.3462H265.576L265.319 36.1667H257.781Z" fill="white"/>
<circle cx="15" cy="45" r="15" fill="#2F27CE"/>
<path d="M50.175 323L48.875 318.75H42.375L41.075 323H37L43.3 305.075H47.925L54.25 323H50.175ZM46.675 311.425C46.5917 311.142 46.4833 310.783 46.35 310.35C46.2167 309.917 46.0833 309.475 45.95 309.025C45.8167 308.575 45.7083 308.183 45.625 307.85C45.5417 308.183 45.425 308.6 45.275 309.1C45.1417 309.583 45.0083 310.05 44.875 310.5C44.7583 310.933 44.6667 311.242 44.6 311.425L43.325 315.575H47.975L46.675 311.425ZM60.1857 323H56.4607V304H60.1857V323ZM68.0529 323H64.3279V304H68.0529V323ZM76.6201 309.1C77.4535 309.1 78.2035 309.267 78.8701 309.6C79.5368 309.933 80.1035 310.433 80.5701 311.1H80.6701L80.9701 309.35H84.1201V323.025C84.1201 324.325 83.8618 325.417 83.3451 326.3C82.8451 327.183 82.0868 327.85 81.0701 328.3C80.0535 328.767 78.7951 329 77.2951 329C76.3285 329 75.4285 328.942 74.5951 328.825C73.7785 328.708 72.9785 328.5 72.1951 328.2V325.225C72.7618 325.458 73.3285 325.65 73.8951 325.8C74.4785 325.967 75.0701 326.083 75.6701 326.15C76.2868 326.233 76.9035 326.275 77.5201 326.275C78.4868 326.275 79.2035 326.017 79.6701 325.5C80.1535 324.983 80.3951 324.208 80.3951 323.175V322.9C80.3951 322.617 80.4035 322.325 80.4201 322.025C80.4535 321.725 80.4785 321.458 80.4951 321.225H80.3951C79.9285 321.942 79.3701 322.458 78.7201 322.775C78.0701 323.092 77.3368 323.25 76.5201 323.25C74.9035 323.25 73.6368 322.633 72.7201 321.4C71.8201 320.15 71.3701 318.417 71.3701 316.2C71.3701 314.7 71.5785 313.425 71.9951 312.375C72.4118 311.308 73.0118 310.5 73.7951 309.95C74.5951 309.383 75.5368 309.1 76.6201 309.1ZM77.7951 312.125C77.2118 312.125 76.7201 312.283 76.3201 312.6C75.9368 312.9 75.6451 313.358 75.4451 313.975C75.2618 314.575 75.1701 315.333 75.1701 316.25C75.1701 317.617 75.3868 318.642 75.8201 319.325C76.2535 319.992 76.9285 320.325 77.8451 320.325C78.3285 320.325 78.7451 320.267 79.0951 320.15C79.4451 320.017 79.7285 319.808 79.9451 319.525C80.1785 319.225 80.3535 318.842 80.4701 318.375C80.5868 317.908 80.6451 317.342 80.6451 316.675V316.225C80.6451 315.242 80.5451 314.45 80.3451 313.85C80.1451 313.25 79.8368 312.817 79.4201 312.55C79.0035 312.267 78.4618 312.125 77.7951 312.125ZM93.8904 309.1C95.1571 309.1 96.2404 309.342 97.1404 309.825C98.0571 310.308 98.7654 311.008 99.2654 311.925C99.7654 312.842 100.015 313.967 100.015 315.3V317.1H91.2154C91.2488 318.15 91.5571 318.975 92.1404 319.575C92.7404 320.175 93.5654 320.475 94.6154 320.475C95.4988 320.475 96.2988 320.392 97.0154 320.225C97.7321 320.042 98.4738 319.767 99.2404 319.4V322.275C98.5738 322.608 97.8654 322.85 97.1154 323C96.3821 323.167 95.4904 323.25 94.4404 323.25C93.0738 323.25 91.8654 323 90.8154 322.5C89.7654 321.983 88.9404 321.208 88.3404 320.175C87.7404 319.142 87.4404 317.842 87.4404 316.275C87.4404 314.675 87.7071 313.35 88.2404 312.3C88.7904 311.233 89.5488 310.433 90.5154 309.9C91.4821 309.367 92.6071 309.1 93.8904 309.1ZM93.9154 311.75C93.1988 311.75 92.5988 311.983 92.1154 312.45C91.6488 312.917 91.3738 313.642 91.2904 314.625H96.5154C96.5154 314.075 96.4154 313.583 96.2154 313.15C96.0321 312.717 95.7488 312.375 95.3654 312.125C94.9821 311.875 94.4988 311.75 93.9154 311.75ZM119.311 309.1C120.861 309.1 122.028 309.5 122.811 310.3C123.611 311.083 124.011 312.35 124.011 314.1V323H120.286V315.025C120.286 314.042 120.119 313.308 119.786 312.825C119.453 312.325 118.936 312.075 118.236 312.075C117.253 312.075 116.553 312.425 116.136 313.125C115.719 313.825 115.511 314.833 115.511 316.15V323H111.786V315.025C111.786 314.375 111.711 313.833 111.561 313.4C111.411 312.967 111.186 312.642 110.886 312.425C110.586 312.192 110.203 312.075 109.736 312.075C109.053 312.075 108.511 312.25 108.111 312.6C107.711 312.95 107.428 313.458 107.261 314.125C107.094 314.792 107.011 315.608 107.011 316.575V323H103.286V309.35H106.136L106.636 311.1H106.836C107.119 310.633 107.469 310.258 107.886 309.975C108.303 309.675 108.761 309.458 109.261 309.325C109.778 309.175 110.294 309.1 110.811 309.1C111.811 309.1 112.661 309.267 113.361 309.6C114.061 309.917 114.594 310.417 114.961 311.1H115.286C115.703 310.4 116.278 309.892 117.011 309.575C117.761 309.258 118.528 309.1 119.311 309.1ZM133.721 309.1C134.988 309.1 136.071 309.342 136.971 309.825C137.888 310.308 138.596 311.008 139.096 311.925C139.596 312.842 139.846 313.967 139.846 315.3V317.1H131.046C131.08 318.15 131.388 318.975 131.971 319.575C132.571 320.175 133.396 320.475 134.446 320.475C135.33 320.475 136.13 320.392 136.846 320.225C137.563 320.042 138.305 319.767 139.071 319.4V322.275C138.405 322.608 137.696 322.85 136.946 323C136.213 323.167 135.321 323.25 134.271 323.25C132.905 323.25 131.696 323 130.646 322.5C129.596 321.983 128.771 321.208 128.171 320.175C127.571 319.142 127.271 317.842 127.271 316.275C127.271 314.675 127.538 313.35 128.071 312.3C128.621 311.233 129.38 310.433 130.346 309.9C131.313 309.367 132.438 309.1 133.721 309.1ZM133.746 311.75C133.03 311.75 132.43 311.983 131.946 312.45C131.48 312.917 131.205 313.642 131.121 314.625H136.346C136.346 314.075 136.246 313.583 136.046 313.15C135.863 312.717 135.58 312.375 135.196 312.125C134.813 311.875 134.33 311.75 133.746 311.75ZM146.842 309.35V323H143.117V309.35H146.842ZM144.992 304C145.542 304 146.017 304.133 146.417 304.4C146.817 304.65 147.017 305.125 147.017 305.825C147.017 306.508 146.817 306.983 146.417 307.25C146.017 307.517 145.542 307.65 144.992 307.65C144.425 307.65 143.942 307.517 143.542 307.25C143.159 306.983 142.967 306.508 142.967 305.825C142.967 305.125 143.159 304.65 143.542 304.4C143.942 304.133 144.425 304 144.992 304ZM158.734 309.1C160.201 309.1 161.376 309.5 162.259 310.3C163.143 311.083 163.584 312.35 163.584 314.1V323H159.859V315.025C159.859 314.042 159.684 313.308 159.334 312.825C158.984 312.325 158.426 312.075 157.659 312.075C156.526 312.075 155.751 312.467 155.334 313.25C154.918 314.017 154.709 315.125 154.709 316.575V323H150.984V309.35H153.834L154.334 311.1H154.534C154.834 310.633 155.201 310.258 155.634 309.975C156.068 309.675 156.551 309.458 157.084 309.325C157.618 309.175 158.168 309.1 158.734 309.1ZM173.29 309.1C174.557 309.1 175.64 309.342 176.54 309.825C177.457 310.308 178.165 311.008 178.665 311.925C179.165 312.842 179.415 313.967 179.415 315.3V317.1H170.615C170.648 318.15 170.957 318.975 171.54 319.575C172.14 320.175 172.965 320.475 174.015 320.475C174.898 320.475 175.698 320.392 176.415 320.225C177.132 320.042 177.873 319.767 178.64 319.4V322.275C177.973 322.608 177.265 322.85 176.515 323C175.782 323.167 174.89 323.25 173.84 323.25C172.473 323.25 171.265 323 170.215 322.5C169.165 321.983 168.34 321.208 167.74 320.175C167.14 319.142 166.84 317.842 166.84 316.275C166.84 314.675 167.107 313.35 167.64 312.3C168.19 311.233 168.948 310.433 169.915 309.9C170.882 309.367 172.007 309.1 173.29 309.1ZM173.315 311.75C172.598 311.75 171.998 311.983 171.515 312.45C171.048 312.917 170.773 313.642 170.69 314.625H175.915C175.915 314.075 175.815 313.583 175.615 313.15C175.432 312.717 175.148 312.375 174.765 312.125C174.382 311.875 173.898 311.75 173.315 311.75ZM53.875 351H50.1V343.3H43.025V351H39.25V333.15H43.025V340.15H50.1V333.15H53.875V351ZM70.7162 344.15C70.7162 345.283 70.5579 346.292 70.2412 347.175C69.9412 348.058 69.4995 348.808 68.9162 349.425C68.3495 350.025 67.6579 350.483 66.8412 350.8C66.0245 351.1 65.0995 351.25 64.0662 351.25C63.1162 351.25 62.2329 351.1 61.4162 350.8C60.6162 350.483 59.9245 350.025 59.3412 349.425C58.7579 348.808 58.2995 348.058 57.9662 347.175C57.6495 346.292 57.4912 345.283 57.4912 344.15C57.4912 342.633 57.7579 341.358 58.2912 340.325C58.8245 339.275 59.5912 338.475 60.5912 337.925C61.5912 337.375 62.7745 337.1 64.1412 337.1C65.4245 337.1 66.5579 337.375 67.5412 337.925C68.5245 338.475 69.2995 339.275 69.8662 340.325C70.4329 341.358 70.7162 342.633 70.7162 344.15ZM61.2912 344.15C61.2912 345.05 61.3829 345.808 61.5662 346.425C61.7662 347.025 62.0745 347.483 62.4912 347.8C62.9079 348.1 63.4495 348.25 64.1162 348.25C64.7829 348.25 65.3162 348.1 65.7162 347.8C66.1329 347.483 66.4329 347.025 66.6162 346.425C66.8162 345.808 66.9162 345.05 66.9162 344.15C66.9162 343.25 66.8162 342.5 66.6162 341.9C66.4329 341.3 66.1329 340.85 65.7162 340.55C65.2995 340.25 64.7579 340.1 64.0912 340.1C63.1079 340.1 62.3912 340.442 61.9412 341.125C61.5079 341.792 61.2912 342.8 61.2912 344.15ZM79.5947 351.25C78.2447 351.25 77.0947 351.008 76.1447 350.525C75.1947 350.025 74.4697 349.258 73.9697 348.225C73.4697 347.192 73.2197 345.867 73.2197 344.25C73.2197 342.583 73.5031 341.225 74.0697 340.175C74.6364 339.125 75.4197 338.35 76.4197 337.85C77.4364 337.35 78.6031 337.1 79.9197 337.1C80.8531 337.1 81.6614 337.192 82.3447 337.375C83.0447 337.558 83.6531 337.775 84.1697 338.025L83.0697 340.9C82.4864 340.667 81.9364 340.475 81.4197 340.325C80.9197 340.175 80.4197 340.1 79.9197 340.1C79.2697 340.1 78.7281 340.258 78.2947 340.575C77.8614 340.875 77.5364 341.333 77.3197 341.95C77.1197 342.55 77.0197 343.308 77.0197 344.225C77.0197 345.125 77.1281 345.875 77.3447 346.475C77.5781 347.058 77.9114 347.5 78.3447 347.8C78.7781 348.083 79.3031 348.225 79.9197 348.225C80.7031 348.225 81.3947 348.125 81.9947 347.925C82.5947 347.708 83.1781 347.417 83.7447 347.05V350.225C83.1781 350.592 82.5781 350.85 81.9447 351C81.3281 351.167 80.5447 351.25 79.5947 351.25ZM90.8615 335.875C90.8615 336.542 90.8365 337.183 90.7865 337.8C90.7532 338.417 90.7199 338.85 90.6865 339.1H90.8865C91.1865 338.633 91.5365 338.258 91.9365 337.975C92.3365 337.675 92.7782 337.458 93.2615 337.325C93.7615 337.175 94.2865 337.1 94.8365 337.1C95.8199 337.1 96.6782 337.275 97.4115 337.625C98.1449 337.975 98.7115 338.517 99.1115 339.25C99.5282 339.983 99.7365 340.933 99.7365 342.1V351H96.0115V343.025C96.0115 342.042 95.8282 341.308 95.4615 340.825C95.1115 340.325 94.5615 340.075 93.8115 340.075C93.0615 340.075 92.4699 340.25 92.0365 340.6C91.6199 340.95 91.3199 341.458 91.1365 342.125C90.9532 342.792 90.8615 343.608 90.8615 344.575V351H87.1365V332H90.8615V335.875ZM113.342 346.95C113.342 347.867 113.126 348.65 112.692 349.3C112.259 349.933 111.609 350.417 110.742 350.75C109.876 351.083 108.801 351.25 107.517 351.25C106.567 351.25 105.751 351.183 105.067 351.05C104.384 350.933 103.701 350.733 103.017 350.45V347.375C103.751 347.708 104.542 347.983 105.392 348.2C106.242 348.417 106.992 348.525 107.642 348.525C108.376 348.525 108.892 348.417 109.192 348.2C109.509 347.983 109.667 347.7 109.667 347.35C109.667 347.117 109.601 346.908 109.467 346.725C109.351 346.542 109.084 346.333 108.667 346.1C108.251 345.867 107.601 345.567 106.717 345.2C105.867 344.833 105.167 344.475 104.617 344.125C104.067 343.758 103.659 343.325 103.392 342.825C103.126 342.308 102.992 341.667 102.992 340.9C102.992 339.633 103.484 338.683 104.467 338.05C105.451 337.417 106.759 337.1 108.392 337.1C109.242 337.1 110.051 337.183 110.817 337.35C111.584 337.517 112.376 337.792 113.192 338.175L112.067 340.85C111.617 340.65 111.184 340.475 110.767 340.325C110.351 340.175 109.942 340.058 109.542 339.975C109.159 339.892 108.759 339.85 108.342 339.85C107.792 339.85 107.376 339.925 107.092 340.075C106.826 340.225 106.692 340.45 106.692 340.75C106.692 340.967 106.759 341.167 106.892 341.35C107.042 341.517 107.317 341.7 107.717 341.9C108.134 342.1 108.742 342.367 109.542 342.7C110.326 343.017 111.001 343.35 111.567 343.7C112.134 344.033 112.567 344.458 112.867 344.975C113.184 345.475 113.342 346.133 113.342 346.95ZM122.044 351.25C120.694 351.25 119.544 351.008 118.594 350.525C117.644 350.025 116.919 349.258 116.419 348.225C115.919 347.192 115.669 345.867 115.669 344.25C115.669 342.583 115.952 341.225 116.519 340.175C117.086 339.125 117.869 338.35 118.869 337.85C119.886 337.35 121.052 337.1 122.369 337.1C123.302 337.1 124.111 337.192 124.794 337.375C125.494 337.558 126.102 337.775 126.619 338.025L125.519 340.9C124.936 340.667 124.386 340.475 123.869 340.325C123.369 340.175 122.869 340.1 122.369 340.1C121.719 340.1 121.177 340.258 120.744 340.575C120.311 340.875 119.986 341.333 119.769 341.95C119.569 342.55 119.469 343.308 119.469 344.225C119.469 345.125 119.577 345.875 119.794 346.475C120.027 347.058 120.361 347.5 120.794 347.8C121.227 348.083 121.752 348.225 122.369 348.225C123.152 348.225 123.844 348.125 124.444 347.925C125.044 347.708 125.627 347.417 126.194 347.05V350.225C125.627 350.592 125.027 350.85 124.394 351C123.777 351.167 122.994 351.25 122.044 351.25ZM133.311 335.875C133.311 336.542 133.286 337.183 133.236 337.8C133.202 338.417 133.169 338.85 133.136 339.1H133.336C133.636 338.633 133.986 338.258 134.386 337.975C134.786 337.675 135.227 337.458 135.711 337.325C136.211 337.175 136.736 337.1 137.286 337.1C138.269 337.1 139.127 337.275 139.861 337.625C140.594 337.975 141.161 338.517 141.561 339.25C141.977 339.983 142.186 340.933 142.186 342.1V351H138.461V343.025C138.461 342.042 138.277 341.308 137.911 340.825C137.561 340.325 137.011 340.075 136.261 340.075C135.511 340.075 134.919 340.25 134.486 340.6C134.069 340.95 133.769 341.458 133.586 342.125C133.402 342.792 133.311 343.608 133.311 344.575V351H129.586V332H133.311V335.875ZM158.791 337.35V351H155.941L155.441 349.25H155.241C154.958 349.717 154.591 350.1 154.141 350.4C153.708 350.683 153.225 350.892 152.691 351.025C152.158 351.175 151.608 351.25 151.041 351.25C150.075 351.25 149.225 351.075 148.491 350.725C147.758 350.375 147.191 349.833 146.791 349.1C146.391 348.367 146.191 347.417 146.191 346.25V337.35H149.916V345.325C149.916 346.292 150.091 347.025 150.441 347.525C150.791 348.025 151.35 348.275 152.116 348.275C152.883 348.275 153.475 348.1 153.891 347.75C154.325 347.4 154.625 346.892 154.791 346.225C154.975 345.558 155.066 344.742 155.066 343.775V337.35H158.791ZM166.672 351H162.947V332H166.672V351ZM178.439 337.1C178.623 337.1 178.839 337.108 179.089 337.125C179.339 337.142 179.539 337.167 179.689 337.2L179.414 340.7C179.298 340.667 179.123 340.642 178.889 340.625C178.673 340.592 178.481 340.575 178.314 340.575C177.831 340.575 177.364 340.642 176.914 340.775C176.464 340.892 176.056 341.083 175.689 341.35C175.339 341.617 175.056 341.975 174.839 342.425C174.639 342.858 174.539 343.4 174.539 344.05V351H170.814V337.35H173.639L174.189 339.65H174.364C174.631 339.183 174.964 338.758 175.364 338.375C175.764 337.992 176.223 337.683 176.739 337.45C177.273 337.217 177.839 337.1 178.439 337.1ZM187.554 337.1C188.82 337.1 189.904 337.342 190.804 337.825C191.72 338.308 192.429 339.008 192.929 339.925C193.429 340.842 193.679 341.967 193.679 343.3V345.1H184.879C184.912 346.15 185.22 346.975 185.804 347.575C186.404 348.175 187.229 348.475 188.279 348.475C189.162 348.475 189.962 348.392 190.679 348.225C191.395 348.042 192.137 347.767 192.904 347.4V350.275C192.237 350.608 191.529 350.85 190.779 351C190.045 351.167 189.154 351.25 188.104 351.25C186.737 351.25 185.529 351 184.479 350.5C183.429 349.983 182.604 349.208 182.004 348.175C181.404 347.142 181.104 345.842 181.104 344.275C181.104 342.675 181.37 341.35 181.904 340.3C182.454 339.233 183.212 338.433 184.179 337.9C185.145 337.367 186.27 337.1 187.554 337.1ZM187.579 339.75C186.862 339.75 186.262 339.983 185.779 340.45C185.312 340.917 185.037 341.642 184.954 342.625H190.179C190.179 342.075 190.079 341.583 189.879 341.15C189.695 340.717 189.412 340.375 189.029 340.125C188.645 339.875 188.162 339.75 187.579 339.75ZM200.674 337.35V351H196.949V337.35H200.674ZM198.824 332C199.374 332 199.849 332.133 200.249 332.4C200.649 332.65 200.849 333.125 200.849 333.825C200.849 334.508 200.649 334.983 200.249 335.25C199.849 335.517 199.374 335.65 198.824 335.65C198.257 335.65 197.774 335.517 197.374 335.25C196.991 334.983 196.799 334.508 196.799 333.825C196.799 333.125 196.991 332.65 197.374 332.4C197.774 332.133 198.257 332 198.824 332ZM212.366 340.15H209.141V351H205.416V340.15H203.366V338.35L205.416 337.35V336.35C205.416 335.183 205.608 334.283 205.991 333.65C206.391 333 206.95 332.542 207.666 332.275C208.4 332.008 209.258 331.875 210.241 331.875C210.975 331.875 211.633 331.933 212.216 332.05C212.816 332.167 213.3 332.3 213.666 332.45L212.716 335.175C212.433 335.092 212.125 335.017 211.791 334.95C211.458 334.867 211.075 334.825 210.641 334.825C210.125 334.825 209.741 334.983 209.491 335.3C209.258 335.617 209.141 336.017 209.141 336.5V337.35H212.366V340.15ZM220.359 337.1C221.626 337.1 222.709 337.342 223.609 337.825C224.526 338.308 225.234 339.008 225.734 339.925C226.234 340.842 226.484 341.967 226.484 343.3V345.1H217.684C217.718 346.15 218.026 346.975 218.609 347.575C219.209 348.175 220.034 348.475 221.084 348.475C221.968 348.475 222.768 348.392 223.484 348.225C224.201 348.042 224.943 347.767 225.709 347.4V350.275C225.043 350.608 224.334 350.85 223.584 351C222.851 351.167 221.959 351.25 220.909 351.25C219.543 351.25 218.334 351 217.284 350.5C216.234 349.983 215.409 349.208 214.809 348.175C214.209 347.142 213.909 345.842 213.909 344.275C213.909 342.675 214.176 341.35 214.709 340.3C215.259 339.233 216.018 338.433 216.984 337.9C217.951 337.367 219.076 337.1 220.359 337.1ZM220.384 339.75C219.668 339.75 219.068 339.983 218.584 340.45C218.118 340.917 217.843 341.642 217.759 342.625H222.984C222.984 342.075 222.884 341.583 222.684 341.15C222.501 340.717 222.218 340.375 221.834 340.125C221.451 339.875 220.968 339.75 220.384 339.75Z" fill="white"/>
<path d="M53.875 387H50.1V379.3H43.025V387H39.25V369.15H43.025V376.15H50.1V369.15H53.875V387ZM63.6912 373.1C64.9579 373.1 66.0412 373.342 66.9412 373.825C67.8579 374.308 68.5662 375.008 69.0662 375.925C69.5662 376.842 69.8162 377.967 69.8162 379.3V381.1H61.0162C61.0495 382.15 61.3579 382.975 61.9412 383.575C62.5412 384.175 63.3662 384.475 64.4162 384.475C65.2995 384.475 66.0995 384.392 66.8162 384.225C67.5329 384.042 68.2745 383.767 69.0412 383.4V386.275C68.3745 386.608 67.6662 386.85 66.9162 387C66.1829 387.167 65.2912 387.25 64.2412 387.25C62.8745 387.25 61.6662 387 60.6162 386.5C59.5662 385.983 58.7412 385.208 58.1412 384.175C57.5412 383.142 57.2412 381.842 57.2412 380.275C57.2412 378.675 57.5079 377.35 58.0412 376.3C58.5912 375.233 59.3495 374.433 60.3162 373.9C61.2829 373.367 62.4079 373.1 63.6912 373.1ZM63.7162 375.75C62.9995 375.75 62.3995 375.983 61.9162 376.45C61.4495 376.917 61.1745 377.642 61.0912 378.625H66.3162C66.3162 378.075 66.2162 377.583 66.0162 377.15C65.8329 376.717 65.5495 376.375 65.1662 376.125C64.7829 375.875 64.2995 375.75 63.7162 375.75ZM76.5617 387H72.8367V368H76.5617V387ZM86.0789 373.1C87.3456 373.1 88.4289 373.342 89.3289 373.825C90.2456 374.308 90.9539 375.008 91.4539 375.925C91.9539 376.842 92.2039 377.967 92.2039 379.3V381.1H83.4039C83.4372 382.15 83.7456 382.975 84.3289 383.575C84.9289 384.175 85.7539 384.475 86.8039 384.475C87.6872 384.475 88.4872 384.392 89.2039 384.225C89.9206 384.042 90.6622 383.767 91.4289 383.4V386.275C90.7622 386.608 90.0539 386.85 89.3039 387C88.5706 387.167 87.6789 387.25 86.6289 387.25C85.2622 387.25 84.0539 387 83.0039 386.5C81.9539 385.983 81.1289 385.208 80.5289 384.175C79.9289 383.142 79.6289 381.842 79.6289 380.275C79.6289 378.675 79.8956 377.35 80.4289 376.3C80.9789 375.233 81.7372 374.433 82.7039 373.9C83.6706 373.367 84.7956 373.1 86.0789 373.1ZM86.1039 375.75C85.3872 375.75 84.7872 375.983 84.3039 376.45C83.8372 376.917 83.5622 377.642 83.4789 378.625H88.7039C88.7039 378.075 88.6039 377.583 88.4039 377.15C88.2206 376.717 87.9372 376.375 87.5539 376.125C87.1706 375.875 86.6872 375.75 86.1039 375.75ZM102.974 373.1C104.441 373.1 105.616 373.5 106.499 374.3C107.383 375.083 107.824 376.35 107.824 378.1V387H104.099V379.025C104.099 378.042 103.924 377.308 103.574 376.825C103.224 376.325 102.666 376.075 101.899 376.075C100.766 376.075 99.9911 376.467 99.5744 377.25C99.1577 378.017 98.9494 379.125 98.9494 380.575V387H95.2244V373.35H98.0744L98.5744 375.1H98.7744C99.0744 374.633 99.4411 374.258 99.8744 373.975C100.308 373.675 100.791 373.458 101.324 373.325C101.858 373.175 102.408 373.1 102.974 373.1ZM117.28 373.1C118.547 373.1 119.63 373.342 120.53 373.825C121.447 374.308 122.155 375.008 122.655 375.925C123.155 376.842 123.405 377.967 123.405 379.3V381.1H114.605C114.638 382.15 114.947 382.975 115.53 383.575C116.13 384.175 116.955 384.475 118.005 384.475C118.888 384.475 119.688 384.392 120.405 384.225C121.122 384.042 121.863 383.767 122.63 383.4V386.275C121.963 386.608 121.255 386.85 120.505 387C119.772 387.167 118.88 387.25 117.83 387.25C116.463 387.25 115.255 387 114.205 386.5C113.155 385.983 112.33 385.208 111.73 384.175C111.13 383.142 110.83 381.842 110.83 380.275C110.83 378.675 111.097 377.35 111.63 376.3C112.18 375.233 112.938 374.433 113.905 373.9C114.872 373.367 115.997 373.1 117.28 373.1ZM117.305 375.75C116.588 375.75 115.988 375.983 115.505 376.45C115.038 376.917 114.763 377.642 114.68 378.625H119.905C119.905 378.075 119.805 377.583 119.605 377.15C119.422 376.717 119.138 376.375 118.755 376.125C118.372 375.875 117.888 375.75 117.305 375.75ZM125.721 378.162H132.19V380.738H125.721V378.162ZM135.71 387V369.15H139.485V383.875H146.735V387H135.71ZM155.146 373.075C156.979 373.075 158.379 373.475 159.346 374.275C160.329 375.058 160.821 376.267 160.821 377.9V387H158.221L157.496 385.15H157.396C157.012 385.633 156.612 386.033 156.196 386.35C155.796 386.667 155.329 386.892 154.796 387.025C154.279 387.175 153.637 387.25 152.871 387.25C152.071 387.25 151.346 387.1 150.696 386.8C150.062 386.483 149.562 386.008 149.196 385.375C148.829 384.725 148.646 383.908 148.646 382.925C148.646 381.475 149.154 380.408 150.171 379.725C151.187 379.025 152.712 378.642 154.746 378.575L157.121 378.5V377.9C157.121 377.183 156.929 376.658 156.546 376.325C156.179 375.992 155.662 375.825 154.996 375.825C154.329 375.825 153.679 375.925 153.046 376.125C152.412 376.308 151.779 376.542 151.146 376.825L149.921 374.3C150.654 373.917 151.462 373.617 152.346 373.4C153.246 373.183 154.179 373.075 155.146 373.075ZM155.671 380.725C154.471 380.758 153.637 380.975 153.171 381.375C152.704 381.775 152.471 382.3 152.471 382.95C152.471 383.517 152.637 383.925 152.971 384.175C153.304 384.408 153.737 384.525 154.271 384.525C155.071 384.525 155.746 384.292 156.296 383.825C156.846 383.342 157.121 382.667 157.121 381.8V380.675L155.671 380.725ZM172.384 373.1C173.85 373.1 175.025 373.5 175.909 374.3C176.792 375.083 177.234 376.35 177.234 378.1V387H173.509V379.025C173.509 378.042 173.334 377.308 172.984 376.825C172.634 376.325 172.075 376.075 171.309 376.075C170.175 376.075 169.4 376.467 168.984 377.25C168.567 378.017 168.359 379.125 168.359 380.575V387H164.634V373.35H167.484L167.984 375.1H168.184C168.484 374.633 168.85 374.258 169.284 373.975C169.717 373.675 170.2 373.458 170.734 373.325C171.267 373.175 171.817 373.1 172.384 373.1ZM185.489 373.1C186.323 373.1 187.073 373.267 187.739 373.6C188.406 373.933 188.973 374.433 189.439 375.1H189.539L189.839 373.35H192.989V387.025C192.989 388.325 192.731 389.417 192.214 390.3C191.714 391.183 190.956 391.85 189.939 392.3C188.923 392.767 187.664 393 186.164 393C185.198 393 184.298 392.942 183.464 392.825C182.648 392.708 181.848 392.5 181.064 392.2V389.225C181.631 389.458 182.198 389.65 182.764 389.8C183.348 389.967 183.939 390.083 184.539 390.15C185.156 390.233 185.773 390.275 186.389 390.275C187.356 390.275 188.073 390.017 188.539 389.5C189.023 388.983 189.264 388.208 189.264 387.175V386.9C189.264 386.617 189.273 386.325 189.289 386.025C189.323 385.725 189.348 385.458 189.364 385.225H189.264C188.798 385.942 188.239 386.458 187.589 386.775C186.939 387.092 186.206 387.25 185.389 387.25C183.773 387.25 182.506 386.633 181.589 385.4C180.689 384.15 180.239 382.417 180.239 380.2C180.239 378.7 180.448 377.425 180.864 376.375C181.281 375.308 181.881 374.5 182.664 373.95C183.464 373.383 184.406 373.1 185.489 373.1ZM186.664 376.125C186.081 376.125 185.589 376.283 185.189 376.6C184.806 376.9 184.514 377.358 184.314 377.975C184.131 378.575 184.039 379.333 184.039 380.25C184.039 381.617 184.256 382.642 184.689 383.325C185.123 383.992 185.798 384.325 186.714 384.325C187.198 384.325 187.614 384.267 187.964 384.15C188.314 384.017 188.598 383.808 188.814 383.525C189.048 383.225 189.223 382.842 189.339 382.375C189.456 381.908 189.514 381.342 189.514 380.675V380.225C189.514 379.242 189.414 378.45 189.214 377.85C189.014 377.25 188.706 376.817 188.289 376.55C187.873 376.267 187.331 376.125 186.664 376.125ZM202.51 373.1C203.776 373.1 204.86 373.342 205.76 373.825C206.676 374.308 207.385 375.008 207.885 375.925C208.385 376.842 208.635 377.967 208.635 379.3V381.1H199.835C199.868 382.15 200.176 382.975 200.76 383.575C201.36 384.175 202.185 384.475 203.235 384.475C204.118 384.475 204.918 384.392 205.635 384.225C206.351 384.042 207.093 383.767 207.86 383.4V386.275C207.193 386.608 206.485 386.85 205.735 387C205.001 387.167 204.11 387.25 203.06 387.25C201.693 387.25 200.485 387 199.435 386.5C198.385 385.983 197.56 385.208 196.96 384.175C196.36 383.142 196.06 381.842 196.06 380.275C196.06 378.675 196.326 377.35 196.86 376.3C197.41 375.233 198.168 374.433 199.135 373.9C200.101 373.367 201.226 373.1 202.51 373.1ZM202.535 375.75C201.818 375.75 201.218 375.983 200.735 376.45C200.268 376.917 199.993 377.642 199.91 378.625H205.135C205.135 378.075 205.035 377.583 204.835 377.15C204.651 376.717 204.368 376.375 203.985 376.125C203.601 375.875 203.118 375.75 202.535 375.75ZM210.95 378.162H217.42V380.738H210.95V378.162ZM46.025 401.975H53.1V411.225C52.1667 411.542 51.1917 411.792 50.175 411.975C49.175 412.158 48.0333 412.25 46.75 412.25C44.9833 412.25 43.475 411.9 42.225 411.2C40.9917 410.5 40.05 409.467 39.4 408.1C38.7667 406.733 38.45 405.05 38.45 403.05C38.45 401.183 38.8083 399.567 39.525 398.2C40.2583 396.833 41.3167 395.775 42.7 395.025C44.0833 394.275 45.775 393.9 47.775 393.9C48.725 393.9 49.6583 394 50.575 394.2C51.4917 394.4 52.325 394.667 53.075 395L51.825 398.025C51.275 397.742 50.65 397.508 49.95 397.325C49.25 397.142 48.5167 397.05 47.75 397.05C46.65 397.05 45.6917 397.3 44.875 397.8C44.075 398.3 43.45 399.008 43 399.925C42.5667 400.825 42.35 401.892 42.35 403.125C42.35 404.292 42.5083 405.325 42.825 406.225C43.1417 407.125 43.6417 407.833 44.325 408.35C45.0083 408.85 45.9 409.1 47 409.1C47.3667 409.1 47.6833 409.092 47.95 409.075C48.2333 409.042 48.4917 409.008 48.725 408.975C48.9583 408.925 49.1833 408.883 49.4 408.85V405.125H46.025V401.975ZM55.0908 398.35H59.1658L61.7408 406.025C61.8242 406.275 61.8908 406.525 61.9408 406.775C62.0075 407.025 62.0575 407.283 62.0908 407.55C62.1408 407.817 62.1742 408.1 62.1908 408.4H62.2658C62.3158 407.967 62.3825 407.558 62.4658 407.175C62.5658 406.775 62.6742 406.392 62.7908 406.025L65.3158 398.35H69.3158L63.5408 413.75C63.1908 414.683 62.7325 415.467 62.1658 416.1C61.6158 416.733 60.9742 417.208 60.2408 417.525C59.5075 417.842 58.7075 418 57.8408 418C57.4242 418 57.0575 417.975 56.7408 417.925C56.4408 417.892 56.1742 417.85 55.9408 417.8V414.85C56.1242 414.883 56.3408 414.917 56.5908 414.95C56.8575 414.983 57.1325 415 57.4158 415C57.9325 415 58.3742 414.892 58.7408 414.675C59.1242 414.458 59.4408 414.158 59.6908 413.775C59.9408 413.408 60.1408 413.008 60.2908 412.575L60.5158 411.9L55.0908 398.35ZM87.2992 398.1C88.8492 398.1 90.0159 398.5 90.7992 399.3C91.5992 400.083 91.9992 401.35 91.9992 403.1V412H88.2742V404.025C88.2742 403.042 88.1076 402.308 87.7742 401.825C87.4409 401.325 86.9242 401.075 86.2242 401.075C85.2409 401.075 84.5409 401.425 84.1242 402.125C83.7076 402.825 83.4992 403.833 83.4992 405.15V412H79.7742V404.025C79.7742 403.375 79.6992 402.833 79.5492 402.4C79.3992 401.967 79.1742 401.642 78.8742 401.425C78.5742 401.192 78.1909 401.075 77.7242 401.075C77.0409 401.075 76.4992 401.25 76.0992 401.6C75.6992 401.95 75.4159 402.458 75.2492 403.125C75.0826 403.792 74.9992 404.608 74.9992 405.575V412H71.2742V398.35H74.1242L74.6242 400.1H74.8242C75.1076 399.633 75.4576 399.258 75.8742 398.975C76.2909 398.675 76.7492 398.458 77.2492 398.325C77.7659 398.175 78.2826 398.1 78.7992 398.1C79.7992 398.1 80.6492 398.267 81.3492 398.6C82.0492 398.917 82.5826 399.417 82.9492 400.1H83.2742C83.6909 399.4 84.2659 398.892 84.9992 398.575C85.7492 398.258 86.5159 398.1 87.2992 398.1ZM103.585 398.1C105.051 398.1 106.226 398.5 107.11 399.3C107.993 400.083 108.435 401.35 108.435 403.1V412H104.71V404.025C104.71 403.042 104.535 402.308 104.185 401.825C103.835 401.325 103.276 401.075 102.51 401.075C101.376 401.075 100.601 401.467 100.185 402.25C99.7681 403.017 99.5598 404.125 99.5598 405.575V412H95.8348V398.35H98.6848L99.1848 400.1H99.3848C99.6848 399.633 100.051 399.258 100.485 398.975C100.918 398.675 101.401 398.458 101.935 398.325C102.468 398.175 103.018 398.1 103.585 398.1ZM117.865 398.075C119.699 398.075 121.099 398.475 122.065 399.275C123.049 400.058 123.54 401.267 123.54 402.9V412H120.94L120.215 410.15H120.115C119.732 410.633 119.332 411.033 118.915 411.35C118.515 411.667 118.049 411.892 117.515 412.025C116.999 412.175 116.357 412.25 115.59 412.25C114.79 412.25 114.065 412.1 113.415 411.8C112.782 411.483 112.282 411.008 111.915 410.375C111.549 409.725 111.365 408.908 111.365 407.925C111.365 406.475 111.874 405.408 112.89 404.725C113.907 404.025 115.432 403.642 117.465 403.575L119.84 403.5V402.9C119.84 402.183 119.649 401.658 119.265 401.325C118.899 400.992 118.382 400.825 117.715 400.825C117.049 400.825 116.399 400.925 115.765 401.125C115.132 401.308 114.499 401.542 113.865 401.825L112.64 399.3C113.374 398.917 114.182 398.617 115.065 398.4C115.965 398.183 116.899 398.075 117.865 398.075ZM118.39 405.725C117.19 405.758 116.357 405.975 115.89 406.375C115.424 406.775 115.19 407.3 115.19 407.95C115.19 408.517 115.357 408.925 115.69 409.175C116.024 409.408 116.457 409.525 116.99 409.525C117.79 409.525 118.465 409.292 119.015 408.825C119.565 408.342 119.84 407.667 119.84 406.8V405.675L118.39 405.725ZM136.878 407.95C136.878 408.867 136.662 409.65 136.228 410.3C135.795 410.933 135.145 411.417 134.278 411.75C133.412 412.083 132.337 412.25 131.053 412.25C130.103 412.25 129.287 412.183 128.603 412.05C127.92 411.933 127.237 411.733 126.553 411.45V408.375C127.287 408.708 128.078 408.983 128.928 409.2C129.778 409.417 130.528 409.525 131.178 409.525C131.912 409.525 132.428 409.417 132.728 409.2C133.045 408.983 133.203 408.7 133.203 408.35C133.203 408.117 133.137 407.908 133.003 407.725C132.887 407.542 132.62 407.333 132.203 407.1C131.787 406.867 131.137 406.567 130.253 406.2C129.403 405.833 128.703 405.475 128.153 405.125C127.603 404.758 127.195 404.325 126.928 403.825C126.662 403.308 126.528 402.667 126.528 401.9C126.528 400.633 127.02 399.683 128.003 399.05C128.987 398.417 130.295 398.1 131.928 398.1C132.778 398.1 133.587 398.183 134.353 398.35C135.12 398.517 135.912 398.792 136.728 399.175L135.603 401.85C135.153 401.65 134.72 401.475 134.303 401.325C133.887 401.175 133.478 401.058 133.078 400.975C132.695 400.892 132.295 400.85 131.878 400.85C131.328 400.85 130.912 400.925 130.628 401.075C130.362 401.225 130.228 401.45 130.228 401.75C130.228 401.967 130.295 402.167 130.428 402.35C130.578 402.517 130.853 402.7 131.253 402.9C131.67 403.1 132.278 403.367 133.078 403.7C133.862 404.017 134.537 404.35 135.103 404.7C135.67 405.033 136.103 405.458 136.403 405.975C136.72 406.475 136.878 407.133 136.878 407.95ZM143.505 398.35V412H139.78V398.35H143.505ZM141.655 393C142.205 393 142.68 393.133 143.08 393.4C143.48 393.65 143.68 394.125 143.68 394.825C143.68 395.508 143.48 395.983 143.08 396.25C142.68 396.517 142.205 396.65 141.655 396.65C141.088 396.65 140.605 396.517 140.205 396.25C139.822 395.983 139.63 395.508 139.63 394.825C139.63 394.125 139.822 393.65 140.205 393.4C140.605 393.133 141.088 393 141.655 393ZM159.922 398.35V412H157.072L156.572 410.25H156.372C156.089 410.717 155.722 411.1 155.272 411.4C154.839 411.683 154.356 411.892 153.822 412.025C153.289 412.175 152.739 412.25 152.172 412.25C151.206 412.25 150.356 412.075 149.622 411.725C148.889 411.375 148.322 410.833 147.922 410.1C147.522 409.367 147.322 408.417 147.322 407.25V398.35H151.047V406.325C151.047 407.292 151.222 408.025 151.572 408.525C151.922 409.025 152.481 409.275 153.247 409.275C154.014 409.275 154.606 409.1 155.022 408.75C155.456 408.4 155.756 407.892 155.922 407.225C156.106 406.558 156.197 405.742 156.197 404.775V398.35H159.922ZM179.853 398.1C181.403 398.1 182.57 398.5 183.353 399.3C184.153 400.083 184.553 401.35 184.553 403.1V412H180.828V404.025C180.828 403.042 180.661 402.308 180.328 401.825C179.995 401.325 179.478 401.075 178.778 401.075C177.795 401.075 177.095 401.425 176.678 402.125C176.261 402.825 176.053 403.833 176.053 405.15V412H172.328V404.025C172.328 403.375 172.253 402.833 172.103 402.4C171.953 401.967 171.728 401.642 171.428 401.425C171.128 401.192 170.745 401.075 170.278 401.075C169.595 401.075 169.053 401.25 168.653 401.6C168.253 401.95 167.97 402.458 167.803 403.125C167.636 403.792 167.553 404.608 167.553 405.575V412H163.828V398.35H166.678L167.178 400.1H167.378C167.661 399.633 168.011 399.258 168.428 398.975C168.845 398.675 169.303 398.458 169.803 398.325C170.32 398.175 170.836 398.1 171.353 398.1C172.353 398.1 173.203 398.267 173.903 398.6C174.603 398.917 175.136 399.417 175.503 400.1H175.828C176.245 399.4 176.82 398.892 177.553 398.575C178.303 398.258 179.07 398.1 179.853 398.1Z" fill="#9D9D9D"/>
<path d="M44.6923 268.064C46.5897 268.064 48.0256 268.85 49 270.423C49.9829 271.996 50.4744 274.244 50.4744 277.167C50.4744 280.098 49.9829 282.355 49 283.936C48.0256 285.509 46.5897 286.295 44.6923 286.295C42.7949 286.295 41.3547 285.509 40.3718 283.936C39.3974 282.355 38.9103 280.098 38.9103 277.167C38.9103 274.244 39.3974 271.996 40.3718 270.423C41.3547 268.85 42.7949 268.064 44.6923 268.064ZM44.6923 269.795C43.6068 269.795 42.7521 270.372 42.1282 271.526C41.5043 272.671 41.1923 274.551 41.1923 277.167C41.1923 279.124 41.3419 280.662 41.641 281.782L47.0385 270.936C46.5 270.175 45.7179 269.795 44.6923 269.795ZM48.2051 277.167C48.2051 275.192 48.0513 273.65 47.7436 272.538L42.3718 283.423C42.9103 284.175 43.6838 284.551 44.6923 284.551C45.7863 284.551 46.6453 283.974 47.2692 282.821C47.8932 281.667 48.2051 279.782 48.2051 277.167ZM59.8039 268.09C61.727 268.09 63.1672 268.739 64.1244 270.038C65.0817 271.338 65.5603 273.094 65.5603 275.308C65.5603 277.094 65.3766 278.603 65.0091 279.833C64.6501 281.064 64.0903 282.094 63.3296 282.923C62.5689 283.752 61.5945 284.449 60.4065 285.013C59.2185 285.577 57.7997 286.085 56.1501 286.538L55.6501 284.897C57.2826 284.444 58.6458 283.906 59.7398 283.282C60.8424 282.658 61.6843 281.876 62.2655 280.936C62.8467 279.987 63.18 278.816 63.2655 277.423C62.7527 278.047 62.1586 278.556 61.4834 278.949C60.8082 279.333 60.0262 279.526 59.1373 279.526C58.1544 279.526 57.2826 279.303 56.5219 278.859C55.7697 278.406 55.1757 277.761 54.7398 276.923C54.3039 276.077 54.086 275.064 54.086 273.885C54.086 272.628 54.3424 271.568 54.8552 270.705C55.368 269.842 56.0561 269.192 56.9193 268.756C57.7826 268.312 58.7441 268.09 59.8039 268.09ZM56.3168 273.962C56.3168 275.312 56.5988 276.291 57.1629 276.897C57.7356 277.504 58.5262 277.808 59.5347 277.808C60.3296 277.808 61.0262 277.603 61.6244 277.192C62.2313 276.782 62.7954 276.222 63.3168 275.513C63.2911 273.436 62.992 271.97 62.4193 271.115C61.8467 270.261 60.9749 269.833 59.8039 269.833C57.4791 269.833 56.3168 271.209 56.3168 273.962ZM70.8515 288.641L69.1079 287.872L80.0822 265.244L81.8002 266.09L70.8515 288.641ZM90.0528 268.064C91.1639 268.064 92.1169 268.282 92.9118 268.718C93.7067 269.145 94.3135 269.731 94.7323 270.474C95.1597 271.218 95.3733 272.056 95.3733 272.987C95.3733 273.799 95.2323 274.594 94.9503 275.372C94.6682 276.141 94.2152 276.953 93.5913 277.808C92.9759 278.654 92.1639 279.594 91.1554 280.628C90.1469 281.662 88.9161 282.842 87.4631 284.167H95.7836L95.5144 286H85.0144V284.244C86.681 282.645 88.04 281.295 89.0913 280.192C90.1511 279.09 90.9716 278.141 91.5528 277.346C92.134 276.543 92.5357 275.808 92.758 275.141C92.9887 274.474 93.1041 273.782 93.1041 273.064C93.1041 272.073 92.8263 271.291 92.2708 270.718C91.7152 270.145 90.9417 269.859 89.9503 269.859C89.0785 269.859 88.3648 270.009 87.8092 270.308C87.2537 270.607 86.6981 271.085 86.1426 271.744L84.6554 270.59C85.3563 269.735 86.1298 269.103 86.9759 268.692C87.8306 268.274 88.8563 268.064 90.0528 268.064ZM106.216 268.064C108.113 268.064 109.549 268.85 110.523 270.423C111.506 271.996 111.998 274.244 111.998 277.167C111.998 280.098 111.506 282.355 110.523 283.936C109.549 285.509 108.113 286.295 106.216 286.295C104.318 286.295 102.878 285.509 101.895 283.936C100.921 282.355 100.434 280.098 100.434 277.167C100.434 274.244 100.921 271.996 101.895 270.423C102.878 268.85 104.318 268.064 106.216 268.064ZM106.216 269.795C105.13 269.795 104.276 270.372 103.652 271.526C103.028 272.671 102.716 274.551 102.716 277.167C102.716 279.124 102.865 280.662 103.164 281.782L108.562 270.936C108.023 270.175 107.241 269.795 106.216 269.795ZM109.729 277.167C109.729 275.192 109.575 273.65 109.267 272.538L103.895 283.423C104.434 284.175 105.207 284.551 106.216 284.551C107.31 284.551 108.169 283.974 108.793 282.821C109.417 281.667 109.729 279.782 109.729 277.167ZM127.174 284.244V286H116.981V284.244H121.327V270.679L117.276 273.141L116.34 271.603L121.597 268.346H123.481V284.244H127.174ZM140.554 274.974V279.987H142.836V281.705H140.554V286H138.477L138.465 281.705H131.131V280.141L136.311 268.064L138.106 268.821L133.413 279.987H138.477L138.76 274.974H140.554ZM162.598 278.91V277.038H172.88V278.91H162.598ZM198.501 268.064C200.398 268.064 201.834 268.85 202.809 270.423C203.791 271.996 204.283 274.244 204.283 277.167C204.283 280.098 203.791 282.355 202.809 283.936C201.834 285.509 200.398 286.295 198.501 286.295C196.603 286.295 195.163 285.509 194.18 283.936C193.206 282.355 192.719 280.098 192.719 277.167C192.719 274.244 193.206 271.996 194.18 270.423C195.163 268.85 196.603 268.064 198.501 268.064ZM198.501 269.795C197.415 269.795 196.561 270.372 195.937 271.526C195.313 272.671 195.001 274.551 195.001 277.167C195.001 279.124 195.15 280.662 195.45 281.782L200.847 270.936C200.309 270.175 199.527 269.795 198.501 269.795ZM202.014 277.167C202.014 275.192 201.86 273.65 201.552 272.538L196.18 283.423C196.719 284.175 197.492 284.551 198.501 284.551C199.595 284.551 200.454 283.974 201.078 282.821C201.702 281.667 202.014 279.782 202.014 277.167ZM212.1 286.244L210.087 285.628L216.972 270.141H208.689V268.346H219.138V270L212.1 286.244ZM224.66 288.641L222.916 287.872L233.891 265.244L235.609 266.09L224.66 288.641ZM243.861 268.064C244.973 268.064 245.926 268.282 246.72 268.718C247.515 269.145 248.122 269.731 248.541 270.474C248.968 271.218 249.182 272.056 249.182 272.987C249.182 273.799 249.041 274.594 248.759 275.372C248.477 276.141 248.024 276.953 247.4 277.808C246.785 278.654 245.973 279.594 244.964 280.628C243.955 281.662 242.725 282.842 241.272 284.167H249.592L249.323 286H238.823V284.244C240.49 282.645 241.849 281.295 242.9 280.192C243.96 279.09 244.78 278.141 245.361 277.346C245.943 276.543 246.344 275.808 246.567 275.141C246.797 274.474 246.913 273.782 246.913 273.064C246.913 272.073 246.635 271.291 246.079 270.718C245.524 270.145 244.75 269.859 243.759 269.859C242.887 269.859 242.173 270.009 241.618 270.308C241.062 270.607 240.507 271.085 239.951 271.744L238.464 270.59C239.165 269.735 239.938 269.103 240.785 268.692C241.639 268.274 242.665 268.064 243.861 268.064ZM260.024 268.064C261.922 268.064 263.358 268.85 264.332 270.423C265.315 271.996 265.806 274.244 265.806 277.167C265.806 280.098 265.315 282.355 264.332 283.936C263.358 285.509 261.922 286.295 260.024 286.295C258.127 286.295 256.687 285.509 255.704 283.936C254.729 282.355 254.242 280.098 254.242 277.167C254.242 274.244 254.729 271.996 255.704 270.423C256.687 268.85 258.127 268.064 260.024 268.064ZM260.024 269.795C258.939 269.795 258.084 270.372 257.46 271.526C256.836 272.671 256.524 274.551 256.524 277.167C256.524 279.124 256.674 280.662 256.973 281.782L262.37 270.936C261.832 270.175 261.05 269.795 260.024 269.795ZM263.537 277.167C263.537 275.192 263.383 273.65 263.076 272.538L257.704 283.423C258.242 284.175 259.016 284.551 260.024 284.551C261.118 284.551 261.977 283.974 262.601 282.821C263.225 281.667 263.537 279.782 263.537 277.167ZM280.982 284.244V286H270.79V284.244H275.136V270.679L271.085 273.141L270.149 271.603L275.405 268.346H277.29V284.244H280.982ZM289.004 286.244L286.991 285.628L293.876 270.141H285.594V268.346H296.042V270L289.004 286.244Z" fill="white"/>
<circle cx="15" cy="279" r="15" fill="#2F27CE"/>
</svg>
