<svg width="363" height="476" viewBox="0 0 363 476" fill="none" xmlns="http://www.w3.org/2000/svg">
<path d="M15.0001 5L15 471" stroke="#DEDCFF" stroke-width="10" stroke-linecap="round"/>
<path d="M50.175 90L48.875 85.75H42.375L41.075 90H37L43.3 72.075H47.925L54.25 90H50.175ZM46.675 78.425C46.5917 78.1417 46.4833 77.7833 46.35 77.35C46.2167 76.9167 46.0833 76.475 45.95 76.025C45.8167 75.575 45.7083 75.1833 45.625 74.85C45.5417 75.1833 45.425 75.6 45.275 76.1C45.1417 76.5833 45.0083 77.05 44.875 77.5C44.7583 77.9333 44.6667 78.2417 44.6 78.425L43.325 82.575H47.975L46.675 78.425ZM68.7357 76.35V90H65.8857L65.3857 88.25H65.1857C64.9024 88.7167 64.5357 89.1 64.0857 89.4C63.6524 89.6833 63.1691 89.8917 62.6357 90.025C62.1024 90.175 61.5524 90.25 60.9857 90.25C60.0191 90.25 59.1691 90.075 58.4357 89.725C57.7024 89.375 57.1357 88.8333 56.7357 88.1C56.3357 87.3667 56.1357 86.4167 56.1357 85.25V76.35H59.8607V84.325C59.8607 85.2917 60.0357 86.025 60.3857 86.525C60.7357 87.025 61.2941 87.275 62.0607 87.275C62.8274 87.275 63.4191 87.1 63.8357 86.75C64.2691 86.4 64.5691 85.8917 64.7357 85.225C64.9191 84.5583 65.0107 83.7417 65.0107 82.775V76.35H68.7357ZM82.1664 85.95C82.1664 86.8667 81.9497 87.65 81.5164 88.3C81.0831 88.9333 80.4331 89.4167 79.5664 89.75C78.6997 90.0833 77.6247 90.25 76.3414 90.25C75.3914 90.25 74.5747 90.1833 73.8914 90.05C73.2081 89.9333 72.5247 89.7333 71.8414 89.45V86.375C72.5747 86.7083 73.3664 86.9833 74.2164 87.2C75.0664 87.4167 75.8164 87.525 76.4664 87.525C77.1997 87.525 77.7164 87.4167 78.0164 87.2C78.3331 86.9833 78.4914 86.7 78.4914 86.35C78.4914 86.1167 78.4247 85.9083 78.2914 85.725C78.1747 85.5417 77.9081 85.3333 77.4914 85.1C77.0747 84.8667 76.4247 84.5667 75.5414 84.2C74.6914 83.8333 73.9914 83.475 73.4414 83.125C72.8914 82.7583 72.4831 82.325 72.2164 81.825C71.9497 81.3083 71.8164 80.6667 71.8164 79.9C71.8164 78.6333 72.3081 77.6833 73.2914 77.05C74.2747 76.4167 75.5831 76.1 77.2164 76.1C78.0664 76.1 78.8747 76.1833 79.6414 76.35C80.4081 76.5167 81.1997 76.7917 82.0164 77.175L80.8914 79.85C80.4414 79.65 80.0081 79.475 79.5914 79.325C79.1747 79.175 78.7664 79.0583 78.3664 78.975C77.9831 78.8917 77.5831 78.85 77.1664 78.85C76.6164 78.85 76.1997 78.925 75.9164 79.075C75.6497 79.225 75.5164 79.45 75.5164 79.75C75.5164 79.9667 75.5831 80.1667 75.7164 80.35C75.8664 80.5167 76.1414 80.7 76.5414 80.9C76.9581 81.1 77.5664 81.3667 78.3664 81.7C79.1497 82.0167 79.8247 82.35 80.3914 82.7C80.9581 83.0333 81.3914 83.4583 81.6914 83.975C82.0081 84.475 82.1664 85.1333 82.1664 85.95ZM88.7932 75.425C88.7932 75.9417 88.7765 76.45 88.7432 76.95C88.7098 77.45 88.6765 77.8417 88.6432 78.125H88.7932C89.1598 77.5583 89.6515 77.0833 90.2682 76.7C90.8848 76.3 91.6848 76.1 92.6682 76.1C94.2015 76.1 95.4432 76.7 96.3932 77.9C97.3432 79.0833 97.8182 80.8333 97.8182 83.15C97.8182 84.7 97.5932 86.0083 97.1432 87.075C96.7098 88.125 96.1015 88.9167 95.3182 89.45C94.5348 89.9833 93.6182 90.25 92.5682 90.25C91.5682 90.25 90.7765 90.075 90.1932 89.725C89.6265 89.3583 89.1598 88.95 88.7932 88.5H88.5432L87.9182 90H85.0682V71H88.7932V75.425ZM91.4682 79.075C90.8182 79.075 90.3015 79.2083 89.9182 79.475C89.5348 79.7417 89.2515 80.15 89.0682 80.7C88.9015 81.2333 88.8098 81.9083 88.7932 82.725V83.125C88.7932 84.4417 88.9848 85.4583 89.3682 86.175C89.7682 86.875 90.4848 87.225 91.5182 87.225C92.2848 87.225 92.8932 86.875 93.3432 86.175C93.7932 85.4583 94.0182 84.4333 94.0182 83.1C94.0182 81.7667 93.7848 80.7667 93.3182 80.1C92.8682 79.4167 92.2515 79.075 91.4682 79.075ZM104.613 76.35V90H100.888V76.35H104.613ZM102.763 71C103.313 71 103.788 71.1333 104.188 71.4C104.588 71.65 104.788 72.125 104.788 72.825C104.788 73.5083 104.588 73.9833 104.188 74.25C103.788 74.5167 103.313 74.65 102.763 74.65C102.197 74.65 101.713 74.5167 101.313 74.25C100.93 73.9833 100.738 73.5083 100.738 72.825C100.738 72.125 100.93 71.65 101.313 71.4C101.713 71.1333 102.197 71 102.763 71ZM112.231 90H108.506V71H112.231V90ZM120.448 90.25C118.931 90.25 117.69 89.6583 116.723 88.475C115.773 87.275 115.298 85.5167 115.298 83.2C115.298 80.8667 115.781 79.1 116.748 77.9C117.715 76.7 118.981 76.1 120.548 76.1C121.198 76.1 121.773 76.1917 122.273 76.375C122.773 76.5417 123.198 76.775 123.548 77.075C123.915 77.375 124.223 77.7167 124.473 78.1H124.598C124.548 77.8333 124.49 77.45 124.423 76.95C124.356 76.4333 124.323 75.9083 124.323 75.375V71H128.048V90H125.198L124.473 88.225H124.323C124.09 88.5917 123.79 88.9333 123.423 89.25C123.073 89.55 122.656 89.7917 122.173 89.975C121.69 90.1583 121.115 90.25 120.448 90.25ZM121.748 87.275C122.781 87.275 123.506 86.975 123.923 86.375C124.34 85.7583 124.556 84.8417 124.573 83.625V83.225C124.573 81.8917 124.365 80.875 123.948 80.175C123.548 79.475 122.798 79.125 121.698 79.125C120.881 79.125 120.24 79.4833 119.773 80.2C119.306 80.9 119.073 81.9167 119.073 83.25C119.073 84.5833 119.306 85.5917 119.773 86.275C120.24 86.9417 120.898 87.275 121.748 87.275ZM144.468 76.35V90H141.618L141.118 88.25H140.918C140.635 88.7167 140.268 89.1 139.818 89.4C139.385 89.6833 138.901 89.8917 138.368 90.025C137.835 90.175 137.285 90.25 136.718 90.25C135.751 90.25 134.901 90.075 134.168 89.725C133.435 89.375 132.868 88.8333 132.468 88.1C132.068 87.3667 131.868 86.4167 131.868 85.25V76.35H135.593V84.325C135.593 85.2917 135.768 86.025 136.118 86.525C136.468 87.025 137.026 87.275 137.793 87.275C138.56 87.275 139.151 87.1 139.568 86.75C140.001 86.4 140.301 85.8917 140.468 85.225C140.651 84.5583 140.743 83.7417 140.743 82.775V76.35H144.468ZM156.124 76.1C157.59 76.1 158.765 76.5 159.649 77.3C160.532 78.0833 160.974 79.35 160.974 81.1V90H157.249V82.025C157.249 81.0417 157.074 80.3083 156.724 79.825C156.374 79.325 155.815 79.075 155.049 79.075C153.915 79.075 153.14 79.4667 152.724 80.25C152.307 81.0167 152.099 82.125 152.099 83.575V90H148.374V76.35H151.224L151.724 78.1H151.924C152.224 77.6333 152.59 77.2583 153.024 76.975C153.457 76.675 153.94 76.4583 154.474 76.325C155.007 76.175 155.557 76.1 156.124 76.1ZM169.229 76.1C170.063 76.1 170.813 76.2667 171.479 76.6C172.146 76.9333 172.713 77.4333 173.179 78.1H173.279L173.579 76.35H176.729V90.025C176.729 91.325 176.471 92.4167 175.954 93.3C175.454 94.1833 174.696 94.85 173.679 95.3C172.663 95.7667 171.404 96 169.904 96C168.938 96 168.038 95.9417 167.204 95.825C166.388 95.7083 165.588 95.5 164.804 95.2V92.225C165.371 92.4583 165.938 92.65 166.504 92.8C167.088 92.9667 167.679 93.0833 168.279 93.15C168.896 93.2333 169.513 93.275 170.129 93.275C171.096 93.275 171.813 93.0167 172.279 92.5C172.763 91.9833 173.004 91.2083 173.004 90.175V89.9C173.004 89.6167 173.013 89.325 173.029 89.025C173.063 88.725 173.088 88.4583 173.104 88.225H173.004C172.538 88.9417 171.979 89.4583 171.329 89.775C170.679 90.0917 169.946 90.25 169.129 90.25C167.513 90.25 166.246 89.6333 165.329 88.4C164.429 87.15 163.979 85.4167 163.979 83.2C163.979 81.7 164.188 80.425 164.604 79.375C165.021 78.3083 165.621 77.5 166.404 76.95C167.204 76.3833 168.146 76.1 169.229 76.1ZM170.404 79.125C169.821 79.125 169.329 79.2833 168.929 79.6C168.546 79.9 168.254 80.3583 168.054 80.975C167.871 81.575 167.779 82.3333 167.779 83.25C167.779 84.6167 167.996 85.6417 168.429 86.325C168.863 86.9917 169.538 87.325 170.454 87.325C170.938 87.325 171.354 87.2667 171.704 87.15C172.054 87.0167 172.338 86.8083 172.554 86.525C172.788 86.225 172.963 85.8417 173.079 85.375C173.196 84.9083 173.254 84.3417 173.254 83.675V83.225C173.254 82.2417 173.154 81.45 172.954 80.85C172.754 80.25 172.446 79.8167 172.029 79.55C171.613 79.2667 171.071 79.125 170.404 79.125ZM196.619 90H185.844V87.8L192.169 79.2H186.219V76.35H196.394V78.775L190.244 87.15H196.619V90ZM211.851 76.35V90H209.001L208.501 88.25H208.301C208.018 88.7167 207.651 89.1 207.201 89.4C206.768 89.6833 206.284 89.8917 205.751 90.025C205.218 90.175 204.668 90.25 204.101 90.25C203.134 90.25 202.284 90.075 201.551 89.725C200.818 89.375 200.251 88.8333 199.851 88.1C199.451 87.3667 199.251 86.4167 199.251 85.25V76.35H202.976V84.325C202.976 85.2917 203.151 86.025 203.501 86.525C203.851 87.025 204.409 87.275 205.176 87.275C205.943 87.275 206.534 87.1 206.951 86.75C207.384 86.4 207.684 85.8917 207.851 85.225C208.034 84.5583 208.126 83.7417 208.126 82.775V76.35H211.851ZM231.782 76.1C233.332 76.1 234.498 76.5 235.282 77.3C236.082 78.0833 236.482 79.35 236.482 81.1V90H232.757V82.025C232.757 81.0417 232.59 80.3083 232.257 79.825C231.923 79.325 231.407 79.075 230.707 79.075C229.723 79.075 229.023 79.425 228.607 80.125C228.19 80.825 227.982 81.8333 227.982 83.15V90H224.257V82.025C224.257 81.375 224.182 80.8333 224.032 80.4C223.882 79.9667 223.657 79.6417 223.357 79.425C223.057 79.1917 222.673 79.075 222.207 79.075C221.523 79.075 220.982 79.25 220.582 79.6C220.182 79.95 219.898 80.4583 219.732 81.125C219.565 81.7917 219.482 82.6083 219.482 83.575V90H215.757V76.35H218.607L219.107 78.1H219.307C219.59 77.6333 219.94 77.2583 220.357 76.975C220.773 76.675 221.232 76.4583 221.732 76.325C222.248 76.175 222.765 76.1 223.282 76.1C224.282 76.1 225.132 76.2667 225.832 76.6C226.532 76.9167 227.065 77.4167 227.432 78.1H227.757C228.173 77.4 228.748 76.8917 229.482 76.575C230.232 76.2583 230.998 76.1 231.782 76.1ZM42.975 115H39.25V97.15H49.475V100.25H42.975V104.85H49.025V107.95H42.975V115ZM58.2707 101.075C60.104 101.075 61.504 101.475 62.4707 102.275C63.454 103.058 63.9457 104.267 63.9457 105.9V115H61.3457L60.6207 113.15H60.5207C60.1374 113.633 59.7374 114.033 59.3207 114.35C58.9207 114.667 58.454 114.892 57.9207 115.025C57.404 115.175 56.7624 115.25 55.9957 115.25C55.1957 115.25 54.4707 115.1 53.8207 114.8C53.1874 114.483 52.6874 114.008 52.3207 113.375C51.954 112.725 51.7707 111.908 51.7707 110.925C51.7707 109.475 52.279 108.408 53.2957 107.725C54.3124 107.025 55.8374 106.642 57.8707 106.575L60.2457 106.5V105.9C60.2457 105.183 60.054 104.658 59.6707 104.325C59.304 103.992 58.7874 103.825 58.1207 103.825C57.454 103.825 56.804 103.925 56.1707 104.125C55.5374 104.308 54.904 104.542 54.2707 104.825L53.0457 102.3C53.779 101.917 54.5874 101.617 55.4707 101.4C56.3707 101.183 57.304 101.075 58.2707 101.075ZM58.7957 108.725C57.5957 108.758 56.7624 108.975 56.2957 109.375C55.829 109.775 55.5957 110.3 55.5957 110.95C55.5957 111.517 55.7624 111.925 56.0957 112.175C56.429 112.408 56.8624 112.525 57.3957 112.525C58.1957 112.525 58.8707 112.292 59.4207 111.825C59.9707 111.342 60.2457 110.667 60.2457 109.8V108.675L58.7957 108.725ZM73.3086 115.25C71.9586 115.25 70.8086 115.008 69.8586 114.525C68.9086 114.025 68.1836 113.258 67.6836 112.225C67.1836 111.192 66.9336 109.867 66.9336 108.25C66.9336 106.583 67.2169 105.225 67.7836 104.175C68.3503 103.125 69.1336 102.35 70.1336 101.85C71.1503 101.35 72.3169 101.1 73.6336 101.1C74.5669 101.1 75.3753 101.192 76.0586 101.375C76.7586 101.558 77.3669 101.775 77.8836 102.025L76.7836 104.9C76.2003 104.667 75.6503 104.475 75.1336 104.325C74.6336 104.175 74.1336 104.1 73.6336 104.1C72.9836 104.1 72.4419 104.258 72.0086 104.575C71.5753 104.875 71.2503 105.333 71.0336 105.95C70.8336 106.55 70.7336 107.308 70.7336 108.225C70.7336 109.125 70.8419 109.875 71.0586 110.475C71.2919 111.058 71.6253 111.5 72.0586 111.8C72.4919 112.083 73.0169 112.225 73.6336 112.225C74.4169 112.225 75.1086 112.125 75.7086 111.925C76.3086 111.708 76.8919 111.417 77.4586 111.05V114.225C76.8919 114.592 76.2919 114.85 75.6586 115C75.0419 115.167 74.2586 115.25 73.3086 115.25ZM84.3254 99.875C84.3254 100.542 84.3004 101.183 84.2504 101.8C84.2171 102.417 84.1837 102.85 84.1504 103.1H84.3504C84.6504 102.633 85.0004 102.258 85.4004 101.975C85.8004 101.675 86.2421 101.458 86.7254 101.325C87.2254 101.175 87.7504 101.1 88.3004 101.1C89.2837 101.1 90.1421 101.275 90.8754 101.625C91.6087 101.975 92.1754 102.517 92.5754 103.25C92.9921 103.983 93.2004 104.933 93.2004 106.1V115H89.4754V107.025C89.4754 106.042 89.2921 105.308 88.9254 104.825C88.5754 104.325 88.0254 104.075 87.2754 104.075C86.5254 104.075 85.9337 104.25 85.5004 104.6C85.0837 104.95 84.7837 105.458 84.6004 106.125C84.4171 106.792 84.3254 107.608 84.3254 108.575V115H80.6004V96H84.3254V99.875ZM100.756 101.35V115H97.0311V101.35H100.756ZM98.9061 96C99.4561 96 99.9311 96.1333 100.331 96.4C100.731 96.65 100.931 97.125 100.931 97.825C100.931 98.5083 100.731 98.9833 100.331 99.25C99.9311 99.5167 99.4561 99.65 98.9061 99.65C98.3394 99.65 97.8561 99.5167 97.4561 99.25C97.0727 98.9833 96.8811 98.5083 96.8811 97.825C96.8811 97.125 97.0727 96.65 97.4561 96.4C97.8561 96.1333 98.3394 96 98.9061 96ZM112.398 101.1C113.865 101.1 115.04 101.5 115.923 102.3C116.807 103.083 117.248 104.35 117.248 106.1V115H113.523V107.025C113.523 106.042 113.348 105.308 112.998 104.825C112.648 104.325 112.09 104.075 111.323 104.075C110.19 104.075 109.415 104.467 108.998 105.25C108.582 106.017 108.373 107.125 108.373 108.575V115H104.648V101.35H107.498L107.998 103.1H108.198C108.498 102.633 108.865 102.258 109.298 101.975C109.732 101.675 110.215 101.458 110.748 101.325C111.282 101.175 111.832 101.1 112.398 101.1ZM128.629 104.15H125.404V115H121.679V104.15H119.629V102.35L121.679 101.35V100.35C121.679 99.1833 121.871 98.2833 122.254 97.65C122.654 97 123.212 96.5417 123.929 96.275C124.662 96.0083 125.521 95.875 126.504 95.875C127.237 95.875 127.896 95.9333 128.479 96.05C129.079 96.1667 129.562 96.3 129.929 96.45L128.979 99.175C128.696 99.0917 128.387 99.0167 128.054 98.95C127.721 98.8667 127.337 98.825 126.904 98.825C126.387 98.825 126.004 98.9833 125.754 99.3C125.521 99.6167 125.404 100.017 125.404 100.5V101.35H128.629V104.15ZM143.147 108.15C143.147 109.283 142.989 110.292 142.672 111.175C142.372 112.058 141.93 112.808 141.347 113.425C140.78 114.025 140.089 114.483 139.272 114.8C138.455 115.1 137.53 115.25 136.497 115.25C135.547 115.25 134.664 115.1 133.847 114.8C133.047 114.483 132.355 114.025 131.772 113.425C131.189 112.808 130.73 112.058 130.397 111.175C130.08 110.292 129.922 109.283 129.922 108.15C129.922 106.633 130.189 105.358 130.722 104.325C131.255 103.275 132.022 102.475 133.022 101.925C134.022 101.375 135.205 101.1 136.572 101.1C137.855 101.1 138.989 101.375 139.972 101.925C140.955 102.475 141.73 103.275 142.297 104.325C142.864 105.358 143.147 106.633 143.147 108.15ZM133.722 108.15C133.722 109.05 133.814 109.808 133.997 110.425C134.197 111.025 134.505 111.483 134.922 111.8C135.339 112.1 135.88 112.25 136.547 112.25C137.214 112.25 137.747 112.1 138.147 111.8C138.564 111.483 138.864 111.025 139.047 110.425C139.247 109.808 139.347 109.05 139.347 108.15C139.347 107.25 139.247 106.5 139.047 105.9C138.864 105.3 138.564 104.85 138.147 104.55C137.73 104.25 137.189 104.1 136.522 104.1C135.539 104.1 134.822 104.442 134.372 105.125C133.939 105.792 133.722 106.8 133.722 108.15ZM153.85 101.1C154.034 101.1 154.25 101.108 154.5 101.125C154.75 101.142 154.95 101.167 155.1 101.2L154.825 104.7C154.709 104.667 154.534 104.642 154.3 104.625C154.084 104.592 153.892 104.575 153.725 104.575C153.242 104.575 152.775 104.642 152.325 104.775C151.875 104.892 151.467 105.083 151.1 105.35C150.75 105.617 150.467 105.975 150.25 106.425C150.05 106.858 149.95 107.4 149.95 108.05V115H146.225V101.35H149.05L149.6 103.65H149.775C150.042 103.183 150.375 102.758 150.775 102.375C151.175 101.992 151.634 101.683 152.15 101.45C152.684 101.217 153.25 101.1 153.85 101.1ZM173.603 101.1C175.153 101.1 176.32 101.5 177.103 102.3C177.903 103.083 178.303 104.35 178.303 106.1V115H174.578V107.025C174.578 106.042 174.411 105.308 174.078 104.825C173.745 104.325 173.228 104.075 172.528 104.075C171.545 104.075 170.845 104.425 170.428 105.125C170.011 105.825 169.803 106.833 169.803 108.15V115H166.078V107.025C166.078 106.375 166.003 105.833 165.853 105.4C165.703 104.967 165.478 104.642 165.178 104.425C164.878 104.192 164.495 104.075 164.028 104.075C163.345 104.075 162.803 104.25 162.403 104.6C162.003 104.95 161.72 105.458 161.553 106.125C161.386 106.792 161.303 107.608 161.303 108.575V115H157.578V101.35H160.428L160.928 103.1H161.128C161.411 102.633 161.761 102.258 162.178 101.975C162.595 101.675 163.053 101.458 163.553 101.325C164.07 101.175 164.586 101.1 165.103 101.1C166.103 101.1 166.953 101.267 167.653 101.6C168.353 101.917 168.886 102.417 169.253 103.1H169.578C169.995 102.4 170.57 101.892 171.303 101.575C172.053 101.258 172.82 101.1 173.603 101.1ZM187.738 101.075C189.572 101.075 190.972 101.475 191.938 102.275C192.922 103.058 193.413 104.267 193.413 105.9V115H190.813L190.088 113.15H189.988C189.605 113.633 189.205 114.033 188.788 114.35C188.388 114.667 187.922 114.892 187.388 115.025C186.872 115.175 186.23 115.25 185.463 115.25C184.663 115.25 183.938 115.1 183.288 114.8C182.655 114.483 182.155 114.008 181.788 113.375C181.422 112.725 181.238 111.908 181.238 110.925C181.238 109.475 181.747 108.408 182.763 107.725C183.78 107.025 185.305 106.642 187.338 106.575L189.713 106.5V105.9C189.713 105.183 189.522 104.658 189.138 104.325C188.772 103.992 188.255 103.825 187.588 103.825C186.922 103.825 186.272 103.925 185.638 104.125C185.005 104.308 184.372 104.542 183.738 104.825L182.513 102.3C183.247 101.917 184.055 101.617 184.938 101.4C185.838 101.183 186.772 101.075 187.738 101.075ZM188.263 108.725C187.063 108.758 186.23 108.975 185.763 109.375C185.297 109.775 185.063 110.3 185.063 110.95C185.063 111.517 185.23 111.925 185.563 112.175C185.897 112.408 186.33 112.525 186.863 112.525C187.663 112.525 188.338 112.292 188.888 111.825C189.438 111.342 189.713 110.667 189.713 109.8V108.675L188.263 108.725ZM202.976 112.275C203.393 112.275 203.793 112.233 204.176 112.15C204.56 112.067 204.943 111.967 205.326 111.85V114.625C204.926 114.792 204.426 114.933 203.826 115.05C203.243 115.183 202.601 115.25 201.901 115.25C201.085 115.25 200.351 115.117 199.701 114.85C199.068 114.583 198.56 114.125 198.176 113.475C197.81 112.808 197.626 111.892 197.626 110.725V104.15H195.851V102.575L197.901 101.325L198.976 98.45H201.351V101.35H205.176V104.15H201.351V110.725C201.351 111.242 201.501 111.633 201.801 111.9C202.101 112.15 202.493 112.275 202.976 112.275ZM211.791 101.35V115H208.066V101.35H211.791ZM209.941 96C210.491 96 210.966 96.1333 211.366 96.4C211.766 96.65 211.966 97.125 211.966 97.825C211.966 98.5083 211.766 98.9833 211.366 99.25C210.966 99.5167 210.491 99.65 209.941 99.65C209.375 99.65 208.891 99.5167 208.491 99.25C208.108 98.9833 207.916 98.5083 207.916 97.825C207.916 97.125 208.108 96.65 208.491 96.4C208.891 96.1333 209.375 96 209.941 96ZM219.408 104.5C219.408 105.017 219.383 105.533 219.333 106.05C219.3 106.55 219.258 107.058 219.208 107.575H219.258C219.425 107.342 219.592 107.108 219.758 106.875C219.942 106.642 220.125 106.408 220.308 106.175C220.492 105.942 220.683 105.717 220.883 105.5L224.708 101.35H228.908L223.483 107.275L229.233 115H224.933L221.008 109.475L219.408 110.75V115H215.683V96H219.408V104.5ZM236.811 101.1C238.078 101.1 239.161 101.342 240.061 101.825C240.978 102.308 241.686 103.008 242.186 103.925C242.686 104.842 242.936 105.967 242.936 107.3V109.1H234.136C234.17 110.15 234.478 110.975 235.061 111.575C235.661 112.175 236.486 112.475 237.536 112.475C238.42 112.475 239.22 112.392 239.936 112.225C240.653 112.042 241.395 111.767 242.161 111.4V114.275C241.495 114.608 240.786 114.85 240.036 115C239.303 115.167 238.411 115.25 237.361 115.25C235.995 115.25 234.786 115 233.736 114.5C232.686 113.983 231.861 113.208 231.261 112.175C230.661 111.142 230.361 109.842 230.361 108.275C230.361 106.675 230.628 105.35 231.161 104.3C231.711 103.233 232.47 102.433 233.436 101.9C234.403 101.367 235.528 101.1 236.811 101.1ZM236.836 103.75C236.12 103.75 235.52 103.983 235.036 104.45C234.57 104.917 234.295 105.642 234.211 106.625H239.436C239.436 106.075 239.336 105.583 239.136 105.15C238.953 104.717 238.67 104.375 238.286 104.125C237.903 103.875 237.42 103.75 236.836 103.75ZM253.582 101.1C253.765 101.1 253.982 101.108 254.232 101.125C254.482 101.142 254.682 101.167 254.832 101.2L254.557 104.7C254.44 104.667 254.265 104.642 254.032 104.625C253.815 104.592 253.624 104.575 253.457 104.575C252.974 104.575 252.507 104.642 252.057 104.775C251.607 104.892 251.199 105.083 250.832 105.35C250.482 105.617 250.199 105.975 249.982 106.425C249.782 106.858 249.682 107.4 249.682 108.05V115H245.957V101.35H248.782L249.332 103.65H249.507C249.774 103.183 250.107 102.758 250.507 102.375C250.907 101.992 251.365 101.683 251.882 101.45C252.415 101.217 252.982 101.1 253.582 101.1ZM271.354 104.15H268.129V115H264.404V104.15H262.354V102.35L264.404 101.35V100.35C264.404 99.1833 264.595 98.2833 264.979 97.65C265.379 97 265.937 96.5417 266.654 96.275C267.387 96.0083 268.245 95.875 269.229 95.875C269.962 95.875 270.62 95.9333 271.204 96.05C271.804 96.1667 272.287 96.3 272.654 96.45L271.704 99.175C271.42 99.0917 271.112 99.0167 270.779 98.95C270.445 98.8667 270.062 98.825 269.629 98.825C269.112 98.825 268.729 98.9833 268.479 99.3C268.245 99.6167 268.129 100.017 268.129 100.5V101.35H271.354V104.15ZM285.996 101.35V115H283.146L282.646 113.25H282.446C282.163 113.717 281.796 114.1 281.346 114.4C280.913 114.683 280.43 114.892 279.896 115.025C279.363 115.175 278.813 115.25 278.246 115.25C277.28 115.25 276.43 115.075 275.696 114.725C274.963 114.375 274.396 113.833 273.996 113.1C273.596 112.367 273.396 111.417 273.396 110.25V101.35H277.121V109.325C277.121 110.292 277.296 111.025 277.646 111.525C277.996 112.025 278.555 112.275 279.321 112.275C280.088 112.275 280.68 112.1 281.096 111.75C281.53 111.4 281.83 110.892 281.996 110.225C282.18 109.558 282.271 108.742 282.271 107.775V101.35H285.996ZM275.546 97.85C275.546 97.2667 275.713 96.85 276.046 96.6C276.38 96.3333 276.78 96.2 277.246 96.2C277.713 96.2 278.113 96.3333 278.446 96.6C278.796 96.85 278.971 97.2667 278.971 97.85C278.971 98.4 278.796 98.8083 278.446 99.075C278.113 99.3417 277.713 99.475 277.246 99.475C276.78 99.475 276.38 99.3417 276.046 99.075C275.713 98.8083 275.546 98.4 275.546 97.85ZM280.471 97.85C280.471 97.2667 280.638 96.85 280.971 96.6C281.305 96.3333 281.713 96.2 282.196 96.2C282.663 96.2 283.063 96.3333 283.396 96.6C283.746 96.85 283.921 97.2667 283.921 97.85C283.921 98.4 283.746 98.8083 283.396 99.075C283.063 99.3417 282.663 99.475 282.196 99.475C281.73 99.475 281.321 99.3417 280.971 99.075C280.638 98.8083 280.471 98.4 280.471 97.85ZM297.527 101.1C297.71 101.1 297.927 101.108 298.177 101.125C298.427 101.142 298.627 101.167 298.777 101.2L298.502 104.7C298.385 104.667 298.21 104.642 297.977 104.625C297.76 104.592 297.569 104.575 297.402 104.575C296.919 104.575 296.452 104.642 296.002 104.775C295.552 104.892 295.144 105.083 294.777 105.35C294.427 105.617 294.144 105.975 293.927 106.425C293.727 106.858 293.627 107.4 293.627 108.05V115H289.902V101.35H292.727L293.277 103.65H293.452C293.719 103.183 294.052 102.758 294.452 102.375C294.852 101.992 295.31 101.683 295.827 101.45C296.36 101.217 296.927 101.1 297.527 101.1ZM50.175 140L48.875 135.75H42.375L41.075 140H37L43.3 122.075H47.925L54.25 140H50.175ZM46.675 128.425C46.5917 128.142 46.4833 127.783 46.35 127.35C46.2167 126.917 46.0833 126.475 45.95 126.025C45.8167 125.575 45.7083 125.183 45.625 124.85C45.5417 125.183 45.425 125.6 45.275 126.1C45.1417 126.583 45.0083 127.05 44.875 127.5C44.7583 127.933 44.6667 128.242 44.6 128.425L43.325 132.575H47.975L46.675 128.425ZM63.9607 126.1C65.4274 126.1 66.6024 126.5 67.4857 127.3C68.3691 128.083 68.8107 129.35 68.8107 131.1V140H65.0857V132.025C65.0857 131.042 64.9107 130.308 64.5607 129.825C64.2107 129.325 63.6524 129.075 62.8857 129.075C61.7524 129.075 60.9774 129.467 60.5607 130.25C60.1441 131.017 59.9357 132.125 59.9357 133.575V140H56.2107V126.35H59.0607L59.5607 128.1H59.7607C60.0607 127.633 60.4274 127.258 60.8607 126.975C61.2941 126.675 61.7774 126.458 62.3107 126.325C62.8441 126.175 63.3941 126.1 63.9607 126.1ZM82.8164 135.225C82.7497 134.942 82.6497 134.525 82.5164 133.975C82.3997 133.408 82.2664 132.808 82.1164 132.175C81.9664 131.525 81.8247 130.933 81.6914 130.4C81.5581 129.85 81.4664 129.45 81.4164 129.2H81.3164C81.2664 129.45 81.1747 129.85 81.0414 130.4C80.9247 130.933 80.7914 131.525 80.6414 132.175C80.4914 132.808 80.3497 133.408 80.2164 133.975C80.0831 134.542 79.9831 134.975 79.9164 135.275L78.8164 140H74.8164L70.9414 126.35H74.6414L76.2164 132.4C76.3331 132.817 76.4331 133.317 76.5164 133.9C76.6164 134.483 76.7081 135.05 76.7914 135.6C76.8747 136.133 76.9331 136.558 76.9664 136.875H77.0664C77.0831 136.642 77.1164 136.333 77.1664 135.95C77.2164 135.55 77.2747 135.142 77.3414 134.725C77.4247 134.308 77.4914 133.933 77.5414 133.6C77.6081 133.25 77.6581 133.017 77.6914 132.9L79.3664 126.35H83.4664L85.0664 132.9C85.1331 133.133 85.2081 133.508 85.2914 134.025C85.3914 134.542 85.4747 135.067 85.5414 135.6C85.6247 136.133 85.6664 136.558 85.6664 136.875H85.7664C85.7997 136.592 85.8581 136.183 85.9414 135.65C86.0247 135.1 86.1164 134.525 86.2164 133.925C86.3331 133.325 86.4497 132.817 86.5664 132.4L88.1914 126.35H91.8414L87.9164 140H83.8664L82.8164 135.225ZM99.6775 126.1C100.944 126.1 102.028 126.342 102.928 126.825C103.844 127.308 104.553 128.008 105.053 128.925C105.553 129.842 105.803 130.967 105.803 132.3V134.1H97.0025C97.0359 135.15 97.3442 135.975 97.9275 136.575C98.5275 137.175 99.3525 137.475 100.403 137.475C101.286 137.475 102.086 137.392 102.803 137.225C103.519 137.042 104.261 136.767 105.028 136.4V139.275C104.361 139.608 103.653 139.85 102.903 140C102.169 140.167 101.278 140.25 100.228 140.25C98.8609 140.25 97.6525 140 96.6025 139.5C95.5525 138.983 94.7275 138.208 94.1275 137.175C93.5275 136.142 93.2275 134.842 93.2275 133.275C93.2275 131.675 93.4942 130.35 94.0275 129.3C94.5775 128.233 95.3359 127.433 96.3025 126.9C97.2692 126.367 98.3942 126.1 99.6775 126.1ZM99.7025 128.75C98.9859 128.75 98.3859 128.983 97.9025 129.45C97.4359 129.917 97.1609 130.642 97.0775 131.625H102.303C102.303 131.075 102.203 130.583 102.003 130.15C101.819 129.717 101.536 129.375 101.153 129.125C100.769 128.875 100.286 128.75 99.7025 128.75ZM116.573 126.1C118.04 126.1 119.215 126.5 120.098 127.3C120.981 128.083 121.423 129.35 121.423 131.1V140H117.698V132.025C117.698 131.042 117.523 130.308 117.173 129.825C116.823 129.325 116.265 129.075 115.498 129.075C114.365 129.075 113.59 129.467 113.173 130.25C112.756 131.017 112.548 132.125 112.548 133.575V140H108.823V126.35H111.673L112.173 128.1H112.373C112.673 127.633 113.04 127.258 113.473 126.975C113.906 126.675 114.39 126.458 114.923 126.325C115.456 126.175 116.006 126.1 116.573 126.1ZM129.579 140.25C128.062 140.25 126.82 139.658 125.854 138.475C124.904 137.275 124.429 135.517 124.429 133.2C124.429 130.867 124.912 129.1 125.879 127.9C126.845 126.7 128.112 126.1 129.679 126.1C130.329 126.1 130.904 126.192 131.404 126.375C131.904 126.542 132.329 126.775 132.679 127.075C133.045 127.375 133.354 127.717 133.604 128.1H133.729C133.679 127.833 133.62 127.45 133.554 126.95C133.487 126.433 133.454 125.908 133.454 125.375V121H137.179V140H134.329L133.604 138.225H133.454C133.22 138.592 132.92 138.933 132.554 139.25C132.204 139.55 131.787 139.792 131.304 139.975C130.82 140.158 130.245 140.25 129.579 140.25ZM130.879 137.275C131.912 137.275 132.637 136.975 133.054 136.375C133.47 135.758 133.687 134.842 133.704 133.625V133.225C133.704 131.892 133.495 130.875 133.079 130.175C132.679 129.475 131.929 129.125 130.829 129.125C130.012 129.125 129.37 129.483 128.904 130.2C128.437 130.9 128.204 131.917 128.204 133.25C128.204 134.583 128.437 135.592 128.904 136.275C129.37 136.942 130.029 137.275 130.879 137.275ZM153.599 126.35V140H150.749L150.249 138.25H150.049C149.766 138.717 149.399 139.1 148.949 139.4C148.516 139.683 148.032 139.892 147.499 140.025C146.966 140.175 146.416 140.25 145.849 140.25C144.882 140.25 144.032 140.075 143.299 139.725C142.566 139.375 141.999 138.833 141.599 138.1C141.199 137.367 140.999 136.417 140.999 135.25V126.35H144.724V134.325C144.724 135.292 144.899 136.025 145.249 136.525C145.599 137.025 146.157 137.275 146.924 137.275C147.691 137.275 148.282 137.1 148.699 136.75C149.132 136.4 149.432 135.892 149.599 135.225C149.782 134.558 149.874 133.742 149.874 132.775V126.35H153.599ZM165.255 126.1C166.721 126.1 167.896 126.5 168.78 127.3C169.663 128.083 170.105 129.35 170.105 131.1V140H166.38V132.025C166.38 131.042 166.205 130.308 165.855 129.825C165.505 129.325 164.946 129.075 164.18 129.075C163.046 129.075 162.271 129.467 161.855 130.25C161.438 131.017 161.23 132.125 161.23 133.575V140H157.505V126.35H160.355L160.855 128.1H161.055C161.355 127.633 161.721 127.258 162.155 126.975C162.588 126.675 163.071 126.458 163.605 126.325C164.138 126.175 164.688 126.1 165.255 126.1ZM178.36 126.1C179.194 126.1 179.944 126.267 180.61 126.6C181.277 126.933 181.844 127.433 182.31 128.1H182.41L182.71 126.35H185.86V140.025C185.86 141.325 185.602 142.417 185.085 143.3C184.585 144.183 183.827 144.85 182.81 145.3C181.794 145.767 180.535 146 179.035 146C178.069 146 177.169 145.942 176.335 145.825C175.519 145.708 174.719 145.5 173.935 145.2V142.225C174.502 142.458 175.069 142.65 175.635 142.8C176.219 142.967 176.81 143.083 177.41 143.15C178.027 143.233 178.644 143.275 179.26 143.275C180.227 143.275 180.944 143.017 181.41 142.5C181.894 141.983 182.135 141.208 182.135 140.175V139.9C182.135 139.617 182.144 139.325 182.16 139.025C182.194 138.725 182.219 138.458 182.235 138.225H182.135C181.669 138.942 181.11 139.458 180.46 139.775C179.81 140.092 179.077 140.25 178.26 140.25C176.644 140.25 175.377 139.633 174.46 138.4C173.56 137.15 173.11 135.417 173.11 133.2C173.11 131.7 173.319 130.425 173.735 129.375C174.152 128.308 174.752 127.5 175.535 126.95C176.335 126.383 177.277 126.1 178.36 126.1ZM179.535 129.125C178.952 129.125 178.46 129.283 178.06 129.6C177.677 129.9 177.385 130.358 177.185 130.975C177.002 131.575 176.91 132.333 176.91 133.25C176.91 134.617 177.127 135.642 177.56 136.325C177.994 136.992 178.669 137.325 179.585 137.325C180.069 137.325 180.485 137.267 180.835 137.15C181.185 137.017 181.469 136.808 181.685 136.525C181.919 136.225 182.094 135.842 182.21 135.375C182.327 134.908 182.385 134.342 182.385 133.675V133.225C182.385 132.242 182.285 131.45 182.085 130.85C181.885 130.25 181.577 129.817 181.16 129.55C180.744 129.267 180.202 129.125 179.535 129.125ZM199.281 135.95C199.281 136.867 199.064 137.65 198.631 138.3C198.197 138.933 197.547 139.417 196.681 139.75C195.814 140.083 194.739 140.25 193.456 140.25C192.506 140.25 191.689 140.183 191.006 140.05C190.322 139.933 189.639 139.733 188.956 139.45V136.375C189.689 136.708 190.481 136.983 191.331 137.2C192.181 137.417 192.931 137.525 193.581 137.525C194.314 137.525 194.831 137.417 195.131 137.2C195.447 136.983 195.606 136.7 195.606 136.35C195.606 136.117 195.539 135.908 195.406 135.725C195.289 135.542 195.022 135.333 194.606 135.1C194.189 134.867 193.539 134.567 192.656 134.2C191.806 133.833 191.106 133.475 190.556 133.125C190.006 132.758 189.597 132.325 189.331 131.825C189.064 131.308 188.931 130.667 188.931 129.9C188.931 128.633 189.422 127.683 190.406 127.05C191.389 126.417 192.697 126.1 194.331 126.1C195.181 126.1 195.989 126.183 196.756 126.35C197.522 126.517 198.314 126.792 199.131 127.175L198.006 129.85C197.556 129.65 197.122 129.475 196.706 129.325C196.289 129.175 195.881 129.058 195.481 128.975C195.097 128.892 194.697 128.85 194.281 128.85C193.731 128.85 193.314 128.925 193.031 129.075C192.764 129.225 192.631 129.45 192.631 129.75C192.631 129.967 192.697 130.167 192.831 130.35C192.981 130.517 193.256 130.7 193.656 130.9C194.072 131.1 194.681 131.367 195.481 131.7C196.264 132.017 196.939 132.35 197.506 132.7C198.072 133.033 198.506 133.458 198.806 133.975C199.122 134.475 199.281 135.133 199.281 135.95ZM207.807 126.1C209.074 126.1 210.157 126.342 211.057 126.825C211.974 127.308 212.682 128.008 213.182 128.925C213.682 129.842 213.932 130.967 213.932 132.3V134.1H205.132C205.166 135.15 205.474 135.975 206.057 136.575C206.657 137.175 207.482 137.475 208.532 137.475C209.416 137.475 210.216 137.392 210.932 137.225C211.649 137.042 212.391 136.767 213.157 136.4V139.275C212.491 139.608 211.782 139.85 211.032 140C210.299 140.167 209.407 140.25 208.357 140.25C206.991 140.25 205.782 140 204.732 139.5C203.682 138.983 202.857 138.208 202.257 137.175C201.657 136.142 201.357 134.842 201.357 133.275C201.357 131.675 201.624 130.35 202.157 129.3C202.707 128.233 203.466 127.433 204.432 126.9C205.399 126.367 206.524 126.1 207.807 126.1ZM207.832 128.75C207.116 128.75 206.516 128.983 206.032 129.45C205.566 129.917 205.291 130.642 205.207 131.625H210.432C210.432 131.075 210.332 130.583 210.132 130.15C209.949 129.717 209.666 129.375 209.282 129.125C208.899 128.875 208.416 128.75 207.832 128.75ZM224.703 126.1C226.17 126.1 227.345 126.5 228.228 127.3C229.111 128.083 229.553 129.35 229.553 131.1V140H225.828V132.025C225.828 131.042 225.653 130.308 225.303 129.825C224.953 129.325 224.395 129.075 223.628 129.075C222.495 129.075 221.72 129.467 221.303 130.25C220.886 131.017 220.678 132.125 220.678 133.575V140H216.953V126.35H219.803L220.303 128.1H220.503C220.803 127.633 221.17 127.258 221.603 126.975C222.036 126.675 222.52 126.458 223.053 126.325C223.586 126.175 224.136 126.1 224.703 126.1ZM239.134 137.275C239.55 137.275 239.95 137.233 240.334 137.15C240.717 137.067 241.1 136.967 241.484 136.85V139.625C241.084 139.792 240.584 139.933 239.984 140.05C239.4 140.183 238.759 140.25 238.059 140.25C237.242 140.25 236.509 140.117 235.859 139.85C235.225 139.583 234.717 139.125 234.334 138.475C233.967 137.808 233.784 136.892 233.784 135.725V129.15H232.009V127.575L234.059 126.325L235.134 123.45H237.509V126.35H241.334V129.15H237.509V135.725C237.509 136.242 237.659 136.633 237.959 136.9C238.259 137.15 238.65 137.275 239.134 137.275ZM254.398 135.225C254.332 134.942 254.232 134.525 254.098 133.975C253.982 133.408 253.848 132.808 253.698 132.175C253.548 131.525 253.407 130.933 253.273 130.4C253.14 129.85 253.048 129.45 252.998 129.2H252.898C252.848 129.45 252.757 129.85 252.623 130.4C252.507 130.933 252.373 131.525 252.223 132.175C252.073 132.808 251.932 133.408 251.798 133.975C251.665 134.542 251.565 134.975 251.498 135.275L250.398 140H246.398L242.523 126.35H246.223L247.798 132.4C247.915 132.817 248.015 133.317 248.098 133.9C248.198 134.483 248.29 135.05 248.373 135.6C248.457 136.133 248.515 136.558 248.548 136.875H248.648C248.665 136.642 248.698 136.333 248.748 135.95C248.798 135.55 248.857 135.142 248.923 134.725C249.007 134.308 249.073 133.933 249.123 133.6C249.19 133.25 249.24 133.017 249.273 132.9L250.948 126.35H255.048L256.648 132.9C256.715 133.133 256.79 133.508 256.873 134.025C256.973 134.542 257.057 135.067 257.123 135.6C257.207 136.133 257.248 136.558 257.248 136.875H257.348C257.382 136.592 257.44 136.183 257.523 135.65C257.607 135.1 257.698 134.525 257.798 133.925C257.915 133.325 258.032 132.817 258.148 132.4L259.773 126.35H263.423L259.498 140H255.448L254.398 135.225ZM269.36 126.35V140H265.635V126.35H269.36ZM267.51 121C268.06 121 268.535 121.133 268.935 121.4C269.335 121.65 269.535 122.125 269.535 122.825C269.535 123.508 269.335 123.983 268.935 124.25C268.535 124.517 268.06 124.65 267.51 124.65C266.943 124.65 266.46 124.517 266.06 124.25C265.676 123.983 265.485 123.508 265.485 122.825C265.485 122.125 265.676 121.65 266.06 121.4C266.46 121.133 266.943 121 267.51 121ZM278.802 140.25C277.452 140.25 276.302 140.008 275.352 139.525C274.402 139.025 273.677 138.258 273.177 137.225C272.677 136.192 272.427 134.867 272.427 133.25C272.427 131.583 272.71 130.225 273.277 129.175C273.843 128.125 274.627 127.35 275.627 126.85C276.643 126.35 277.81 126.1 279.127 126.1C280.06 126.1 280.868 126.192 281.552 126.375C282.252 126.558 282.86 126.775 283.377 127.025L282.277 129.9C281.693 129.667 281.143 129.475 280.627 129.325C280.127 129.175 279.627 129.1 279.127 129.1C278.477 129.1 277.935 129.258 277.502 129.575C277.068 129.875 276.743 130.333 276.527 130.95C276.327 131.55 276.227 132.308 276.227 133.225C276.227 134.125 276.335 134.875 276.552 135.475C276.785 136.058 277.118 136.5 277.552 136.8C277.985 137.083 278.51 137.225 279.127 137.225C279.91 137.225 280.602 137.125 281.202 136.925C281.802 136.708 282.385 136.417 282.952 136.05V139.225C282.385 139.592 281.785 139.85 281.152 140C280.535 140.167 279.752 140.25 278.802 140.25ZM289.819 129.5C289.819 130.017 289.794 130.533 289.744 131.05C289.71 131.55 289.669 132.058 289.619 132.575H289.669C289.835 132.342 290.002 132.108 290.169 131.875C290.352 131.642 290.535 131.408 290.719 131.175C290.902 130.942 291.094 130.717 291.294 130.5L295.119 126.35H299.319L293.894 132.275L299.644 140H295.344L291.419 134.475L289.819 135.75V140H286.094V121H289.819V129.5ZM305.321 140H301.596V121H305.321V140ZM321.739 126.35V140H318.889L318.389 138.25H318.189C317.905 138.717 317.539 139.1 317.089 139.4C316.655 139.683 316.172 139.892 315.639 140.025C315.105 140.175 314.555 140.25 313.989 140.25C313.022 140.25 312.172 140.075 311.439 139.725C310.705 139.375 310.139 138.833 309.739 138.1C309.339 137.367 309.139 136.417 309.139 135.25V126.35H312.864V134.325C312.864 135.292 313.039 136.025 313.389 136.525C313.739 137.025 314.297 137.275 315.064 137.275C315.83 137.275 316.422 137.1 316.839 136.75C317.272 136.4 317.572 135.892 317.739 135.225C317.922 134.558 318.014 133.742 318.014 132.775V126.35H321.739ZM333.394 126.1C334.861 126.1 336.036 126.5 336.919 127.3C337.803 128.083 338.244 129.35 338.244 131.1V140H334.519V132.025C334.519 131.042 334.344 130.308 333.994 129.825C333.644 129.325 333.086 129.075 332.319 129.075C331.186 129.075 330.411 129.467 329.994 130.25C329.578 131.017 329.369 132.125 329.369 133.575V140H325.644V126.35H328.494L328.994 128.1H329.194C329.494 127.633 329.861 127.258 330.294 126.975C330.728 126.675 331.211 126.458 331.744 126.325C332.278 126.175 332.828 126.1 333.394 126.1ZM346.5 126.1C347.333 126.1 348.083 126.267 348.75 126.6C349.417 126.933 349.983 127.433 350.45 128.1H350.55L350.85 126.35H354V140.025C354 141.325 353.742 142.417 353.225 143.3C352.725 144.183 351.967 144.85 350.95 145.3C349.933 145.767 348.675 146 347.175 146C346.208 146 345.308 145.942 344.475 145.825C343.658 145.708 342.858 145.5 342.075 145.2V142.225C342.642 142.458 343.208 142.65 343.775 142.8C344.358 142.967 344.95 143.083 345.55 143.15C346.167 143.233 346.783 143.275 347.4 143.275C348.367 143.275 349.083 143.017 349.55 142.5C350.033 141.983 350.275 141.208 350.275 140.175V139.9C350.275 139.617 350.283 139.325 350.3 139.025C350.333 138.725 350.358 138.458 350.375 138.225H350.275C349.808 138.942 349.25 139.458 348.6 139.775C347.95 140.092 347.217 140.25 346.4 140.25C344.783 140.25 343.517 139.633 342.6 138.4C341.7 137.15 341.25 135.417 341.25 133.2C341.25 131.7 341.458 130.425 341.875 129.375C342.292 128.308 342.892 127.5 343.675 126.95C344.475 126.383 345.417 126.1 346.5 126.1ZM347.675 129.125C347.092 129.125 346.6 129.283 346.2 129.6C345.817 129.9 345.525 130.358 345.325 130.975C345.142 131.575 345.05 132.333 345.05 133.25C345.05 134.617 345.267 135.642 345.7 136.325C346.133 136.992 346.808 137.325 347.725 137.325C348.208 137.325 348.625 137.267 348.975 137.15C349.325 137.017 349.608 136.808 349.825 136.525C350.058 136.225 350.233 135.842 350.35 135.375C350.467 134.908 350.525 134.342 350.525 133.675V133.225C350.525 132.242 350.425 131.45 350.225 130.85C350.025 130.25 349.717 129.817 349.3 129.55C348.883 129.267 348.342 129.125 347.675 129.125Z" fill="white"/>
<path d="M49.775 173.05C49.775 174.1 49.5167 175.017 49 175.8C48.4833 176.583 47.7333 177.192 46.75 177.625C45.7833 178.042 44.6 178.25 43.2 178.25C42.5833 178.25 41.975 178.208 41.375 178.125C40.7917 178.042 40.225 177.925 39.675 177.775C39.1417 177.608 38.6333 177.408 38.15 177.175V173.65C39 174.017 39.875 174.358 40.775 174.675C41.6917 174.975 42.6 175.125 43.5 175.125C44.1167 175.125 44.6083 175.042 44.975 174.875C45.3583 174.708 45.6333 174.483 45.8 174.2C45.9833 173.917 46.075 173.592 46.075 173.225C46.075 172.775 45.9167 172.392 45.6 172.075C45.3 171.758 44.8917 171.467 44.375 171.2C43.8583 170.917 43.2667 170.617 42.6 170.3C42.1833 170.1 41.7333 169.867 41.25 169.6C40.7667 169.317 40.3 168.975 39.85 168.575C39.4167 168.158 39.0583 167.658 38.775 167.075C38.4917 166.492 38.35 165.792 38.35 164.975C38.35 163.908 38.5917 163 39.075 162.25C39.575 161.483 40.275 160.9 41.175 160.5C42.0917 160.1 43.1667 159.9 44.4 159.9C45.3333 159.9 46.2167 160.008 47.05 160.225C47.9 160.442 48.7833 160.75 49.7 161.15L48.475 164.1C47.6583 163.767 46.925 163.508 46.275 163.325C45.625 163.142 44.9583 163.05 44.275 163.05C43.8083 163.05 43.4083 163.125 43.075 163.275C42.7417 163.425 42.4833 163.633 42.3 163.9C42.1333 164.167 42.05 164.483 42.05 164.85C42.05 165.267 42.175 165.625 42.425 165.925C42.675 166.208 43.05 166.483 43.55 166.75C44.05 167.017 44.675 167.333 45.425 167.7C46.3417 168.133 47.1167 168.583 47.75 169.05C48.4 169.517 48.9 170.067 49.25 170.7C49.6 171.333 49.775 172.117 49.775 173.05ZM56.4445 164.35V178H52.7195V164.35H56.4445ZM54.5945 159C55.1445 159 55.6195 159.133 56.0195 159.4C56.4195 159.65 56.6195 160.125 56.6195 160.825C56.6195 161.508 56.4195 161.983 56.0195 162.25C55.6195 162.517 55.1445 162.65 54.5945 162.65C54.0279 162.65 53.5445 162.517 53.1445 162.25C52.7612 161.983 52.5695 161.508 52.5695 160.825C52.5695 160.125 52.7612 159.65 53.1445 159.4C53.5445 159.133 54.0279 159 54.5945 159ZM65.9617 164.1C67.2284 164.1 68.3117 164.342 69.2117 164.825C70.1284 165.308 70.8367 166.008 71.3367 166.925C71.8367 167.842 72.0867 168.967 72.0867 170.3V172.1H63.2867C63.3201 173.15 63.6284 173.975 64.2117 174.575C64.8117 175.175 65.6367 175.475 66.6867 175.475C67.5701 175.475 68.3701 175.392 69.0867 175.225C69.8034 175.042 70.5451 174.767 71.3117 174.4V177.275C70.6451 177.608 69.9367 177.85 69.1867 178C68.4534 178.167 67.5617 178.25 66.5117 178.25C65.1451 178.25 63.9367 178 62.8867 177.5C61.8367 176.983 61.0117 176.208 60.4117 175.175C59.8117 174.142 59.5117 172.842 59.5117 171.275C59.5117 169.675 59.7784 168.35 60.3117 167.3C60.8617 166.233 61.6201 165.433 62.5867 164.9C63.5534 164.367 64.6784 164.1 65.9617 164.1ZM65.9867 166.75C65.2701 166.75 64.6701 166.983 64.1867 167.45C63.7201 167.917 63.4451 168.642 63.3617 169.625H68.5867C68.5867 169.075 68.4867 168.583 68.2867 168.15C68.1034 167.717 67.8201 167.375 67.4367 167.125C67.0534 166.875 66.5701 166.75 65.9867 166.75ZM91.1322 164.1C92.6822 164.1 93.8489 164.5 94.6322 165.3C95.4322 166.083 95.8322 167.35 95.8322 169.1V178H92.1072V170.025C92.1072 169.042 91.9406 168.308 91.6072 167.825C91.2739 167.325 90.7572 167.075 90.0572 167.075C89.0739 167.075 88.3739 167.425 87.9572 168.125C87.5406 168.825 87.3322 169.833 87.3322 171.15V178H83.6072V170.025C83.6072 169.375 83.5322 168.833 83.3822 168.4C83.2322 167.967 83.0072 167.642 82.7072 167.425C82.4072 167.192 82.0239 167.075 81.5572 167.075C80.8739 167.075 80.3322 167.25 79.9322 167.6C79.5322 167.95 79.2489 168.458 79.0822 169.125C78.9156 169.792 78.8322 170.608 78.8322 171.575V178H75.1072V164.35H77.9572L78.4572 166.1H78.6572C78.9406 165.633 79.2906 165.258 79.7072 164.975C80.1239 164.675 80.5822 164.458 81.0822 164.325C81.5989 164.175 82.1156 164.1 82.6322 164.1C83.6322 164.1 84.4822 164.267 85.1822 164.6C85.8822 164.917 86.4156 165.417 86.7822 166.1H87.1072C87.5239 165.4 88.0989 164.892 88.8322 164.575C89.5822 164.258 90.3489 164.1 91.1322 164.1ZM105.293 164.1C106.559 164.1 107.643 164.342 108.543 164.825C109.459 165.308 110.168 166.008 110.668 166.925C111.168 167.842 111.418 168.967 111.418 170.3V172.1H102.618C102.651 173.15 102.959 173.975 103.543 174.575C104.143 175.175 104.968 175.475 106.018 175.475C106.901 175.475 107.701 175.392 108.418 175.225C109.134 175.042 109.876 174.767 110.643 174.4V177.275C109.976 177.608 109.268 177.85 108.518 178C107.784 178.167 106.893 178.25 105.843 178.25C104.476 178.25 103.268 178 102.218 177.5C101.168 176.983 100.343 176.208 99.7428 175.175C99.1428 174.142 98.8428 172.842 98.8428 171.275C98.8428 169.675 99.1094 168.35 99.6428 167.3C100.193 166.233 100.951 165.433 101.918 164.9C102.884 164.367 104.009 164.1 105.293 164.1ZM105.318 166.75C104.601 166.75 104.001 166.983 103.518 167.45C103.051 167.917 102.776 168.642 102.693 169.625H107.918C107.918 169.075 107.818 168.583 107.618 168.15C107.434 167.717 107.151 167.375 106.768 167.125C106.384 166.875 105.901 166.75 105.318 166.75ZM122.188 164.1C123.655 164.1 124.83 164.5 125.713 165.3C126.597 166.083 127.038 167.35 127.038 169.1V178H123.313V170.025C123.313 169.042 123.138 168.308 122.788 167.825C122.438 167.325 121.88 167.075 121.113 167.075C119.98 167.075 119.205 167.467 118.788 168.25C118.372 169.017 118.163 170.125 118.163 171.575V178H114.438V164.35H117.288L117.788 166.1H117.988C118.288 165.633 118.655 165.258 119.088 164.975C119.522 164.675 120.005 164.458 120.538 164.325C121.072 164.175 121.622 164.1 122.188 164.1ZM140.394 173.95C140.394 174.867 140.177 175.65 139.744 176.3C139.311 176.933 138.661 177.417 137.794 177.75C136.927 178.083 135.852 178.25 134.569 178.25C133.619 178.25 132.802 178.183 132.119 178.05C131.436 177.933 130.752 177.733 130.069 177.45V174.375C130.802 174.708 131.594 174.983 132.444 175.2C133.294 175.417 134.044 175.525 134.694 175.525C135.427 175.525 135.944 175.417 136.244 175.2C136.561 174.983 136.719 174.7 136.719 174.35C136.719 174.117 136.652 173.908 136.519 173.725C136.402 173.542 136.136 173.333 135.719 173.1C135.302 172.867 134.652 172.567 133.769 172.2C132.919 171.833 132.219 171.475 131.669 171.125C131.119 170.758 130.711 170.325 130.444 169.825C130.177 169.308 130.044 168.667 130.044 167.9C130.044 166.633 130.536 165.683 131.519 165.05C132.502 164.417 133.811 164.1 135.444 164.1C136.294 164.1 137.102 164.183 137.869 164.35C138.636 164.517 139.427 164.792 140.244 165.175L139.119 167.85C138.669 167.65 138.236 167.475 137.819 167.325C137.402 167.175 136.994 167.058 136.594 166.975C136.211 166.892 135.811 166.85 135.394 166.85C134.844 166.85 134.427 166.925 134.144 167.075C133.877 167.225 133.744 167.45 133.744 167.75C133.744 167.967 133.811 168.167 133.944 168.35C134.094 168.517 134.369 168.7 134.769 168.9C135.186 169.1 135.794 169.367 136.594 169.7C137.377 170.017 138.052 170.35 138.619 170.7C139.186 171.033 139.619 171.458 139.919 171.975C140.236 172.475 140.394 173.133 140.394 173.95ZM161.015 178L159.715 173.75H153.215L151.915 178H147.84L154.14 160.075H158.765L165.09 178H161.015ZM157.515 166.425C157.432 166.142 157.323 165.783 157.19 165.35C157.057 164.917 156.923 164.475 156.79 164.025C156.657 163.575 156.548 163.183 156.465 162.85C156.382 163.183 156.265 163.6 156.115 164.1C155.982 164.583 155.848 165.05 155.715 165.5C155.598 165.933 155.507 166.242 155.44 166.425L154.165 170.575H158.815L157.515 166.425ZM173.637 167.975H180.712V177.225C179.779 177.542 178.804 177.792 177.787 177.975C176.787 178.158 175.646 178.25 174.362 178.25C172.596 178.25 171.087 177.9 169.837 177.2C168.604 176.5 167.662 175.467 167.012 174.1C166.379 172.733 166.062 171.05 166.062 169.05C166.062 167.183 166.421 165.567 167.137 164.2C167.871 162.833 168.929 161.775 170.312 161.025C171.696 160.275 173.387 159.9 175.387 159.9C176.337 159.9 177.271 160 178.187 160.2C179.104 160.4 179.937 160.667 180.687 161L179.437 164.025C178.887 163.742 178.262 163.508 177.562 163.325C176.862 163.142 176.129 163.05 175.362 163.05C174.262 163.05 173.304 163.3 172.487 163.8C171.687 164.3 171.062 165.008 170.612 165.925C170.179 166.825 169.962 167.892 169.962 169.125C169.962 170.292 170.121 171.325 170.437 172.225C170.754 173.125 171.254 173.833 171.937 174.35C172.621 174.85 173.512 175.1 174.612 175.1C174.979 175.1 175.296 175.092 175.562 175.075C175.846 175.042 176.104 175.008 176.337 174.975C176.571 174.925 176.796 174.883 177.012 174.85V171.125H173.637V167.975Z" fill="#9D9D9D"/>
<path d="M50.2692 50.2436V52H40.0769V50.2436H44.4231V36.6795L40.3718 39.141L39.4359 37.6026L44.6923 34.3462H46.5769V50.2436H50.2692ZM59.2911 34.0641C60.4022 34.0641 61.3552 34.2821 62.1501 34.7179C62.945 35.1453 63.5518 35.7308 63.9706 36.4744C64.398 37.2179 64.6116 38.0556 64.6116 38.9872C64.6116 39.7991 64.4706 40.594 64.1886 41.3718C63.9065 42.141 63.4535 42.953 62.8296 43.8077C62.2142 44.6538 61.4022 45.594 60.3937 46.6282C59.3851 47.6624 58.1544 48.8419 56.7014 50.1667H65.0219L64.7527 52H54.2527V50.2436C55.9193 48.6453 57.2783 47.2949 58.3296 46.1923C59.3894 45.0897 60.2099 44.141 60.7911 43.3462C61.3723 42.5427 61.774 41.8077 61.9962 41.141C62.227 40.4744 62.3424 39.7821 62.3424 39.0641C62.3424 38.0727 62.0646 37.2906 61.5091 36.7179C60.9535 36.1453 60.18 35.859 59.1886 35.859C58.3168 35.859 57.6031 36.0085 57.0475 36.3077C56.492 36.6068 55.9364 37.0855 55.3809 37.7436L53.8937 36.5897C54.5945 35.735 55.368 35.1026 56.2142 34.6923C57.0689 34.2735 58.0945 34.0641 59.2911 34.0641ZM70.8515 54.641L69.1079 53.8718L80.0822 31.2436L81.8002 32.0897L70.8515 54.641ZM90.0528 34.0641C91.1639 34.0641 92.1169 34.2821 92.9118 34.7179C93.7067 35.1453 94.3135 35.7308 94.7323 36.4744C95.1597 37.2179 95.3733 38.0556 95.3733 38.9872C95.3733 39.7991 95.2323 40.594 94.9503 41.3718C94.6682 42.141 94.2152 42.953 93.5913 43.8077C92.9759 44.6538 92.1639 45.594 91.1554 46.6282C90.1469 47.6624 88.9161 48.8419 87.4631 50.1667H95.7836L95.5144 52H85.0144V50.2436C86.681 48.6453 88.04 47.2949 89.0913 46.1923C90.1511 45.0897 90.9716 44.141 91.5528 43.3462C92.134 42.5427 92.5357 41.8077 92.758 41.141C92.9887 40.4744 93.1041 39.7821 93.1041 39.0641C93.1041 38.0727 92.8263 37.2906 92.2708 36.7179C91.7152 36.1453 90.9417 35.859 89.9503 35.859C89.0785 35.859 88.3648 36.0085 87.8092 36.3077C87.2537 36.6068 86.6981 37.0855 86.1426 37.7436L84.6554 36.5897C85.3563 35.735 86.1298 35.1026 86.9759 34.6923C87.8306 34.2735 88.8563 34.0641 90.0528 34.0641ZM106.216 34.0641C108.113 34.0641 109.549 34.8504 110.523 36.4231C111.506 37.9957 111.998 40.2436 111.998 43.1667C111.998 46.0983 111.506 48.3547 110.523 49.9359C109.549 51.5085 108.113 52.2949 106.216 52.2949C104.318 52.2949 102.878 51.5085 101.895 49.9359C100.921 48.3547 100.434 46.0983 100.434 43.1667C100.434 40.2436 100.921 37.9957 101.895 36.4231C102.878 34.8504 104.318 34.0641 106.216 34.0641ZM106.216 35.7949C105.13 35.7949 104.276 36.3718 103.652 37.5256C103.028 38.6709 102.716 40.5513 102.716 43.1667C102.716 45.1239 102.865 46.6624 103.164 47.7821L108.562 36.9359C108.023 36.1752 107.241 35.7949 106.216 35.7949ZM109.729 43.1667C109.729 41.1923 109.575 39.6496 109.267 38.5385L103.895 49.4231C104.434 50.1752 105.207 50.5513 106.216 50.5513C107.31 50.5513 108.169 49.9744 108.793 48.8205C109.417 47.6667 109.729 45.7821 109.729 43.1667ZM120.815 34.0641C121.926 34.0641 122.879 34.2821 123.674 34.7179C124.468 35.1453 125.075 35.7308 125.494 36.4744C125.921 37.2179 126.135 38.0556 126.135 38.9872C126.135 39.7991 125.994 40.594 125.712 41.3718C125.43 42.141 124.977 42.953 124.353 43.8077C123.738 44.6538 122.926 45.594 121.917 46.6282C120.909 47.6624 119.678 48.8419 118.225 50.1667H126.545L126.276 52H115.776V50.2436C117.443 48.6453 118.802 47.2949 119.853 46.1923C120.913 45.0897 121.733 44.141 122.315 43.3462C122.896 42.5427 123.297 41.8077 123.52 41.141C123.75 40.4744 123.866 39.7821 123.866 39.0641C123.866 38.0727 123.588 37.2906 123.033 36.7179C122.477 36.1453 121.703 35.859 120.712 35.859C119.84 35.859 119.127 36.0085 118.571 36.3077C118.015 36.6068 117.46 37.0855 116.904 37.7436L115.417 36.5897C116.118 35.735 116.891 35.1026 117.738 34.6923C118.592 34.2735 119.618 34.0641 120.815 34.0641ZM136.977 34.0641C138.875 34.0641 140.311 34.8504 141.285 36.4231C142.268 37.9957 142.76 40.2436 142.76 43.1667C142.76 46.0983 142.268 48.3547 141.285 49.9359C140.311 51.5085 138.875 52.2949 136.977 52.2949C135.08 52.2949 133.64 51.5085 132.657 49.9359C131.683 48.3547 131.195 46.0983 131.195 43.1667C131.195 40.2436 131.683 37.9957 132.657 36.4231C133.64 34.8504 135.08 34.0641 136.977 34.0641ZM136.977 35.7949C135.892 35.7949 135.037 36.3718 134.413 37.5256C133.789 38.6709 133.477 40.5513 133.477 43.1667C133.477 45.1239 133.627 46.6624 133.926 47.7821L139.324 36.9359C138.785 36.1752 138.003 35.7949 136.977 35.7949ZM140.49 43.1667C140.49 41.1923 140.336 39.6496 140.029 38.5385L134.657 49.4231C135.195 50.1752 135.969 50.5513 136.977 50.5513C138.071 50.5513 138.93 49.9744 139.554 48.8205C140.178 47.6667 140.49 45.7821 140.49 43.1667ZM162.598 44.9103V43.0385H172.88V44.9103H162.598ZM201.834 52V43.6282H195.168V52H192.95V34.3462H195.168V41.8077H201.834V34.3462H204.052V52H201.834ZM211.638 36.1667V42.1154H218.177V43.9487H211.638V50.2179H219.664V52H209.407V34.3462H219.433L219.177 36.1667H211.638ZM235.096 34.3462V46.2821C235.096 47.4701 234.857 48.5171 234.378 49.4231C233.899 50.3291 233.22 51.0342 232.34 51.5385C231.459 52.0427 230.425 52.2949 229.237 52.2949C228.023 52.2949 226.981 52.0427 226.109 51.5385C225.246 51.0256 224.583 50.3205 224.122 49.4231C223.66 48.5171 223.429 47.4701 223.429 46.2821V34.3462H225.634V46.359C225.634 47.7009 225.946 48.7051 226.57 49.3718C227.203 50.0385 228.092 50.3718 229.237 50.3718C230.391 50.3718 231.28 50.0385 231.904 49.3718C232.536 48.7051 232.852 47.7009 232.852 46.359V34.3462H235.096ZM245.708 36.2564V52H243.49V36.2564H237.977V34.3462H251.297L251.067 36.2564H245.708ZM257.781 36.1667V42.1154H264.319V43.9487H257.781V50.2179H265.806V52H255.55V34.3462H265.576L265.319 36.1667H257.781Z" fill="white"/>
<circle cx="15" cy="45" r="15" fill="#2F27CE"/>
<path d="M50.175 324L48.875 319.75H42.375L41.075 324H37L43.3 306.075H47.925L54.25 324H50.175ZM46.675 312.425C46.5917 312.142 46.4833 311.783 46.35 311.35C46.2167 310.917 46.0833 310.475 45.95 310.025C45.8167 309.575 45.7083 309.183 45.625 308.85C45.5417 309.183 45.425 309.6 45.275 310.1C45.1417 310.583 45.0083 311.05 44.875 311.5C44.7583 311.933 44.6667 312.242 44.6 312.425L43.325 316.575H47.975L46.675 312.425ZM59.9357 324H56.2107V305H59.9357V324ZM67.5529 324H63.8279V305H67.5529V324ZM75.8701 310.1C76.7035 310.1 77.4535 310.267 78.1201 310.6C78.7868 310.933 79.3535 311.433 79.8201 312.1H79.9201L80.2201 310.35H83.3701V324.025C83.3701 325.325 83.1118 326.417 82.5951 327.3C82.0951 328.183 81.3368 328.85 80.3201 329.3C79.3035 329.767 78.0451 330 76.5451 330C75.5785 330 74.6785 329.942 73.8451 329.825C73.0285 329.708 72.2285 329.5 71.4451 329.2V326.225C72.0118 326.458 72.5785 326.65 73.1451 326.8C73.7285 326.967 74.3201 327.083 74.9201 327.15C75.5368 327.233 76.1535 327.275 76.7701 327.275C77.7368 327.275 78.4535 327.017 78.9201 326.5C79.4035 325.983 79.6451 325.208 79.6451 324.175V323.9C79.6451 323.617 79.6535 323.325 79.6701 323.025C79.7035 322.725 79.7285 322.458 79.7451 322.225H79.6451C79.1785 322.942 78.6201 323.458 77.9701 323.775C77.3201 324.092 76.5868 324.25 75.7701 324.25C74.1535 324.25 72.8868 323.633 71.9701 322.4C71.0701 321.15 70.6201 319.417 70.6201 317.2C70.6201 315.7 70.8285 314.425 71.2451 313.375C71.6618 312.308 72.2618 311.5 73.0451 310.95C73.8451 310.383 74.7868 310.1 75.8701 310.1ZM77.0451 313.125C76.4618 313.125 75.9701 313.283 75.5701 313.6C75.1868 313.9 74.8951 314.358 74.6951 314.975C74.5118 315.575 74.4201 316.333 74.4201 317.25C74.4201 318.617 74.6368 319.642 75.0701 320.325C75.5035 320.992 76.1785 321.325 77.0951 321.325C77.5785 321.325 77.9951 321.267 78.3451 321.15C78.6951 321.017 78.9785 320.808 79.1951 320.525C79.4285 320.225 79.6035 319.842 79.7201 319.375C79.8368 318.908 79.8951 318.342 79.8951 317.675V317.225C79.8951 316.242 79.7951 315.45 79.5951 314.85C79.3951 314.25 79.0868 313.817 78.6701 313.55C78.2535 313.267 77.7118 313.125 77.0451 313.125ZM92.8904 310.1C94.1571 310.1 95.2404 310.342 96.1404 310.825C97.0571 311.308 97.7654 312.008 98.2654 312.925C98.7654 313.842 99.0154 314.967 99.0154 316.3V318.1H90.2154C90.2488 319.15 90.5571 319.975 91.1404 320.575C91.7404 321.175 92.5654 321.475 93.6154 321.475C94.4988 321.475 95.2988 321.392 96.0154 321.225C96.7321 321.042 97.4738 320.767 98.2404 320.4V323.275C97.5738 323.608 96.8654 323.85 96.1154 324C95.3821 324.167 94.4904 324.25 93.4404 324.25C92.0738 324.25 90.8654 324 89.8154 323.5C88.7654 322.983 87.9404 322.208 87.3404 321.175C86.7404 320.142 86.4404 318.842 86.4404 317.275C86.4404 315.675 86.7071 314.35 87.2404 313.3C87.7904 312.233 88.5488 311.433 89.5154 310.9C90.4821 310.367 91.6071 310.1 92.8904 310.1ZM92.9154 312.75C92.1988 312.75 91.5988 312.983 91.1154 313.45C90.6488 313.917 90.3738 314.642 90.2904 315.625H95.5154C95.5154 315.075 95.4154 314.583 95.2154 314.15C95.0321 313.717 94.7488 313.375 94.3654 313.125C93.9821 312.875 93.4988 312.75 92.9154 312.75ZM118.061 310.1C119.611 310.1 120.778 310.5 121.561 311.3C122.361 312.083 122.761 313.35 122.761 315.1V324H119.036V316.025C119.036 315.042 118.869 314.308 118.536 313.825C118.203 313.325 117.686 313.075 116.986 313.075C116.003 313.075 115.303 313.425 114.886 314.125C114.469 314.825 114.261 315.833 114.261 317.15V324H110.536V316.025C110.536 315.375 110.461 314.833 110.311 314.4C110.161 313.967 109.936 313.642 109.636 313.425C109.336 313.192 108.953 313.075 108.486 313.075C107.803 313.075 107.261 313.25 106.861 313.6C106.461 313.95 106.178 314.458 106.011 315.125C105.844 315.792 105.761 316.608 105.761 317.575V324H102.036V310.35H104.886L105.386 312.1H105.586C105.869 311.633 106.219 311.258 106.636 310.975C107.053 310.675 107.511 310.458 108.011 310.325C108.528 310.175 109.044 310.1 109.561 310.1C110.561 310.1 111.411 310.267 112.111 310.6C112.811 310.917 113.344 311.417 113.711 312.1H114.036C114.453 311.4 115.028 310.892 115.761 310.575C116.511 310.258 117.278 310.1 118.061 310.1ZM132.221 310.1C133.488 310.1 134.571 310.342 135.471 310.825C136.388 311.308 137.096 312.008 137.596 312.925C138.096 313.842 138.346 314.967 138.346 316.3V318.1H129.546C129.58 319.15 129.888 319.975 130.471 320.575C131.071 321.175 131.896 321.475 132.946 321.475C133.83 321.475 134.63 321.392 135.346 321.225C136.063 321.042 136.805 320.767 137.571 320.4V323.275C136.905 323.608 136.196 323.85 135.446 324C134.713 324.167 133.821 324.25 132.771 324.25C131.405 324.25 130.196 324 129.146 323.5C128.096 322.983 127.271 322.208 126.671 321.175C126.071 320.142 125.771 318.842 125.771 317.275C125.771 315.675 126.038 314.35 126.571 313.3C127.121 312.233 127.88 311.433 128.846 310.9C129.813 310.367 130.938 310.1 132.221 310.1ZM132.246 312.75C131.53 312.75 130.93 312.983 130.446 313.45C129.98 313.917 129.705 314.642 129.621 315.625H134.846C134.846 315.075 134.746 314.583 134.546 314.15C134.363 313.717 134.08 313.375 133.696 313.125C133.313 312.875 132.83 312.75 132.246 312.75ZM145.092 310.35V324H141.367V310.35H145.092ZM143.242 305C143.792 305 144.267 305.133 144.667 305.4C145.067 305.65 145.267 306.125 145.267 306.825C145.267 307.508 145.067 307.983 144.667 308.25C144.267 308.517 143.792 308.65 143.242 308.65C142.675 308.65 142.192 308.517 141.792 308.25C141.409 307.983 141.217 307.508 141.217 306.825C141.217 306.125 141.409 305.65 141.792 305.4C142.192 305.133 142.675 305 143.242 305ZM156.734 310.1C158.201 310.1 159.376 310.5 160.259 311.3C161.143 312.083 161.584 313.35 161.584 315.1V324H157.859V316.025C157.859 315.042 157.684 314.308 157.334 313.825C156.984 313.325 156.426 313.075 155.659 313.075C154.526 313.075 153.751 313.467 153.334 314.25C152.918 315.017 152.709 316.125 152.709 317.575V324H148.984V310.35H151.834L152.334 312.1H152.534C152.834 311.633 153.201 311.258 153.634 310.975C154.068 310.675 154.551 310.458 155.084 310.325C155.618 310.175 156.168 310.1 156.734 310.1ZM171.04 310.1C172.307 310.1 173.39 310.342 174.29 310.825C175.207 311.308 175.915 312.008 176.415 312.925C176.915 313.842 177.165 314.967 177.165 316.3V318.1H168.365C168.398 319.15 168.707 319.975 169.29 320.575C169.89 321.175 170.715 321.475 171.765 321.475C172.648 321.475 173.448 321.392 174.165 321.225C174.882 321.042 175.623 320.767 176.39 320.4V323.275C175.723 323.608 175.015 323.85 174.265 324C173.532 324.167 172.64 324.25 171.59 324.25C170.223 324.25 169.015 324 167.965 323.5C166.915 322.983 166.09 322.208 165.49 321.175C164.89 320.142 164.59 318.842 164.59 317.275C164.59 315.675 164.857 314.35 165.39 313.3C165.94 312.233 166.698 311.433 167.665 310.9C168.632 310.367 169.757 310.1 171.04 310.1ZM171.065 312.75C170.348 312.75 169.748 312.983 169.265 313.45C168.798 313.917 168.523 314.642 168.44 315.625H173.665C173.665 315.075 173.565 314.583 173.365 314.15C173.182 313.717 172.898 313.375 172.515 313.125C172.132 312.875 171.648 312.75 171.065 312.75ZM53.875 349H50.1V341.3H43.025V349H39.25V331.15H43.025V338.15H50.1V331.15H53.875V349ZM70.4662 342.15C70.4662 343.283 70.3079 344.292 69.9912 345.175C69.6912 346.058 69.2495 346.808 68.6662 347.425C68.0995 348.025 67.4079 348.483 66.5912 348.8C65.7745 349.1 64.8495 349.25 63.8162 349.25C62.8662 349.25 61.9829 349.1 61.1662 348.8C60.3662 348.483 59.6745 348.025 59.0912 347.425C58.5079 346.808 58.0495 346.058 57.7162 345.175C57.3995 344.292 57.2412 343.283 57.2412 342.15C57.2412 340.633 57.5079 339.358 58.0412 338.325C58.5745 337.275 59.3412 336.475 60.3412 335.925C61.3412 335.375 62.5245 335.1 63.8912 335.1C65.1745 335.1 66.3079 335.375 67.2912 335.925C68.2745 336.475 69.0495 337.275 69.6162 338.325C70.1829 339.358 70.4662 340.633 70.4662 342.15ZM61.0412 342.15C61.0412 343.05 61.1329 343.808 61.3162 344.425C61.5162 345.025 61.8245 345.483 62.2412 345.8C62.6579 346.1 63.1995 346.25 63.8662 346.25C64.5329 346.25 65.0662 346.1 65.4662 345.8C65.8829 345.483 66.1829 345.025 66.3662 344.425C66.5662 343.808 66.6662 343.05 66.6662 342.15C66.6662 341.25 66.5662 340.5 66.3662 339.9C66.1829 339.3 65.8829 338.85 65.4662 338.55C65.0495 338.25 64.5079 338.1 63.8412 338.1C62.8579 338.1 62.1412 338.442 61.6912 339.125C61.2579 339.792 61.0412 340.8 61.0412 342.15ZM79.0947 349.25C77.7447 349.25 76.5947 349.008 75.6447 348.525C74.6947 348.025 73.9697 347.258 73.4697 346.225C72.9697 345.192 72.7197 343.867 72.7197 342.25C72.7197 340.583 73.0031 339.225 73.5697 338.175C74.1364 337.125 74.9197 336.35 75.9197 335.85C76.9364 335.35 78.1031 335.1 79.4197 335.1C80.3531 335.1 81.1614 335.192 81.8447 335.375C82.5447 335.558 83.1531 335.775 83.6697 336.025L82.5697 338.9C81.9864 338.667 81.4364 338.475 80.9197 338.325C80.4197 338.175 79.9197 338.1 79.4197 338.1C78.7697 338.1 78.2281 338.258 77.7947 338.575C77.3614 338.875 77.0364 339.333 76.8197 339.95C76.6197 340.55 76.5197 341.308 76.5197 342.225C76.5197 343.125 76.6281 343.875 76.8447 344.475C77.0781 345.058 77.4114 345.5 77.8447 345.8C78.2781 346.083 78.8031 346.225 79.4197 346.225C80.2031 346.225 80.8947 346.125 81.4947 345.925C82.0947 345.708 82.6781 345.417 83.2447 345.05V348.225C82.6781 348.592 82.0781 348.85 81.4447 349C80.8281 349.167 80.0447 349.25 79.0947 349.25ZM90.1115 333.875C90.1115 334.542 90.0865 335.183 90.0365 335.8C90.0032 336.417 89.9699 336.85 89.9365 337.1H90.1365C90.4365 336.633 90.7865 336.258 91.1865 335.975C91.5865 335.675 92.0282 335.458 92.5115 335.325C93.0115 335.175 93.5365 335.1 94.0865 335.1C95.0699 335.1 95.9282 335.275 96.6615 335.625C97.3949 335.975 97.9615 336.517 98.3615 337.25C98.7782 337.983 98.9865 338.933 98.9865 340.1V349H95.2615V341.025C95.2615 340.042 95.0782 339.308 94.7115 338.825C94.3615 338.325 93.8115 338.075 93.0615 338.075C92.3115 338.075 91.7199 338.25 91.2865 338.6C90.8699 338.95 90.5699 339.458 90.3865 340.125C90.2032 340.792 90.1115 341.608 90.1115 342.575V349H86.3865V330H90.1115V333.875ZM112.342 344.95C112.342 345.867 112.126 346.65 111.692 347.3C111.259 347.933 110.609 348.417 109.742 348.75C108.876 349.083 107.801 349.25 106.517 349.25C105.567 349.25 104.751 349.183 104.067 349.05C103.384 348.933 102.701 348.733 102.017 348.45V345.375C102.751 345.708 103.542 345.983 104.392 346.2C105.242 346.417 105.992 346.525 106.642 346.525C107.376 346.525 107.892 346.417 108.192 346.2C108.509 345.983 108.667 345.7 108.667 345.35C108.667 345.117 108.601 344.908 108.467 344.725C108.351 344.542 108.084 344.333 107.667 344.1C107.251 343.867 106.601 343.567 105.717 343.2C104.867 342.833 104.167 342.475 103.617 342.125C103.067 341.758 102.659 341.325 102.392 340.825C102.126 340.308 101.992 339.667 101.992 338.9C101.992 337.633 102.484 336.683 103.467 336.05C104.451 335.417 105.759 335.1 107.392 335.1C108.242 335.1 109.051 335.183 109.817 335.35C110.584 335.517 111.376 335.792 112.192 336.175L111.067 338.85C110.617 338.65 110.184 338.475 109.767 338.325C109.351 338.175 108.942 338.058 108.542 337.975C108.159 337.892 107.759 337.85 107.342 337.85C106.792 337.85 106.376 337.925 106.092 338.075C105.826 338.225 105.692 338.45 105.692 338.75C105.692 338.967 105.759 339.167 105.892 339.35C106.042 339.517 106.317 339.7 106.717 339.9C107.134 340.1 107.742 340.367 108.542 340.7C109.326 341.017 110.001 341.35 110.567 341.7C111.134 342.033 111.567 342.458 111.867 342.975C112.184 343.475 112.342 344.133 112.342 344.95ZM120.794 349.25C119.444 349.25 118.294 349.008 117.344 348.525C116.394 348.025 115.669 347.258 115.169 346.225C114.669 345.192 114.419 343.867 114.419 342.25C114.419 340.583 114.702 339.225 115.269 338.175C115.836 337.125 116.619 336.35 117.619 335.85C118.636 335.35 119.802 335.1 121.119 335.1C122.052 335.1 122.861 335.192 123.544 335.375C124.244 335.558 124.852 335.775 125.369 336.025L124.269 338.9C123.686 338.667 123.136 338.475 122.619 338.325C122.119 338.175 121.619 338.1 121.119 338.1C120.469 338.1 119.927 338.258 119.494 338.575C119.061 338.875 118.736 339.333 118.519 339.95C118.319 340.55 118.219 341.308 118.219 342.225C118.219 343.125 118.327 343.875 118.544 344.475C118.777 345.058 119.111 345.5 119.544 345.8C119.977 346.083 120.502 346.225 121.119 346.225C121.902 346.225 122.594 346.125 123.194 345.925C123.794 345.708 124.377 345.417 124.944 345.05V348.225C124.377 348.592 123.777 348.85 123.144 349C122.527 349.167 121.744 349.25 120.794 349.25ZM131.811 333.875C131.811 334.542 131.786 335.183 131.736 335.8C131.702 336.417 131.669 336.85 131.636 337.1H131.836C132.136 336.633 132.486 336.258 132.886 335.975C133.286 335.675 133.727 335.458 134.211 335.325C134.711 335.175 135.236 335.1 135.786 335.1C136.769 335.1 137.627 335.275 138.361 335.625C139.094 335.975 139.661 336.517 140.061 337.25C140.477 337.983 140.686 338.933 140.686 340.1V349H136.961V341.025C136.961 340.042 136.777 339.308 136.411 338.825C136.061 338.325 135.511 338.075 134.761 338.075C134.011 338.075 133.419 338.25 132.986 338.6C132.569 338.95 132.269 339.458 132.086 340.125C131.902 340.792 131.811 341.608 131.811 342.575V349H128.086V330H131.811V333.875ZM157.041 335.35V349H154.191L153.691 347.25H153.491C153.208 347.717 152.841 348.1 152.391 348.4C151.958 348.683 151.475 348.892 150.941 349.025C150.408 349.175 149.858 349.25 149.291 349.25C148.325 349.25 147.475 349.075 146.741 348.725C146.008 348.375 145.441 347.833 145.041 347.1C144.641 346.367 144.441 345.417 144.441 344.25V335.35H148.166V343.325C148.166 344.292 148.341 345.025 148.691 345.525C149.041 346.025 149.6 346.275 150.366 346.275C151.133 346.275 151.725 346.1 152.141 345.75C152.575 345.4 152.875 344.892 153.041 344.225C153.225 343.558 153.316 342.742 153.316 341.775V335.35H157.041ZM164.672 349H160.947V330H164.672V349ZM176.189 335.1C176.373 335.1 176.589 335.108 176.839 335.125C177.089 335.142 177.289 335.167 177.439 335.2L177.164 338.7C177.048 338.667 176.873 338.642 176.639 338.625C176.423 338.592 176.231 338.575 176.064 338.575C175.581 338.575 175.114 338.642 174.664 338.775C174.214 338.892 173.806 339.083 173.439 339.35C173.089 339.617 172.806 339.975 172.589 340.425C172.389 340.858 172.289 341.4 172.289 342.05V349H168.564V335.35H171.389L171.939 337.65H172.114C172.381 337.183 172.714 336.758 173.114 336.375C173.514 335.992 173.973 335.683 174.489 335.45C175.023 335.217 175.589 335.1 176.189 335.1ZM185.054 335.1C186.32 335.1 187.404 335.342 188.304 335.825C189.22 336.308 189.929 337.008 190.429 337.925C190.929 338.842 191.179 339.967 191.179 341.3V343.1H182.379C182.412 344.15 182.72 344.975 183.304 345.575C183.904 346.175 184.729 346.475 185.779 346.475C186.662 346.475 187.462 346.392 188.179 346.225C188.895 346.042 189.637 345.767 190.404 345.4V348.275C189.737 348.608 189.029 348.85 188.279 349C187.545 349.167 186.654 349.25 185.604 349.25C184.237 349.25 183.029 349 181.979 348.5C180.929 347.983 180.104 347.208 179.504 346.175C178.904 345.142 178.604 343.842 178.604 342.275C178.604 340.675 178.87 339.35 179.404 338.3C179.954 337.233 180.712 336.433 181.679 335.9C182.645 335.367 183.77 335.1 185.054 335.1ZM185.079 337.75C184.362 337.75 183.762 337.983 183.279 338.45C182.812 338.917 182.537 339.642 182.454 340.625H187.679C187.679 340.075 187.579 339.583 187.379 339.15C187.195 338.717 186.912 338.375 186.529 338.125C186.145 337.875 185.662 337.75 185.079 337.75ZM197.924 335.35V349H194.199V335.35H197.924ZM196.074 330C196.624 330 197.099 330.133 197.499 330.4C197.899 330.65 198.099 331.125 198.099 331.825C198.099 332.508 197.899 332.983 197.499 333.25C197.099 333.517 196.624 333.65 196.074 333.65C195.507 333.65 195.024 333.517 194.624 333.25C194.241 332.983 194.049 332.508 194.049 331.825C194.049 331.125 194.241 330.65 194.624 330.4C195.024 330.133 195.507 330 196.074 330ZM209.366 338.15H206.141V349H202.416V338.15H200.366V336.35L202.416 335.35V334.35C202.416 333.183 202.608 332.283 202.991 331.65C203.391 331 203.95 330.542 204.666 330.275C205.4 330.008 206.258 329.875 207.241 329.875C207.975 329.875 208.633 329.933 209.216 330.05C209.816 330.167 210.3 330.3 210.666 330.45L209.716 333.175C209.433 333.092 209.125 333.017 208.791 332.95C208.458 332.867 208.075 332.825 207.641 332.825C207.125 332.825 206.741 332.983 206.491 333.3C206.258 333.617 206.141 334.017 206.141 334.5V335.35H209.366V338.15ZM217.109 335.1C218.376 335.1 219.459 335.342 220.359 335.825C221.276 336.308 221.984 337.008 222.484 337.925C222.984 338.842 223.234 339.967 223.234 341.3V343.1H214.434C214.468 344.15 214.776 344.975 215.359 345.575C215.959 346.175 216.784 346.475 217.834 346.475C218.718 346.475 219.518 346.392 220.234 346.225C220.951 346.042 221.693 345.767 222.459 345.4V348.275C221.793 348.608 221.084 348.85 220.334 349C219.601 349.167 218.709 349.25 217.659 349.25C216.293 349.25 215.084 349 214.034 348.5C212.984 347.983 212.159 347.208 211.559 346.175C210.959 345.142 210.659 343.842 210.659 342.275C210.659 340.675 210.926 339.35 211.459 338.3C212.009 337.233 212.768 336.433 213.734 335.9C214.701 335.367 215.826 335.1 217.109 335.1ZM217.134 337.75C216.418 337.75 215.818 337.983 215.334 338.45C214.868 338.917 214.593 339.642 214.509 340.625H219.734C219.734 340.075 219.634 339.583 219.434 339.15C219.251 338.717 218.968 338.375 218.584 338.125C218.201 337.875 217.718 337.75 217.134 337.75Z" fill="white"/>
<path d="M53.875 388H50.1V380.3H43.025V388H39.25V370.15H43.025V377.15H50.1V370.15H53.875V388ZM63.6912 374.1C64.9579 374.1 66.0412 374.342 66.9412 374.825C67.8579 375.308 68.5662 376.008 69.0662 376.925C69.5662 377.842 69.8162 378.967 69.8162 380.3V382.1H61.0162C61.0495 383.15 61.3579 383.975 61.9412 384.575C62.5412 385.175 63.3662 385.475 64.4162 385.475C65.2995 385.475 66.0995 385.392 66.8162 385.225C67.5329 385.042 68.2745 384.767 69.0412 384.4V387.275C68.3745 387.608 67.6662 387.85 66.9162 388C66.1829 388.167 65.2912 388.25 64.2412 388.25C62.8745 388.25 61.6662 388 60.6162 387.5C59.5662 386.983 58.7412 386.208 58.1412 385.175C57.5412 384.142 57.2412 382.842 57.2412 381.275C57.2412 379.675 57.5079 378.35 58.0412 377.3C58.5912 376.233 59.3495 375.433 60.3162 374.9C61.2829 374.367 62.4079 374.1 63.6912 374.1ZM63.7162 376.75C62.9995 376.75 62.3995 376.983 61.9162 377.45C61.4495 377.917 61.1745 378.642 61.0912 379.625H66.3162C66.3162 379.075 66.2162 378.583 66.0162 378.15C65.8329 377.717 65.5495 377.375 65.1662 377.125C64.7829 376.875 64.2995 376.75 63.7162 376.75ZM76.5617 388H72.8367V369H76.5617V388ZM86.0789 374.1C87.3456 374.1 88.4289 374.342 89.3289 374.825C90.2456 375.308 90.9539 376.008 91.4539 376.925C91.9539 377.842 92.2039 378.967 92.2039 380.3V382.1H83.4039C83.4372 383.15 83.7456 383.975 84.3289 384.575C84.9289 385.175 85.7539 385.475 86.8039 385.475C87.6872 385.475 88.4872 385.392 89.2039 385.225C89.9206 385.042 90.6622 384.767 91.4289 384.4V387.275C90.7622 387.608 90.0539 387.85 89.3039 388C88.5706 388.167 87.6789 388.25 86.6289 388.25C85.2622 388.25 84.0539 388 83.0039 387.5C81.9539 386.983 81.1289 386.208 80.5289 385.175C79.9289 384.142 79.6289 382.842 79.6289 381.275C79.6289 379.675 79.8956 378.35 80.4289 377.3C80.9789 376.233 81.7372 375.433 82.7039 374.9C83.6706 374.367 84.7956 374.1 86.0789 374.1ZM86.1039 376.75C85.3872 376.75 84.7872 376.983 84.3039 377.45C83.8372 377.917 83.5622 378.642 83.4789 379.625H88.7039C88.7039 379.075 88.6039 378.583 88.4039 378.15C88.2206 377.717 87.9372 377.375 87.5539 377.125C87.1706 376.875 86.6872 376.75 86.1039 376.75ZM102.974 374.1C104.441 374.1 105.616 374.5 106.499 375.3C107.383 376.083 107.824 377.35 107.824 379.1V388H104.099V380.025C104.099 379.042 103.924 378.308 103.574 377.825C103.224 377.325 102.666 377.075 101.899 377.075C100.766 377.075 99.9911 377.467 99.5744 378.25C99.1577 379.017 98.9494 380.125 98.9494 381.575V388H95.2244V374.35H98.0744L98.5744 376.1H98.7744C99.0744 375.633 99.4411 375.258 99.8744 374.975C100.308 374.675 100.791 374.458 101.324 374.325C101.858 374.175 102.408 374.1 102.974 374.1ZM117.28 374.1C118.547 374.1 119.63 374.342 120.53 374.825C121.447 375.308 122.155 376.008 122.655 376.925C123.155 377.842 123.405 378.967 123.405 380.3V382.1H114.605C114.638 383.15 114.947 383.975 115.53 384.575C116.13 385.175 116.955 385.475 118.005 385.475C118.888 385.475 119.688 385.392 120.405 385.225C121.122 385.042 121.863 384.767 122.63 384.4V387.275C121.963 387.608 121.255 387.85 120.505 388C119.772 388.167 118.88 388.25 117.83 388.25C116.463 388.25 115.255 388 114.205 387.5C113.155 386.983 112.33 386.208 111.73 385.175C111.13 384.142 110.83 382.842 110.83 381.275C110.83 379.675 111.097 378.35 111.63 377.3C112.18 376.233 112.938 375.433 113.905 374.9C114.872 374.367 115.997 374.1 117.28 374.1ZM117.305 376.75C116.588 376.75 115.988 376.983 115.505 377.45C115.038 377.917 114.763 378.642 114.68 379.625H119.905C119.905 379.075 119.805 378.583 119.605 378.15C119.422 377.717 119.138 377.375 118.755 377.125C118.372 376.875 117.888 376.75 117.305 376.75ZM125.721 379.162H132.19V381.738H125.721V379.162ZM135.71 388V370.15H139.485V384.875H146.735V388H135.71ZM155.146 374.075C156.979 374.075 158.379 374.475 159.346 375.275C160.329 376.058 160.821 377.267 160.821 378.9V388H158.221L157.496 386.15H157.396C157.012 386.633 156.612 387.033 156.196 387.35C155.796 387.667 155.329 387.892 154.796 388.025C154.279 388.175 153.637 388.25 152.871 388.25C152.071 388.25 151.346 388.1 150.696 387.8C150.062 387.483 149.562 387.008 149.196 386.375C148.829 385.725 148.646 384.908 148.646 383.925C148.646 382.475 149.154 381.408 150.171 380.725C151.187 380.025 152.712 379.642 154.746 379.575L157.121 379.5V378.9C157.121 378.183 156.929 377.658 156.546 377.325C156.179 376.992 155.662 376.825 154.996 376.825C154.329 376.825 153.679 376.925 153.046 377.125C152.412 377.308 151.779 377.542 151.146 377.825L149.921 375.3C150.654 374.917 151.462 374.617 152.346 374.4C153.246 374.183 154.179 374.075 155.146 374.075ZM155.671 381.725C154.471 381.758 153.637 381.975 153.171 382.375C152.704 382.775 152.471 383.3 152.471 383.95C152.471 384.517 152.637 384.925 152.971 385.175C153.304 385.408 153.737 385.525 154.271 385.525C155.071 385.525 155.746 385.292 156.296 384.825C156.846 384.342 157.121 383.667 157.121 382.8V381.675L155.671 381.725ZM172.384 374.1C173.85 374.1 175.025 374.5 175.909 375.3C176.792 376.083 177.234 377.35 177.234 379.1V388H173.509V380.025C173.509 379.042 173.334 378.308 172.984 377.825C172.634 377.325 172.075 377.075 171.309 377.075C170.175 377.075 169.4 377.467 168.984 378.25C168.567 379.017 168.359 380.125 168.359 381.575V388H164.634V374.35H167.484L167.984 376.1H168.184C168.484 375.633 168.85 375.258 169.284 374.975C169.717 374.675 170.2 374.458 170.734 374.325C171.267 374.175 171.817 374.1 172.384 374.1ZM185.489 374.1C186.323 374.1 187.073 374.267 187.739 374.6C188.406 374.933 188.973 375.433 189.439 376.1H189.539L189.839 374.35H192.989V388.025C192.989 389.325 192.731 390.417 192.214 391.3C191.714 392.183 190.956 392.85 189.939 393.3C188.923 393.767 187.664 394 186.164 394C185.198 394 184.298 393.942 183.464 393.825C182.648 393.708 181.848 393.5 181.064 393.2V390.225C181.631 390.458 182.198 390.65 182.764 390.8C183.348 390.967 183.939 391.083 184.539 391.15C185.156 391.233 185.773 391.275 186.389 391.275C187.356 391.275 188.073 391.017 188.539 390.5C189.023 389.983 189.264 389.208 189.264 388.175V387.9C189.264 387.617 189.273 387.325 189.289 387.025C189.323 386.725 189.348 386.458 189.364 386.225H189.264C188.798 386.942 188.239 387.458 187.589 387.775C186.939 388.092 186.206 388.25 185.389 388.25C183.773 388.25 182.506 387.633 181.589 386.4C180.689 385.15 180.239 383.417 180.239 381.2C180.239 379.7 180.448 378.425 180.864 377.375C181.281 376.308 181.881 375.5 182.664 374.95C183.464 374.383 184.406 374.1 185.489 374.1ZM186.664 377.125C186.081 377.125 185.589 377.283 185.189 377.6C184.806 377.9 184.514 378.358 184.314 378.975C184.131 379.575 184.039 380.333 184.039 381.25C184.039 382.617 184.256 383.642 184.689 384.325C185.123 384.992 185.798 385.325 186.714 385.325C187.198 385.325 187.614 385.267 187.964 385.15C188.314 385.017 188.598 384.808 188.814 384.525C189.048 384.225 189.223 383.842 189.339 383.375C189.456 382.908 189.514 382.342 189.514 381.675V381.225C189.514 380.242 189.414 379.45 189.214 378.85C189.014 378.25 188.706 377.817 188.289 377.55C187.873 377.267 187.331 377.125 186.664 377.125ZM202.51 374.1C203.776 374.1 204.86 374.342 205.76 374.825C206.676 375.308 207.385 376.008 207.885 376.925C208.385 377.842 208.635 378.967 208.635 380.3V382.1H199.835C199.868 383.15 200.176 383.975 200.76 384.575C201.36 385.175 202.185 385.475 203.235 385.475C204.118 385.475 204.918 385.392 205.635 385.225C206.351 385.042 207.093 384.767 207.86 384.4V387.275C207.193 387.608 206.485 387.85 205.735 388C205.001 388.167 204.11 388.25 203.06 388.25C201.693 388.25 200.485 388 199.435 387.5C198.385 386.983 197.56 386.208 196.96 385.175C196.36 384.142 196.06 382.842 196.06 381.275C196.06 379.675 196.326 378.35 196.86 377.3C197.41 376.233 198.168 375.433 199.135 374.9C200.101 374.367 201.226 374.1 202.51 374.1ZM202.535 376.75C201.818 376.75 201.218 376.983 200.735 377.45C200.268 377.917 199.993 378.642 199.91 379.625H205.135C205.135 379.075 205.035 378.583 204.835 378.15C204.651 377.717 204.368 377.375 203.985 377.125C203.601 376.875 203.118 376.75 202.535 376.75ZM210.95 379.162H217.42V381.738H210.95V379.162ZM46.025 402.975H53.1V412.225C52.1667 412.542 51.1917 412.792 50.175 412.975C49.175 413.158 48.0333 413.25 46.75 413.25C44.9833 413.25 43.475 412.9 42.225 412.2C40.9917 411.5 40.05 410.467 39.4 409.1C38.7667 407.733 38.45 406.05 38.45 404.05C38.45 402.183 38.8083 400.567 39.525 399.2C40.2583 397.833 41.3167 396.775 42.7 396.025C44.0833 395.275 45.775 394.9 47.775 394.9C48.725 394.9 49.6583 395 50.575 395.2C51.4917 395.4 52.325 395.667 53.075 396L51.825 399.025C51.275 398.742 50.65 398.508 49.95 398.325C49.25 398.142 48.5167 398.05 47.75 398.05C46.65 398.05 45.6917 398.3 44.875 398.8C44.075 399.3 43.45 400.008 43 400.925C42.5667 401.825 42.35 402.892 42.35 404.125C42.35 405.292 42.5083 406.325 42.825 407.225C43.1417 408.125 43.6417 408.833 44.325 409.35C45.0083 409.85 45.9 410.1 47 410.1C47.3667 410.1 47.6833 410.092 47.95 410.075C48.2333 410.042 48.4917 410.008 48.725 409.975C48.9583 409.925 49.1833 409.883 49.4 409.85V406.125H46.025V402.975ZM55.0908 399.35H59.1658L61.7408 407.025C61.8242 407.275 61.8908 407.525 61.9408 407.775C62.0075 408.025 62.0575 408.283 62.0908 408.55C62.1408 408.817 62.1742 409.1 62.1908 409.4H62.2658C62.3158 408.967 62.3825 408.558 62.4658 408.175C62.5658 407.775 62.6742 407.392 62.7908 407.025L65.3158 399.35H69.3158L63.5408 414.75C63.1908 415.683 62.7325 416.467 62.1658 417.1C61.6158 417.733 60.9742 418.208 60.2408 418.525C59.5075 418.842 58.7075 419 57.8408 419C57.4242 419 57.0575 418.975 56.7408 418.925C56.4408 418.892 56.1742 418.85 55.9408 418.8V415.85C56.1242 415.883 56.3408 415.917 56.5908 415.95C56.8575 415.983 57.1325 416 57.4158 416C57.9325 416 58.3742 415.892 58.7408 415.675C59.1242 415.458 59.4408 415.158 59.6908 414.775C59.9408 414.408 60.1408 414.008 60.2908 413.575L60.5158 412.9L55.0908 399.35ZM87.2992 399.1C88.8492 399.1 90.0159 399.5 90.7992 400.3C91.5992 401.083 91.9992 402.35 91.9992 404.1V413H88.2742V405.025C88.2742 404.042 88.1076 403.308 87.7742 402.825C87.4409 402.325 86.9242 402.075 86.2242 402.075C85.2409 402.075 84.5409 402.425 84.1242 403.125C83.7076 403.825 83.4992 404.833 83.4992 406.15V413H79.7742V405.025C79.7742 404.375 79.6992 403.833 79.5492 403.4C79.3992 402.967 79.1742 402.642 78.8742 402.425C78.5742 402.192 78.1909 402.075 77.7242 402.075C77.0409 402.075 76.4992 402.25 76.0992 402.6C75.6992 402.95 75.4159 403.458 75.2492 404.125C75.0826 404.792 74.9992 405.608 74.9992 406.575V413H71.2742V399.35H74.1242L74.6242 401.1H74.8242C75.1076 400.633 75.4576 400.258 75.8742 399.975C76.2909 399.675 76.7492 399.458 77.2492 399.325C77.7659 399.175 78.2826 399.1 78.7992 399.1C79.7992 399.1 80.6492 399.267 81.3492 399.6C82.0492 399.917 82.5826 400.417 82.9492 401.1H83.2742C83.6909 400.4 84.2659 399.892 84.9992 399.575C85.7492 399.258 86.5159 399.1 87.2992 399.1ZM103.585 399.1C105.051 399.1 106.226 399.5 107.11 400.3C107.993 401.083 108.435 402.35 108.435 404.1V413H104.71V405.025C104.71 404.042 104.535 403.308 104.185 402.825C103.835 402.325 103.276 402.075 102.51 402.075C101.376 402.075 100.601 402.467 100.185 403.25C99.7681 404.017 99.5598 405.125 99.5598 406.575V413H95.8348V399.35H98.6848L99.1848 401.1H99.3848C99.6848 400.633 100.051 400.258 100.485 399.975C100.918 399.675 101.401 399.458 101.935 399.325C102.468 399.175 103.018 399.1 103.585 399.1ZM117.865 399.075C119.699 399.075 121.099 399.475 122.065 400.275C123.049 401.058 123.54 402.267 123.54 403.9V413H120.94L120.215 411.15H120.115C119.732 411.633 119.332 412.033 118.915 412.35C118.515 412.667 118.049 412.892 117.515 413.025C116.999 413.175 116.357 413.25 115.59 413.25C114.79 413.25 114.065 413.1 113.415 412.8C112.782 412.483 112.282 412.008 111.915 411.375C111.549 410.725 111.365 409.908 111.365 408.925C111.365 407.475 111.874 406.408 112.89 405.725C113.907 405.025 115.432 404.642 117.465 404.575L119.84 404.5V403.9C119.84 403.183 119.649 402.658 119.265 402.325C118.899 401.992 118.382 401.825 117.715 401.825C117.049 401.825 116.399 401.925 115.765 402.125C115.132 402.308 114.499 402.542 113.865 402.825L112.64 400.3C113.374 399.917 114.182 399.617 115.065 399.4C115.965 399.183 116.899 399.075 117.865 399.075ZM118.39 406.725C117.19 406.758 116.357 406.975 115.89 407.375C115.424 407.775 115.19 408.3 115.19 408.95C115.19 409.517 115.357 409.925 115.69 410.175C116.024 410.408 116.457 410.525 116.99 410.525C117.79 410.525 118.465 410.292 119.015 409.825C119.565 409.342 119.84 408.667 119.84 407.8V406.675L118.39 406.725ZM136.878 408.95C136.878 409.867 136.662 410.65 136.228 411.3C135.795 411.933 135.145 412.417 134.278 412.75C133.412 413.083 132.337 413.25 131.053 413.25C130.103 413.25 129.287 413.183 128.603 413.05C127.92 412.933 127.237 412.733 126.553 412.45V409.375C127.287 409.708 128.078 409.983 128.928 410.2C129.778 410.417 130.528 410.525 131.178 410.525C131.912 410.525 132.428 410.417 132.728 410.2C133.045 409.983 133.203 409.7 133.203 409.35C133.203 409.117 133.137 408.908 133.003 408.725C132.887 408.542 132.62 408.333 132.203 408.1C131.787 407.867 131.137 407.567 130.253 407.2C129.403 406.833 128.703 406.475 128.153 406.125C127.603 405.758 127.195 405.325 126.928 404.825C126.662 404.308 126.528 403.667 126.528 402.9C126.528 401.633 127.02 400.683 128.003 400.05C128.987 399.417 130.295 399.1 131.928 399.1C132.778 399.1 133.587 399.183 134.353 399.35C135.12 399.517 135.912 399.792 136.728 400.175L135.603 402.85C135.153 402.65 134.72 402.475 134.303 402.325C133.887 402.175 133.478 402.058 133.078 401.975C132.695 401.892 132.295 401.85 131.878 401.85C131.328 401.85 130.912 401.925 130.628 402.075C130.362 402.225 130.228 402.45 130.228 402.75C130.228 402.967 130.295 403.167 130.428 403.35C130.578 403.517 130.853 403.7 131.253 403.9C131.67 404.1 132.278 404.367 133.078 404.7C133.862 405.017 134.537 405.35 135.103 405.7C135.67 406.033 136.103 406.458 136.403 406.975C136.72 407.475 136.878 408.133 136.878 408.95ZM143.505 399.35V413H139.78V399.35H143.505ZM141.655 394C142.205 394 142.68 394.133 143.08 394.4C143.48 394.65 143.68 395.125 143.68 395.825C143.68 396.508 143.48 396.983 143.08 397.25C142.68 397.517 142.205 397.65 141.655 397.65C141.088 397.65 140.605 397.517 140.205 397.25C139.822 396.983 139.63 396.508 139.63 395.825C139.63 395.125 139.822 394.65 140.205 394.4C140.605 394.133 141.088 394 141.655 394ZM159.922 399.35V413H157.072L156.572 411.25H156.372C156.089 411.717 155.722 412.1 155.272 412.4C154.839 412.683 154.356 412.892 153.822 413.025C153.289 413.175 152.739 413.25 152.172 413.25C151.206 413.25 150.356 413.075 149.622 412.725C148.889 412.375 148.322 411.833 147.922 411.1C147.522 410.367 147.322 409.417 147.322 408.25V399.35H151.047V407.325C151.047 408.292 151.222 409.025 151.572 409.525C151.922 410.025 152.481 410.275 153.247 410.275C154.014 410.275 154.606 410.1 155.022 409.75C155.456 409.4 155.756 408.892 155.922 408.225C156.106 407.558 156.197 406.742 156.197 405.775V399.35H159.922ZM179.853 399.1C181.403 399.1 182.57 399.5 183.353 400.3C184.153 401.083 184.553 402.35 184.553 404.1V413H180.828V405.025C180.828 404.042 180.661 403.308 180.328 402.825C179.995 402.325 179.478 402.075 178.778 402.075C177.795 402.075 177.095 402.425 176.678 403.125C176.261 403.825 176.053 404.833 176.053 406.15V413H172.328V405.025C172.328 404.375 172.253 403.833 172.103 403.4C171.953 402.967 171.728 402.642 171.428 402.425C171.128 402.192 170.745 402.075 170.278 402.075C169.595 402.075 169.053 402.25 168.653 402.6C168.253 402.95 167.97 403.458 167.803 404.125C167.636 404.792 167.553 405.608 167.553 406.575V413H163.828V399.35H166.678L167.178 401.1H167.378C167.661 400.633 168.011 400.258 168.428 399.975C168.845 399.675 169.303 399.458 169.803 399.325C170.32 399.175 170.836 399.1 171.353 399.1C172.353 399.1 173.203 399.267 173.903 399.6C174.603 399.917 175.136 400.417 175.503 401.1H175.828C176.245 400.4 176.82 399.892 177.553 399.575C178.303 399.258 179.07 399.1 179.853 399.1Z" fill="#9D9D9D"/>
<path d="M44.6923 268.064C46.5897 268.064 48.0256 268.85 49 270.423C49.9829 271.996 50.4744 274.244 50.4744 277.167C50.4744 280.098 49.9829 282.355 49 283.936C48.0256 285.509 46.5897 286.295 44.6923 286.295C42.7949 286.295 41.3547 285.509 40.3718 283.936C39.3974 282.355 38.9103 280.098 38.9103 277.167C38.9103 274.244 39.3974 271.996 40.3718 270.423C41.3547 268.85 42.7949 268.064 44.6923 268.064ZM44.6923 269.795C43.6068 269.795 42.7521 270.372 42.1282 271.526C41.5043 272.671 41.1923 274.551 41.1923 277.167C41.1923 279.124 41.3419 280.662 41.641 281.782L47.0385 270.936C46.5 270.175 45.7179 269.795 44.6923 269.795ZM48.2051 277.167C48.2051 275.192 48.0513 273.65 47.7436 272.538L42.3718 283.423C42.9103 284.175 43.6838 284.551 44.6923 284.551C45.7863 284.551 46.6453 283.974 47.2692 282.821C47.8932 281.667 48.2051 279.782 48.2051 277.167ZM59.8039 268.09C61.727 268.09 63.1672 268.739 64.1244 270.038C65.0817 271.338 65.5603 273.094 65.5603 275.308C65.5603 277.094 65.3766 278.603 65.0091 279.833C64.6501 281.064 64.0903 282.094 63.3296 282.923C62.5689 283.752 61.5945 284.449 60.4065 285.013C59.2185 285.577 57.7997 286.085 56.1501 286.538L55.6501 284.897C57.2826 284.444 58.6458 283.906 59.7398 283.282C60.8424 282.658 61.6843 281.876 62.2655 280.936C62.8467 279.987 63.18 278.816 63.2655 277.423C62.7527 278.047 62.1586 278.556 61.4834 278.949C60.8082 279.333 60.0262 279.526 59.1373 279.526C58.1544 279.526 57.2826 279.303 56.5219 278.859C55.7697 278.406 55.1757 277.761 54.7398 276.923C54.3039 276.077 54.086 275.064 54.086 273.885C54.086 272.628 54.3424 271.568 54.8552 270.705C55.368 269.842 56.0561 269.192 56.9193 268.756C57.7826 268.312 58.7441 268.09 59.8039 268.09ZM56.3168 273.962C56.3168 275.312 56.5988 276.291 57.1629 276.897C57.7356 277.504 58.5262 277.808 59.5347 277.808C60.3296 277.808 61.0262 277.603 61.6244 277.192C62.2313 276.782 62.7954 276.222 63.3168 275.513C63.2911 273.436 62.992 271.97 62.4193 271.115C61.8467 270.261 60.9749 269.833 59.8039 269.833C57.4791 269.833 56.3168 271.209 56.3168 273.962ZM70.8515 288.641L69.1079 287.872L80.0822 265.244L81.8002 266.09L70.8515 288.641ZM90.0528 268.064C91.1639 268.064 92.1169 268.282 92.9118 268.718C93.7067 269.145 94.3135 269.731 94.7323 270.474C95.1597 271.218 95.3733 272.056 95.3733 272.987C95.3733 273.799 95.2323 274.594 94.9503 275.372C94.6682 276.141 94.2152 276.953 93.5913 277.808C92.9759 278.654 92.1639 279.594 91.1554 280.628C90.1469 281.662 88.9161 282.842 87.4631 284.167H95.7836L95.5144 286H85.0144V284.244C86.681 282.645 88.04 281.295 89.0913 280.192C90.1511 279.09 90.9716 278.141 91.5528 277.346C92.134 276.543 92.5357 275.808 92.758 275.141C92.9887 274.474 93.1041 273.782 93.1041 273.064C93.1041 272.073 92.8263 271.291 92.2708 270.718C91.7152 270.145 90.9417 269.859 89.9503 269.859C89.0785 269.859 88.3648 270.009 87.8092 270.308C87.2537 270.607 86.6981 271.085 86.1426 271.744L84.6554 270.59C85.3563 269.735 86.1298 269.103 86.9759 268.692C87.8306 268.274 88.8563 268.064 90.0528 268.064ZM106.216 268.064C108.113 268.064 109.549 268.85 110.523 270.423C111.506 271.996 111.998 274.244 111.998 277.167C111.998 280.098 111.506 282.355 110.523 283.936C109.549 285.509 108.113 286.295 106.216 286.295C104.318 286.295 102.878 285.509 101.895 283.936C100.921 282.355 100.434 280.098 100.434 277.167C100.434 274.244 100.921 271.996 101.895 270.423C102.878 268.85 104.318 268.064 106.216 268.064ZM106.216 269.795C105.13 269.795 104.276 270.372 103.652 271.526C103.028 272.671 102.716 274.551 102.716 277.167C102.716 279.124 102.865 280.662 103.164 281.782L108.562 270.936C108.023 270.175 107.241 269.795 106.216 269.795ZM109.729 277.167C109.729 275.192 109.575 273.65 109.267 272.538L103.895 283.423C104.434 284.175 105.207 284.551 106.216 284.551C107.31 284.551 108.169 283.974 108.793 282.821C109.417 281.667 109.729 279.782 109.729 277.167ZM127.174 284.244V286H116.981V284.244H121.327V270.679L117.276 273.141L116.34 271.603L121.597 268.346H123.481V284.244H127.174ZM140.554 274.974V279.987H142.836V281.705H140.554V286H138.477L138.465 281.705H131.131V280.141L136.311 268.064L138.106 268.821L133.413 279.987H138.477L138.76 274.974H140.554ZM162.598 278.91V277.038H172.88V278.91H162.598ZM198.501 268.064C200.398 268.064 201.834 268.85 202.809 270.423C203.791 271.996 204.283 274.244 204.283 277.167C204.283 280.098 203.791 282.355 202.809 283.936C201.834 285.509 200.398 286.295 198.501 286.295C196.603 286.295 195.163 285.509 194.18 283.936C193.206 282.355 192.719 280.098 192.719 277.167C192.719 274.244 193.206 271.996 194.18 270.423C195.163 268.85 196.603 268.064 198.501 268.064ZM198.501 269.795C197.415 269.795 196.561 270.372 195.937 271.526C195.313 272.671 195.001 274.551 195.001 277.167C195.001 279.124 195.15 280.662 195.45 281.782L200.847 270.936C200.309 270.175 199.527 269.795 198.501 269.795ZM202.014 277.167C202.014 275.192 201.86 273.65 201.552 272.538L196.18 283.423C196.719 284.175 197.492 284.551 198.501 284.551C199.595 284.551 200.454 283.974 201.078 282.821C201.702 281.667 202.014 279.782 202.014 277.167ZM212.1 286.244L210.087 285.628L216.972 270.141H208.689V268.346H219.138V270L212.1 286.244ZM224.66 288.641L222.916 287.872L233.891 265.244L235.609 266.09L224.66 288.641ZM243.861 268.064C244.973 268.064 245.926 268.282 246.72 268.718C247.515 269.145 248.122 269.731 248.541 270.474C248.968 271.218 249.182 272.056 249.182 272.987C249.182 273.799 249.041 274.594 248.759 275.372C248.477 276.141 248.024 276.953 247.4 277.808C246.785 278.654 245.973 279.594 244.964 280.628C243.955 281.662 242.725 282.842 241.272 284.167H249.592L249.323 286H238.823V284.244C240.49 282.645 241.849 281.295 242.9 280.192C243.96 279.09 244.78 278.141 245.361 277.346C245.943 276.543 246.344 275.808 246.567 275.141C246.797 274.474 246.913 273.782 246.913 273.064C246.913 272.073 246.635 271.291 246.079 270.718C245.524 270.145 244.75 269.859 243.759 269.859C242.887 269.859 242.173 270.009 241.618 270.308C241.062 270.607 240.507 271.085 239.951 271.744L238.464 270.59C239.165 269.735 239.938 269.103 240.785 268.692C241.639 268.274 242.665 268.064 243.861 268.064ZM260.024 268.064C261.922 268.064 263.358 268.85 264.332 270.423C265.315 271.996 265.806 274.244 265.806 277.167C265.806 280.098 265.315 282.355 264.332 283.936C263.358 285.509 261.922 286.295 260.024 286.295C258.127 286.295 256.687 285.509 255.704 283.936C254.729 282.355 254.242 280.098 254.242 277.167C254.242 274.244 254.729 271.996 255.704 270.423C256.687 268.85 258.127 268.064 260.024 268.064ZM260.024 269.795C258.939 269.795 258.084 270.372 257.46 271.526C256.836 272.671 256.524 274.551 256.524 277.167C256.524 279.124 256.674 280.662 256.973 281.782L262.37 270.936C261.832 270.175 261.05 269.795 260.024 269.795ZM263.537 277.167C263.537 275.192 263.383 273.65 263.076 272.538L257.704 283.423C258.242 284.175 259.016 284.551 260.024 284.551C261.118 284.551 261.977 283.974 262.601 282.821C263.225 281.667 263.537 279.782 263.537 277.167ZM280.982 284.244V286H270.79V284.244H275.136V270.679L271.085 273.141L270.149 271.603L275.405 268.346H277.29V284.244H280.982ZM289.004 286.244L286.991 285.628L293.876 270.141H285.594V268.346H296.042V270L289.004 286.244Z" fill="white"/>
<circle cx="15" cy="279" r="15" fill="#2F27CE"/>
</svg>
