<svg width="50" height="50" viewBox="0 0 50 50" fill="none" xmlns="http://www.w3.org/2000/svg">
<path d="M38.5688 14.175L39.0376 13.4656L39.8563 13.9625L40.2188 14.2219C41.0938 14.8969 42.9345 16.6219 43.3313 19.4844C44.0282 19.3594 44.7313 19.2969 45.4345 19.2969C47.1032 19.2969 48.2251 19.6844 48.8626 20.0062L49.1907 20.1844L49.4032 20.325L50.0001 20.8125L49.7938 21.4375C49.4733 22.2943 48.9724 23.0723 48.3251 23.7188C47.4188 24.6531 45.8251 25.7563 43.297 25.9L42.7407 25.9156H42.2782C41.122 28.9688 39.5688 32.4094 36.9595 35.4969C35.4112 37.3316 33.5747 38.9021 31.522 40.1469C29.061 41.6069 26.3661 42.6303 23.5563 43.1719C21.5438 43.5625 19.5001 43.7563 17.4532 43.75C12.922 43.75 8.92197 42.85 6.46259 41.275C4.26572 39.8719 2.57822 37.5813 1.44384 34.4719C0.451111 31.6306 -0.0364595 28.6375 0.00321706 25.6281C-0.00192464 25.2423 0.131469 24.8674 0.379177 24.5715C0.626885 24.2756 0.972483 24.0784 1.35322 24.0156L1.56572 24H34.5032L34.7907 23.9781L35.2563 23.9281C36.0563 23.8219 37.2751 23.5844 38.1313 23.0844C37.1063 21.3875 36.8157 19.4031 37.2938 17.2906C37.4941 16.4094 37.8093 15.5584 38.2313 14.7594L38.5688 14.175ZM9.03134 18.075L9.15634 18.0969C9.21344 18.1182 9.26484 18.1525 9.30657 18.1969C9.3483 18.2413 9.37923 18.2948 9.39697 18.3531L9.41572 18.4781V22.5875L9.39697 22.7156C9.37891 22.7743 9.34751 22.8279 9.30521 22.8724C9.26292 22.9169 9.21089 22.9509 9.15322 22.9719L9.03134 22.9906H4.61884C4.5366 22.9895 4.45685 22.9623 4.39111 22.9128C4.32538 22.8634 4.27709 22.7943 4.25322 22.7156L4.23134 22.5906V18.475L4.25322 18.35C4.27085 18.2908 4.30207 18.2365 4.34438 18.1915C4.3867 18.1464 4.43895 18.1119 4.49697 18.0906L4.61884 18.0719L9.03134 18.075ZM15.1157 18.075L15.2376 18.0969C15.2953 18.1178 15.3473 18.1519 15.3896 18.1963C15.4319 18.2408 15.4633 18.2945 15.4813 18.3531L15.5001 18.4781V22.5875L15.4782 22.7156C15.4602 22.7743 15.4288 22.8279 15.3865 22.8724C15.3442 22.9169 15.2921 22.9509 15.2345 22.9719L15.1126 22.9906H10.7001C10.618 22.989 10.5384 22.9616 10.4728 22.9123C10.4072 22.8629 10.3588 22.7941 10.3345 22.7156L10.3126 22.5938V18.4781C10.3119 18.3945 10.3371 18.3127 10.3846 18.2439C10.4322 18.1751 10.4998 18.1227 10.5782 18.0937L10.7001 18.0719L15.1157 18.075ZM21.2907 18.075L21.4126 18.0969C21.4697 18.1182 21.5211 18.1525 21.5628 18.1969C21.6046 18.2413 21.6355 18.2948 21.6532 18.3531L21.6751 18.4781V22.5875L21.6532 22.7156C21.6352 22.7743 21.6038 22.8279 21.5615 22.8724C21.5192 22.9169 21.4671 22.9509 21.4095 22.9719L21.2876 22.9906H16.8751C16.7929 22.9895 16.7131 22.9623 16.6474 22.9128C16.5816 22.8634 16.5333 22.7943 16.5095 22.7156L16.4907 22.5906V18.475L16.5095 18.35C16.5271 18.2908 16.5583 18.2365 16.6006 18.1915C16.643 18.1464 16.6952 18.1119 16.7532 18.0906L16.8751 18.0719L21.2907 18.075ZM27.3907 18.075L27.5126 18.0969C27.5703 18.1178 27.6223 18.1519 27.6646 18.1963C27.7069 18.2408 27.7383 18.2945 27.7563 18.3531L27.7782 18.4781V22.5875C27.7789 22.6711 27.7537 22.7529 27.7062 22.8217C27.6587 22.8905 27.591 22.9429 27.5126 22.9719L27.3876 22.9906H22.9782C22.896 22.9895 22.8162 22.9623 22.7505 22.9128C22.6848 22.8634 22.6365 22.7943 22.6126 22.7156L22.5938 22.5906V18.475L22.6126 18.35C22.6302 18.2908 22.6614 18.2365 22.7038 18.1915C22.7461 18.1464 22.7983 18.1119 22.8563 18.0906L22.9813 18.0719H27.3938L27.3907 18.075ZM33.547 18.075L33.6688 18.0969C33.7265 18.1178 33.7785 18.1519 33.8208 18.1963C33.8631 18.2408 33.8945 18.2945 33.9126 18.3531L33.9313 18.4781V22.5875C33.932 22.6711 33.9069 22.7529 33.8593 22.8217C33.8118 22.8905 33.7442 22.9429 33.6657 22.9719L33.5438 22.9906H29.1313C29.0491 22.9895 28.9693 22.9623 28.9036 22.9128C28.8379 22.8634 28.7896 22.7943 28.7657 22.7156L28.747 22.5906V18.475L28.7657 18.35C28.7833 18.2908 28.8146 18.2365 28.8569 18.1915C28.8992 18.1464 28.9514 18.1119 29.0095 18.0906L29.1345 18.0719H33.5438L33.547 18.075ZM15.1095 12.1625L15.2345 12.1844C15.2912 12.2054 15.3424 12.2392 15.3841 12.283C15.4258 12.3269 15.4569 12.3798 15.4751 12.4375L15.497 12.5656V16.675C15.4976 16.7586 15.4725 16.8404 15.4249 16.9092C15.3774 16.978 15.3098 17.0304 15.2313 17.0594L15.1095 17.0813H10.7001C10.6172 17.0793 10.5371 17.0509 10.4713 17.0004C10.4056 16.9498 10.3577 16.8796 10.3345 16.8L10.3126 16.675V12.5656C10.3126 12.4825 10.338 12.4014 10.3855 12.3333C10.433 12.2651 10.5003 12.2131 10.5782 12.1844L10.7001 12.1625H15.1095ZM21.2845 12.1625L21.4095 12.1844C21.4662 12.2054 21.5174 12.2392 21.5591 12.283C21.6008 12.3269 21.6319 12.3798 21.6501 12.4375L21.672 12.5656V16.675C21.6726 16.7586 21.6475 16.8404 21.5999 16.9092C21.5524 16.978 21.4848 17.0304 21.4063 17.0594L21.2845 17.0813H16.8751C16.7922 17.0793 16.7121 17.0509 16.6463 17.0004C16.5806 16.9498 16.5327 16.8796 16.5095 16.8L16.4907 16.675V12.5656L16.5095 12.4406C16.5275 12.382 16.5589 12.3283 16.6012 12.2838C16.6435 12.2394 16.6955 12.2053 16.7532 12.1844L16.8751 12.1625H21.2845ZM27.3876 12.1625C27.5563 12.1625 27.7001 12.2781 27.7532 12.4375L27.7751 12.5656V16.675C27.7758 16.7586 27.7506 16.8404 27.7031 16.9092C27.6555 16.978 27.5879 17.0304 27.5095 17.0594L27.3845 17.0813H22.9782C22.8953 17.0793 22.8152 17.0509 22.7495 17.0004C22.6837 16.9498 22.6358 16.8796 22.6126 16.8L22.5938 16.675V12.5656L22.6126 12.4406C22.6306 12.382 22.6621 12.3283 22.7043 12.2838C22.7466 12.2394 22.7987 12.2053 22.8563 12.1844L22.9813 12.1625H27.3938H27.3876ZM27.3876 6.25C27.5563 6.25 27.7001 6.36563 27.7532 6.525L27.7751 6.65V10.7625C27.7758 10.8461 27.7506 10.9279 27.7031 10.9967C27.6555 11.0655 27.5879 11.1179 27.5095 11.1469L27.3845 11.1656H22.9782C22.896 11.1645 22.8162 11.1373 22.7505 11.0878C22.6848 11.0384 22.6365 10.9693 22.6126 10.8906L22.5938 10.7656V6.65L22.6126 6.525C22.6306 6.46635 22.6621 6.41269 22.7043 6.36822C22.7466 6.32376 22.7987 6.28971 22.8563 6.26875L22.9782 6.25H27.3907H27.3876Z" fill="#2396ED"/>
</svg>
