<svg width="50" height="50" viewBox="0 0 50 50" fill="none" xmlns="http://www.w3.org/2000/svg">
<path d="M46.797 27.825L44.3438 20.4688L39.4938 5.87502C39.4364 5.70978 39.3287 5.56667 39.1857 5.46579C39.0428 5.36491 38.8719 5.31131 38.697 5.31252C38.5226 5.31196 38.3523 5.36586 38.21 5.4667C38.0678 5.56754 37.9605 5.71029 37.9032 5.87502L33.0532 20.4594H16.9438L12.0938 5.8719C12.0365 5.70749 11.9291 5.56516 11.7867 5.46485C11.6444 5.36453 11.4742 5.31127 11.3001 5.31252C11.1256 5.3115 10.9551 5.36521 10.8128 5.46612C10.6704 5.56702 10.5632 5.71003 10.5063 5.87502L5.66259 20.4594L3.21259 27.825C3.10416 28.1532 3.10427 28.5076 3.21289 28.8357C3.32151 29.1638 3.53288 29.4482 3.81572 29.6469L25.0032 44.6844L46.1845 29.6469C46.4686 29.4492 46.6815 29.1653 46.7918 28.8372C46.9021 28.5091 46.9039 28.1542 46.797 27.825Z" fill="#FC6D26"/>
<path d="M24.9999 44.6748L33.0562 20.4561H16.9468L24.9999 44.6748Z" fill="#E24329"/>
<path d="M24.9999 44.6748L16.9405 20.4561H5.66553L24.9999 44.6748Z" fill="#FC6D26"/>
<path d="M5.65625 20.4658L3.20625 27.8221C3.09782 28.1503 3.09792 28.5046 3.20654 28.8327C3.31517 29.1609 3.52653 29.4453 3.80937 29.6439L25 44.6877L5.65625 20.4689V20.4658Z" fill="#FCA326"/>
<path d="M5.6626 20.4657H16.9501L12.0938 5.88137C12.0366 5.71663 11.9293 5.57389 11.787 5.47305C11.6447 5.37221 11.4745 5.31831 11.3001 5.31887C11.1252 5.31766 10.9542 5.37125 10.8113 5.47214C10.6684 5.57302 10.5607 5.71613 10.5032 5.88137L5.6626 20.4657Z" fill="#E24329"/>
<path d="M25 44.6748L33.0562 20.4561H44.35L25 44.6748Z" fill="#FC6D26"/>
<path d="M44.3437 20.4658L46.7906 27.8221C46.8996 28.1502 46.8997 28.5047 46.7911 28.833C46.6824 29.1612 46.4707 29.4456 46.1875 29.6439L25 44.6752L44.3375 20.4658H44.3437Z" fill="#FCA326"/>
<path d="M44.3437 20.4658H33.0625L37.9094 5.88139C37.9664 5.71589 38.074 5.57251 38.2171 5.47157C38.3601 5.37062 38.5312 5.3172 38.7062 5.31889C39.0656 5.31889 39.3844 5.54701 39.5 5.88139L44.35 20.4658H44.3437Z" fill="#E24329"/>
</svg>
