<svg width="50" height="50" viewBox="0 0 50 50" fill="none" xmlns="http://www.w3.org/2000/svg">
<path d="M25.0776 13.1885C35.3715 5.19698 30.0884 0 30.0884 0C30.8746 8.26153 21.5828 10.2122 19.092 15.8894C17.3925 19.7633 20.2559 23.1552 25.0742 27.4303C24.6482 26.4834 23.9912 25.5634 23.3262 24.632C21.0576 21.4552 18.6945 18.1456 25.0776 13.1885Z" fill="#E76F00"/>
<path d="M26.7211 29.183C26.7211 29.183 29.818 26.6844 27.3655 23.9077C19.0518 14.4875 36.4583 10.2124 36.4583 10.2124C25.8308 15.3322 27.4174 18.3711 30.0886 22.063C32.9486 26.0217 26.7211 29.183 26.7211 29.183Z" fill="#E76F00"/>
<path d="M35.8392 36.6338C45.3787 31.7591 40.9681 27.0747 37.8895 27.7058C37.1348 27.8602 36.7984 27.9941 36.7984 27.9941C36.7984 27.9941 37.0786 27.5625 37.6136 27.3756C43.704 25.2702 48.3879 33.5858 35.6475 36.8794C35.6475 36.8794 35.7951 36.7497 35.8392 36.6338Z" fill="#5382A1"/>
<path d="M15.989 30.464C10.0204 29.6802 19.2616 27.5218 19.2616 27.5218C19.2616 27.5218 15.6729 27.2838 11.2592 29.3818C6.04017 31.8645 24.1688 32.9935 33.553 30.5665C34.5287 29.9113 35.8771 29.3435 35.8771 29.3435C35.8771 29.3435 32.0369 30.0179 28.2126 30.3352C23.533 30.7207 18.5091 30.7959 15.989 30.464Z" fill="#5382A1"/>
<path d="M18.2599 35.1182C14.9315 34.7798 17.1108 33.1934 17.1108 33.1934C8.49831 36.0043 21.9027 39.192 33.9373 35.7313C32.658 35.2879 31.8446 34.4768 31.8446 34.4768C25.9629 35.5905 22.564 35.5549 18.2599 35.1182Z" fill="#5382A1"/>
<path d="M19.7101 40.155C16.3843 39.7791 18.3272 38.668 18.3272 38.668C10.5092 40.8161 23.0826 45.2541 33.0363 41.0591C31.406 40.4356 30.2387 39.7159 30.2387 39.7159C25.7985 40.5422 23.7391 40.607 19.7101 40.155Z" fill="#5382A1"/>
<path d="M40.5292 42.7169C40.5292 42.7169 41.967 43.8818 38.9456 44.7831C33.2002 46.4947 15.0327 47.0115 9.98584 44.8514C8.17163 44.0753 11.5738 42.9983 12.644 42.7722C13.7601 42.5342 14.3979 42.5786 14.3979 42.5786C12.3803 41.1809 1.35701 45.3229 8.79861 46.5092C29.093 49.7456 45.7933 45.0517 40.5292 42.7169Z" fill="#5382A1"/>
<path d="M43.7499 45.2622C43.417 49.5228 29.3557 50.4191 20.199 49.8427C14.2254 49.466 13.0283 48.5246 13.0107 48.5108C18.7279 49.4377 28.367 49.6064 36.1824 48.16C43.1098 46.8774 43.7499 45.2622 43.7499 45.2622Z" fill="#5382A1"/>
</svg>
